<svg xmlns="http://www.w3.org/2000/svg" width="1796" height="896" viewBox="0 0 1796 896" role="img" aria-label="California house value tier" font-family="Helvetica, &#x27;Helvetica Neue&#x27;, Arial, &#x27;Nimbus Sans&#x27;, &#x27;Liberation Sans&#x27;, sans-serif"><defs><filter id="dti5-sh" x="-20%" y="-20%" width="140%" height="160%"><feDropShadow dx="0" dy="1" stdDeviation="1" style="flood-color:#1a1a1a;flood-opacity:0.06"/><feDropShadow dx="0" dy="6" stdDeviation="8" style="flood-color:#1a1a1a;flood-opacity:0.07"/></filter></defs><rect width="100%" height="100%" style="fill:#fcfcfb"/><g transform="translate(28,28)"><text x="0" y="18" style="font-size:18px;font-weight:650;fill:#0b0b0b">California house value tier</text><text x="0" y="41" style="font-size:12px;font-weight:400;fill:#52514e">DecisionTreeClassifier  ·  depth 8  ·  143 leaves  ·  20,640 training samples</text><circle cx="5" cy="62" r="5" style="fill:#2a78d6"/><text x="15" y="66" style="font-size:11.5px;font-weight:400;fill:#52514e">low</text><circle cx="48.2" cy="62" r="5" style="fill:#eb6834"/><text x="58.2" y="66" style="font-size:11.5px;font-weight:400;fill:#52514e">mid</text><circle cx="92.8" cy="62" r="5" style="fill:#1baf7a"/><text x="102.8" y="66" style="font-size:11.5px;font-weight:400;fill:#52514e">high</text></g><g transform="translate(28,120)"><g style="fill-opacity:0.32"><title>MedInc ≤ 4.11: ≤ 4.11  →  13,133 samples</title><path d="M810,136.5C810,168.5 391.8,168.5 391.8,200.5L429.4,200.5C429.4,168.5 847.6,168.5 847.6,136.5Z" style="fill:#2a78d6"/><path d="M847.6,136.5C847.6,168.5 429.4,168.5 429.4,200.5L456,200.5C456,168.5 874.2,168.5 874.2,136.5Z" style="fill:#eb6834"/><path d="M874.2,136.5C874.2,168.5 456,168.5 456,200.5L468.2,200.5C468.2,168.5 886.4,168.5 886.4,136.5Z" style="fill:#1baf7a"/></g><g style="fill-opacity:0.32"><title>MedInc ≤ 4.11: &gt; 4.11  →  7,507 samples</title><path d="M886.4,136.5C886.4,168.5 1288.2,168.5 1288.2,200.5L1290.6,200.5C1290.6,168.5 888.8,168.5 888.8,136.5Z" style="fill:#2a78d6"/><path d="M888.8,136.5C888.8,168.5 1290.6,168.5 1290.6,200.5L1304,200.5C1304,168.5 902.2,168.5 902.2,136.5Z" style="fill:#eb6834"/><path d="M902.2,136.5C902.2,168.5 1304,168.5 1304,200.5L1331.8,200.5C1331.8,168.5 930,168.5 930,136.5Z" style="fill:#1baf7a"/></g><g style="fill-opacity:0.32"><title>MedInc ≤ 2.58: ≤ 2.58  →  5,238 samples</title><path d="M391.8,337C391.8,369 194.8,369 194.8,401L216.2,401C216.2,369 413.3,369 413.3,337Z" style="fill:#2a78d6"/><path d="M413.3,337C413.3,369 216.2,369 216.2,401L223.1,401C223.1,369 420.2,369 420.2,337Z" style="fill:#eb6834"/><path d="M420.2,337C420.2,369 223.1,369 223.1,401L225.2,401C225.2,369 422.3,369 422.3,337Z" style="fill:#1baf7a"/></g><g style="fill-opacity:0.32"><title>MedInc ≤ 2.58: &gt; 2.58  →  7,895 samples</title><path d="M422.3,337C422.3,369 627,369 627,401L643.2,401C643.2,369 438.4,369 438.4,337Z" style="fill:#2a78d6"/><path d="M438.4,337C438.4,369 643.2,369 643.2,401L662.9,401C662.9,369 458.1,369 458.1,337Z" style="fill:#eb6834"/><path d="M458.1,337C458.1,369 662.9,369 662.9,401L673,401C673,369 468.2,369 468.2,337Z" style="fill:#1baf7a"/></g><g style="fill-opacity:0.32"><title>AveRooms ≤ 3.94: ≤ 3.94  →  1,668 samples</title><path d="M194.8,537.5C194.8,569.5 95.2,569.5 95.2,601.5L99.5,601.5C99.5,569.5 199.1,569.5 199.1,537.5Z" style="fill:#2a78d6"/><path d="M199.1,537.5C199.1,569.5 99.5,569.5 99.5,601.5L103.5,601.5C103.5,569.5 203.1,569.5 203.1,537.5Z" style="fill:#eb6834"/><path d="M203.1,537.5C203.1,569.5 103.5,569.5 103.5,601.5L104.8,601.5C104.8,569.5 204.5,569.5 204.5,537.5Z" style="fill:#1baf7a"/></g><g style="fill-opacity:0.32"><title>AveRooms ≤ 3.94: &gt; 3.94  →  3,570 samples</title><path d="M204.5,537.5C204.5,569.5 309.6,569.5 309.6,601.5L326.7,601.5C326.7,569.5 221.5,569.5 221.5,537.5Z" style="fill:#2a78d6"/><path d="M221.5,537.5C221.5,569.5 326.7,569.5 326.7,601.5L329.6,601.5C329.6,569.5 224.4,569.5 224.4,537.5Z" style="fill:#eb6834"/><path d="M224.4,537.5C224.4,569.5 329.6,569.5 329.6,601.5L330.4,601.5C330.4,569.5 225.2,569.5 225.2,537.5Z" style="fill:#1baf7a"/></g><g style="fill-opacity:0.32"><title>AveOccup ≤ 2.27: ≤ 2.27  →  1,567 samples</title><path d="M627,537.5C627,569.5 535.4,569.5 535.4,601.5L536.9,601.5C536.9,569.5 628.5,569.5 628.5,537.5Z" style="fill:#2a78d6"/><path d="M628.5,537.5C628.5,569.5 536.9,569.5 536.9,601.5L539.8,601.5C539.8,569.5 631.4,569.5 631.4,537.5Z" style="fill:#eb6834"/><path d="M631.4,537.5C631.4,569.5 539.8,569.5 539.8,601.5L544.6,601.5C544.6,569.5 636.2,569.5 636.2,537.5Z" style="fill:#1baf7a"/></g><g style="fill-opacity:0.32"><title>AveOccup ≤ 2.27: &gt; 2.27  →  6,328 samples</title><path d="M636.2,537.5C636.2,569.5 741.6,569.5 741.6,601.5L756.2,601.5C756.2,569.5 650.8,569.5 650.8,537.5Z" style="fill:#2a78d6"/><path d="M650.8,537.5C650.8,569.5 756.2,569.5 756.2,601.5L773.1,601.5C773.1,569.5 667.7,569.5 667.7,537.5Z" style="fill:#eb6834"/><path d="M667.7,537.5C667.7,569.5 773.1,569.5 773.1,601.5L778.4,601.5C778.4,569.5 673,569.5 673,537.5Z" style="fill:#1baf7a"/></g><g style="fill-opacity:0.32"><title>MedInc ≤ 5.59: ≤ 5.59  →  4,513 samples</title><path d="M1288.2,337C1288.2,369 1076.9,369 1076.9,401L1079.2,401C1079.2,369 1290.5,369 1290.5,337Z" style="fill:#2a78d6"/><path d="M1290.5,337C1290.5,369 1079.2,369 1079.2,401L1091,401C1091,369 1302.3,369 1302.3,337Z" style="fill:#eb6834"/><path d="M1302.3,337C1302.3,369 1091,369 1091,401L1103.1,401C1103.1,369 1314.4,369 1314.4,337Z" style="fill:#1baf7a"/></g><g style="fill-opacity:0.32"><title>MedInc ≤ 5.59: &gt; 5.59  →  2,994 samples</title><path d="M1314.4,337C1314.4,369 1521.3,369 1521.3,401L1521.4,401C1521.4,369 1314.6,369 1314.6,337Z" style="fill:#2a78d6"/><path d="M1314.6,337C1314.6,369 1521.4,369 1521.4,401L1523,401C1523,369 1316.1,369 1316.1,337Z" style="fill:#eb6834"/><path d="M1316.1,337C1316.1,369 1523,369 1523,401L1538.7,401C1538.7,369 1331.8,369 1331.8,337Z" style="fill:#1baf7a"/></g><g style="fill-opacity:0.32"><title>AveOccup ≤ 2.93: ≤ 2.93  →  2,646 samples</title><path d="M1076.9,537.5C1076.9,569.5 972.3,569.5 972.3,601.5L973.2,601.5C973.2,569.5 1077.8,569.5 1077.8,537.5Z" style="fill:#2a78d6"/><path d="M1077.8,537.5C1077.8,569.5 973.2,569.5 973.2,601.5L978.2,601.5C978.2,569.5 1082.8,569.5 1082.8,537.5Z" style="fill:#eb6834"/><path d="M1082.8,537.5C1082.8,569.5 978.2,569.5 978.2,601.5L987.7,601.5C987.7,569.5 1092.3,569.5 1092.3,537.5Z" style="fill:#1baf7a"/></g><g style="fill-opacity:0.32"><title>AveOccup ≤ 2.93: &gt; 2.93  →  1,867 samples</title><path d="M1092.3,537.5C1092.3,569.5 1194.6,569.5 1194.6,601.5L1196,601.5C1196,569.5 1093.7,569.5 1093.7,537.5Z" style="fill:#2a78d6"/><path d="M1093.7,537.5C1093.7,569.5 1196,569.5 1196,601.5L1202.8,601.5C1202.8,569.5 1100.5,569.5 1100.5,537.5Z" style="fill:#eb6834"/><path d="M1100.5,537.5C1100.5,569.5 1202.8,569.5 1202.8,601.5L1205.4,601.5C1205.4,569.5 1103.1,569.5 1103.1,537.5Z" style="fill:#1baf7a"/></g><g style="fill-opacity:0.32"><title>MedInc ≤ 6.26: ≤ 6.26  →  1,072 samples</title><path d="M1521.3,537.5C1521.3,569.5 1416.9,569.5 1416.9,601.5L1417,601.5C1417,569.5 1521.4,569.5 1521.4,537.5Z" style="fill:#2a78d6"/><path d="M1521.4,537.5C1521.4,569.5 1417,569.5 1417,601.5L1418.1,601.5C1418.1,569.5 1522.6,569.5 1522.6,537.5Z" style="fill:#eb6834"/><path d="M1522.6,537.5C1522.6,569.5 1418.1,569.5 1418.1,601.5L1423.1,601.5C1423.1,569.5 1527.5,569.5 1527.5,537.5Z" style="fill:#1baf7a"/></g><g style="fill-opacity:0.32"><title>MedInc ≤ 6.26: &gt; 6.26  →  1,922 samples</title><path d="M1527.5,537.5C1527.5,569.5 1634.4,569.5 1634.4,601.5L1634.5,601.5C1634.5,569.5 1527.6,569.5 1527.6,537.5Z" style="fill:#2a78d6"/><path d="M1527.6,537.5C1527.6,569.5 1634.5,569.5 1634.5,601.5L1634.9,601.5C1634.9,569.5 1528,569.5 1528,537.5Z" style="fill:#eb6834"/><path d="M1528,537.5C1528,569.5 1634.9,569.5 1634.9,601.5L1645.6,601.5C1645.6,569.5 1538.7,569.5 1538.7,537.5Z" style="fill:#1baf7a"/></g><g transform="translate(770,0)"><title>MedInc ≤ 4.11
20,640 samples  ·  gini 0.667</title><rect class="dti-frame" width="200" height="136.5" rx="10" filter="url(#dti5-sh)" style="fill:#ffffff;stroke:#e4e3dd;stroke-width:1"/><text x="12" y="22.5" style="font-size:13px;font-weight:600;fill:#0b0b0b">MedInc</text><path d="M12.8,87V84.4H18.6V87Z" style="fill:#2a78d6"/><path d="M12.8,84.4V83.8H18.6V84.4Z" style="fill:#eb6834"/><path d="M12.8,83.8V83.8Q12.8,83.4 13.1,83.4H18.2Q18.6,83.4 18.6,83.8V83.8Z" style="fill:#1baf7a"/><path d="M20.1,87V71.6H25.9V87Z" style="fill:#2a78d6"/><path d="M20.1,71.6V69H25.9V71.6Z" style="fill:#eb6834"/><path d="M20.1,69V69Q20.1,68 21.1,68H24.9Q25.9,68 25.9,69V69Z" style="fill:#1baf7a"/><path d="M27.4,87V58.3H33.2V87Z" style="fill:#2a78d6"/><path d="M27.4,58.3V49.2H33.2V58.3Z" style="fill:#eb6834"/><path d="M27.4,49.2V48.7Q27.4,46.7 29.4,46.7H31.2Q33.2,46.7 33.2,48.7V49.2Z" style="fill:#1baf7a"/><path d="M34.8,87V61H40.6V87Z" style="fill:#2a78d6"/><path d="M34.8,61V43.3H40.6V61Z" style="fill:#eb6834"/><path d="M34.8,43.3V39.6Q34.8,37.6 36.8,37.6H38.6Q40.6,37.6 40.6,39.6V43.3Z" style="fill:#1baf7a"/><path d="M42.1,87V67.8H47.9V87Z" style="fill:#2a78d6"/><path d="M42.1,67.8V45.8H47.9V67.8Z" style="fill:#eb6834"/><path d="M42.1,45.8V37Q42.1,35 44.1,35H45.9Q47.9,35 47.9,37V45.8Z" style="fill:#1baf7a"/><path d="M49.4,87V75H55.2V87Z" style="fill:#2a78d6"/><path d="M49.4,75V53.5H55.2V75Z" style="fill:#eb6834"/><path d="M49.4,53.5V41.9Q49.4,39.9 51.4,39.9H53.2Q55.2,39.9 55.2,41.9V53.5Z" style="fill:#1baf7a"/><path d="M56.8,87V82.5H62.6V87Z" style="fill:#2a78d6"/><path d="M56.8,82.5V64.8H62.6V82.5Z" style="fill:#eb6834"/><path d="M56.8,64.8V52.7Q56.8,50.7 58.8,50.7H60.6Q62.6,50.7 62.6,52.7V64.8Z" style="fill:#1baf7a"/><path d="M64.1,87V85.5H69.9V87Z" style="fill:#2a78d6"/><path d="M64.1,85.5V73.7H69.9V85.5Z" style="fill:#eb6834"/><path d="M64.1,73.7V61.9Q64.1,59.9 66.1,59.9H67.9Q69.9,59.9 69.9,61.9V73.7Z" style="fill:#1baf7a"/><path d="M71.4,87V86.6H77.2V87Z" style="fill:#2a78d6"/><path d="M71.4,86.6V81.8H77.2V86.6Z" style="fill:#eb6834"/><path d="M71.4,81.8V71.4Q71.4,69.4 73.4,69.4H75.2Q77.2,69.4 77.2,71.4V81.8Z" style="fill:#1baf7a"/><path d="M78.7,87V86.8H84.6V87Z" style="fill:#2a78d6"/><path d="M78.7,86.8V85H84.6V86.8Z" style="fill:#eb6834"/><path d="M78.7,85V75.8Q78.7,73.8 80.7,73.8H82.6Q84.6,73.8 84.6,75.8V85Z" style="fill:#1baf7a"/><path d="M86.1,87V87H91.9V87Z" style="fill:#2a78d6"/><path d="M86.1,87V86.7H91.9V87Z" style="fill:#eb6834"/><path d="M86.1,86.7V81.2Q86.1,79.2 88.1,79.2H89.9Q91.9,79.2 91.9,81.2V86.7Z" style="fill:#1baf7a"/><path d="M93.4,87V87H99.2V87Z" style="fill:#2a78d6"/><path d="M93.4,87V86.7H99.2V87Z" style="fill:#eb6834"/><path d="M93.4,86.7V84Q93.4,82 95.4,82H97.2Q99.2,82 99.2,84V86.7Z" style="fill:#1baf7a"/><path d="M100.7,87V87H106.6V87Z" style="fill:#eb6834"/><path d="M100.7,87V85Q100.7,83 102.7,83H104.6Q106.6,83 106.6,85V87Z" style="fill:#1baf7a"/><path d="M108.1,87V87H113.9V87Z" style="fill:#eb6834"/><path d="M108.1,87V86.6Q108.1,84.6 110.1,84.6H111.9Q113.9,84.6 113.9,86.6V87Z" style="fill:#1baf7a"/><path d="M115.4,87V87H121.2V87Z" style="fill:#eb6834"/><path d="M115.4,87V87Q115.4,85.9 116.5,85.9H120.2Q121.2,85.9 121.2,87V87Z" style="fill:#1baf7a"/><path d="M122.7,87V87H128.6V87Z" style="fill:#eb6834"/><path d="M122.7,87V87Q122.7,85.8 123.9,85.8H127.4Q128.6,85.8 128.6,87V87Z" style="fill:#1baf7a"/><path d="M130.1,87V87H135.9V87Z" style="fill:#2a78d6"/><path d="M130.1,87V87H135.9V87Z" style="fill:#eb6834"/><path d="M130.1,87V87Q130.1,85.6 131.4,85.6H134.6Q135.9,85.6 135.9,87V87Z" style="fill:#1baf7a"/><path d="M137.4,87V87Q137.4,86.2 138.2,86.2H142.4Q143.2,86.2 143.2,87V87Z" style="fill:#1baf7a"/><path d="M144.8,87V87Q144.8,86.7 145.1,86.7H150.3Q150.6,86.7 150.6,87V87Z" style="fill:#1baf7a"/><path d="M152.1,87V87H157.9V87Z" style="fill:#2a78d6"/><path d="M152.1,87V87Q152.1,86.6 152.4,86.6H157.6Q157.9,86.6 157.9,87V87Z" style="fill:#1baf7a"/><path d="M159.4,87V87Q159.4,86.7 159.7,86.7H164.9Q165.2,86.7 165.2,87V87Z" style="fill:#1baf7a"/><path d="M166.8,87V87Q166.8,86.8 167,86.8H172.4Q172.6,86.8 172.6,87V87Z" style="fill:#1baf7a"/><path d="M174.1,87V87Q174.1,86.9 174.2,86.9H179.8Q179.9,86.9 179.9,87V87Z" style="fill:#1baf7a"/><path d="M181.4,87V87H187.2V87Z" style="fill:#2a78d6"/><path d="M181.4,87V87Q181.4,86.1 182.3,86.1H186.4Q187.2,86.1 187.2,87V87Z" style="fill:#1baf7a"/><line x1="12" y1="87.5" x2="188" y2="87.5" style="stroke:#c3c2b7;stroke-width:1"/><path d="M55.9,89l4.5,6h-9z" style="fill:#0b0b0b"/><text x="55.9" y="106" text-anchor="middle" style="font-size:10.5px;font-weight:600;fill:#0b0b0b">4.11</text><text x="12" y="106" style="font-size:10px;font-weight:400;fill:#898781">0.5</text><text x="188" y="106" text-anchor="end" style="font-size:10px;font-weight:400;fill:#898781">15</text><text x="12" y="122.5" style="font-size:10.5px;font-weight:400;fill:#898781;font-variant-numeric:tabular-nums">20,640 samples  ·  gini 0.667</text></g><g transform="translate(330,200.5)"><title>MedInc ≤ 2.58
13,133 samples  ·  gini 0.611</title><rect class="dti-frame" width="200" height="136.5" rx="10" filter="url(#dti5-sh)" style="fill:#ffffff;stroke:#e4e3dd;stroke-width:1"/><text x="12" y="22.5" style="font-size:13px;font-weight:600;fill:#0b0b0b">MedInc</text><path d="M12.8,87V86.2H18.6V87Z" style="fill:#2a78d6"/><path d="M12.8,86.2V86H18.6V86.2Z" style="fill:#eb6834"/><path d="M12.8,86V86Q12.8,85.7 13,85.7H18.3Q18.6,85.7 18.6,86V86Z" style="fill:#1baf7a"/><path d="M20.1,87V86.1H25.9V87Z" style="fill:#2a78d6"/><path d="M20.1,86.1V85.6H25.9V86.1Z" style="fill:#eb6834"/><path d="M20.1,85.6V85.6Q20.1,85.5 20.2,85.5H25.8Q25.9,85.5 25.9,85.6V85.6Z" style="fill:#1baf7a"/><path d="M27.4,87V84.2H33.2V87Z" style="fill:#2a78d6"/><path d="M27.4,84.2V83.5H33.2V84.2Z" style="fill:#eb6834"/><path d="M27.4,83.5V83.5Q27.4,82.9 28,82.9H32.7Q33.2,82.9 33.2,83.5V83.5Z" style="fill:#1baf7a"/><path d="M34.8,87V82.8H40.6V87Z" style="fill:#2a78d6"/><path d="M34.8,82.8V81.9H40.6V82.8Z" style="fill:#eb6834"/><path d="M34.8,81.9V81.9Q34.8,81.7 35,81.7H40.4Q40.6,81.7 40.6,81.9V81.9Z" style="fill:#1baf7a"/><path d="M42.1,87V79.1H47.9V87Z" style="fill:#2a78d6"/><path d="M42.1,79.1V77.8H47.9V79.1Z" style="fill:#eb6834"/><path d="M42.1,77.8V77.8Q42.1,77.2 42.7,77.2H47.3Q47.9,77.2 47.9,77.8V77.8Z" style="fill:#1baf7a"/><path d="M49.4,87V77.3H55.2V87Z" style="fill:#2a78d6"/><path d="M49.4,77.3V75.6H55.2V77.3Z" style="fill:#eb6834"/><path d="M49.4,75.6V75.6Q49.4,75 50,75H54.7Q55.2,75 55.2,75.6V75.6Z" style="fill:#1baf7a"/><path d="M56.8,87V73.1H62.6V87Z" style="fill:#2a78d6"/><path d="M56.8,73.1V70.8H62.6V73.1Z" style="fill:#eb6834"/><path d="M56.8,70.8V70.8Q56.8,69.9 57.7,69.9H61.6Q62.6,69.9 62.6,70.8V70.8Z" style="fill:#1baf7a"/><path d="M64.1,87V66.3H69.9V87Z" style="fill:#2a78d6"/><path d="M64.1,66.3V62.8H69.9V66.3Z" style="fill:#eb6834"/><path d="M64.1,62.8V62.8Q64.1,61.6 65.3,61.6H68.7Q69.9,61.6 69.9,62.8V62.8Z" style="fill:#1baf7a"/><path d="M71.4,87V65H77.2V87Z" style="fill:#2a78d6"/><path d="M71.4,65V60.6H77.2V65Z" style="fill:#eb6834"/><path d="M71.4,60.6V60.6Q71.4,59.2 72.9,59.2H75.8Q77.2,59.2 77.2,60.6V60.6Z" style="fill:#1baf7a"/><path d="M78.7,87V64.4H84.6V87Z" style="fill:#2a78d6"/><path d="M78.7,64.4V57.4H84.6V64.4Z" style="fill:#eb6834"/><path d="M78.7,57.4V57.4Q78.7,55.8 80.3,55.8H83Q84.6,55.8 84.6,57.4V57.4Z" style="fill:#1baf7a"/><path d="M86.1,87V60.9H91.9V87Z" style="fill:#2a78d6"/><path d="M86.1,60.9V52.2H91.9V60.9Z" style="fill:#eb6834"/><path d="M86.1,52.2V51.9Q86.1,49.9 88.1,49.9H89.9Q91.9,49.9 91.9,51.9V52.2Z" style="fill:#1baf7a"/><path d="M93.4,87V59.5H99.2V87Z" style="fill:#2a78d6"/><path d="M93.4,59.5V48.4H99.2V59.5Z" style="fill:#eb6834"/><path d="M93.4,48.4V47.4Q93.4,45.4 95.4,45.4H97.2Q99.2,45.4 99.2,47.4V48.4Z" style="fill:#1baf7a"/><path d="M100.7,87V62.8H106.6V87Z" style="fill:#2a78d6"/><path d="M100.7,62.8V51.3H106.6V62.8Z" style="fill:#eb6834"/><path d="M100.7,51.3V50.3Q100.7,48.3 102.7,48.3H104.6Q106.6,48.3 106.6,50.3V51.3Z" style="fill:#1baf7a"/><path d="M108.1,87V62.1H113.9V87Z" style="fill:#2a78d6"/><path d="M108.1,62.1V46.7H113.9V62.1Z" style="fill:#eb6834"/><path d="M108.1,46.7V43.2Q108.1,41.2 110.1,41.2H111.9Q113.9,41.2 113.9,43.2V46.7Z" style="fill:#1baf7a"/><path d="M115.4,87V64.7H121.2V87Z" style="fill:#2a78d6"/><path d="M115.4,64.7V46.7H121.2V64.7Z" style="fill:#eb6834"/><path d="M115.4,46.7V42.7Q115.4,40.7 117.4,40.7H119.2Q121.2,40.7 121.2,42.7V46.7Z" style="fill:#1baf7a"/><path d="M122.7,87V69.2H128.6V87Z" style="fill:#2a78d6"/><path d="M122.7,69.2V54.2H128.6V69.2Z" style="fill:#eb6834"/><path d="M122.7,54.2V51.1Q122.7,49.1 124.7,49.1H126.6Q128.6,49.1 128.6,51.1V54.2Z" style="fill:#1baf7a"/><path d="M130.1,87V68.3H135.9V87Z" style="fill:#2a78d6"/><path d="M130.1,68.3V49.6H135.9V68.3Z" style="fill:#eb6834"/><path d="M130.1,49.6V44.5Q130.1,42.5 132.1,42.5H133.9Q135.9,42.5 135.9,44.5V49.6Z" style="fill:#1baf7a"/><path d="M137.4,87V67.2H143.2V87Z" style="fill:#2a78d6"/><path d="M137.4,67.2V45.5H143.2V67.2Z" style="fill:#eb6834"/><path d="M137.4,45.5V37Q137.4,35 139.4,35H141.2Q143.2,35 143.2,37V45.5Z" style="fill:#1baf7a"/><path d="M144.8,87V72.6H150.6V87Z" style="fill:#2a78d6"/><path d="M144.8,72.6V54.5H150.6V72.6Z" style="fill:#eb6834"/><path d="M144.8,54.5V47Q144.8,45 146.8,45H148.6Q150.6,45 150.6,47V54.5Z" style="fill:#1baf7a"/><path d="M152.1,87V74.5H157.9V87Z" style="fill:#2a78d6"/><path d="M152.1,74.5V58.2H157.9V74.5Z" style="fill:#eb6834"/><path d="M152.1,58.2V50.9Q152.1,48.9 154.1,48.9H155.9Q157.9,48.9 157.9,50.9V58.2Z" style="fill:#1baf7a"/><path d="M159.4,87V73.1H165.2V87Z" style="fill:#2a78d6"/><path d="M159.4,73.1V51.9H165.2V73.1Z" style="fill:#eb6834"/><path d="M159.4,51.9V41.8Q159.4,39.8 161.4,39.8H163.2Q165.2,39.8 165.2,41.8V51.9Z" style="fill:#1baf7a"/><path d="M166.8,87V77.5H172.6V87Z" style="fill:#2a78d6"/><path d="M166.8,77.5V57.5H172.6V77.5Z" style="fill:#eb6834"/><path d="M166.8,57.5V47.8Q166.8,45.8 168.8,45.8H170.6Q172.6,45.8 172.6,47.8V57.5Z" style="fill:#1baf7a"/><path d="M174.1,87V78.7H179.9V87Z" style="fill:#2a78d6"/><path d="M174.1,78.7V64.1H179.9V78.7Z" style="fill:#eb6834"/><path d="M174.1,64.1V56.5Q174.1,54.5 176.1,54.5H177.9Q179.9,54.5 179.9,56.5V64.1Z" style="fill:#1baf7a"/><path d="M181.4,87V76.9H187.2V87Z" style="fill:#2a78d6"/><path d="M181.4,76.9V58.1H187.2V76.9Z" style="fill:#eb6834"/><path d="M181.4,58.1V46.7Q181.4,44.7 183.4,44.7H185.2Q187.2,44.7 187.2,46.7V58.1Z" style="fill:#1baf7a"/><line x1="12" y1="87.5" x2="188" y2="87.5" style="stroke:#c3c2b7;stroke-width:1"/><path d="M113.1,89l4.5,6h-9z" style="fill:#0b0b0b"/><text x="113.1" y="106" text-anchor="middle" style="font-size:10.5px;font-weight:600;fill:#0b0b0b">2.58</text><text x="12" y="106" style="font-size:10px;font-weight:400;fill:#898781">0.5</text><text x="188" y="106" text-anchor="end" style="font-size:10px;font-weight:400;fill:#898781">4.11</text><text x="12" y="122.5" style="font-size:10.5px;font-weight:400;fill:#898781;font-variant-numeric:tabular-nums">13,133 samples  ·  gini 0.611</text></g><g transform="translate(110,401)"><title>AveRooms ≤ 3.94
5,238 samples  ·  gini 0.448</title><rect class="dti-frame" width="200" height="136.5" rx="10" filter="url(#dti5-sh)" style="fill:#ffffff;stroke:#e4e3dd;stroke-width:1"/><text x="12" y="22.5" style="font-size:13px;font-weight:600;fill:#0b0b0b">AveRooms</text><path d="M12.8,87V86.9H18.6V87Z" style="fill:#2a78d6"/><path d="M12.8,86.9V86.8H18.6V86.9Z" style="fill:#eb6834"/><path d="M12.8,86.8V86.8Q12.8,86.7 12.8,86.7H18.5Q18.6,86.7 18.6,86.8V86.8Z" style="fill:#1baf7a"/><path d="M20.1,87V86.6H25.9V87Z" style="fill:#2a78d6"/><path d="M20.1,86.6V85.8H25.9V86.6Z" style="fill:#eb6834"/><path d="M20.1,85.8V85.8Q20.1,85.2 20.7,85.2H25.3Q25.9,85.2 25.9,85.8V85.8Z" style="fill:#1baf7a"/><path d="M27.4,87V85.1H33.2V87Z" style="fill:#2a78d6"/><path d="M27.4,85.1V82.4H33.2V85.1Z" style="fill:#eb6834"/><path d="M27.4,82.4V82.4Q27.4,80.4 29.4,80.4H31.3Q33.2,80.4 33.2,82.4V82.4Z" style="fill:#1baf7a"/><path d="M34.8,87V82.7H40.6V87Z" style="fill:#2a78d6"/><path d="M34.8,82.7V76.4H40.6V82.7Z" style="fill:#eb6834"/><path d="M34.8,76.4V75.4Q34.8,73.4 36.8,73.4H38.6Q40.6,73.4 40.6,75.4V76.4Z" style="fill:#1baf7a"/><path d="M42.1,87V73.5H47.9V87Z" style="fill:#2a78d6"/><path d="M42.1,73.5V60H47.9V73.5Z" style="fill:#eb6834"/><path d="M42.1,60V58.8Q42.1,56.8 44.1,56.8H45.9Q47.9,56.8 47.9,58.8V60Z" style="fill:#1baf7a"/><path d="M49.4,87V54.9H55.2V87Z" style="fill:#2a78d6"/><path d="M49.4,54.9V41.7H55.2V54.9Z" style="fill:#eb6834"/><path d="M49.4,41.7V40.6Q49.4,38.6 51.4,38.6H53.2Q55.2,38.6 55.2,40.6V41.7Z" style="fill:#1baf7a"/><path d="M56.8,87V44.7H62.6V87Z" style="fill:#2a78d6"/><path d="M56.8,44.7V36.8H62.6V44.7Z" style="fill:#eb6834"/><path d="M56.8,36.8V36.8Q56.8,35 58.6,35H60.7Q62.6,35 62.6,36.8V36.8Z" style="fill:#1baf7a"/><path d="M64.1,87V51.1H69.9V87Z" style="fill:#2a78d6"/><path d="M64.1,51.1V46.6H69.9V51.1Z" style="fill:#eb6834"/><path d="M64.1,46.6V46.6Q64.1,45.3 65.4,45.3H68.6Q69.9,45.3 69.9,46.6V46.6Z" style="fill:#1baf7a"/><path d="M71.4,87V67.2H77.2V87Z" style="fill:#2a78d6"/><path d="M71.4,67.2V65.4H77.2V67.2Z" style="fill:#eb6834"/><path d="M71.4,65.4V65.4Q71.4,64.9 71.9,64.9H76.8Q77.2,64.9 77.2,65.4V65.4Z" style="fill:#1baf7a"/><path d="M78.7,87V79.5H84.6V87Z" style="fill:#2a78d6"/><path d="M78.7,79.5V78.4H84.6V79.5Z" style="fill:#eb6834"/><path d="M78.7,78.4V78.4Q78.7,77.9 79.2,77.9H84.1Q84.6,77.9 84.6,78.4V78.4Z" style="fill:#1baf7a"/><path d="M86.1,87V84.4H91.9V87Z" style="fill:#2a78d6"/><path d="M86.1,84.4V83.9H91.9V84.4Z" style="fill:#eb6834"/><path d="M86.1,83.9V83.9Q86.1,83.7 86.3,83.7H91.7Q91.9,83.7 91.9,83.9V83.9Z" style="fill:#1baf7a"/><path d="M93.4,87V85.7H99.2V87Z" style="fill:#2a78d6"/><path d="M93.4,85.7V85.7Q93.4,85.5 93.6,85.5H99.1Q99.2,85.5 99.2,85.7V85.7Z" style="fill:#eb6834"/><path d="M100.7,87V85.9H106.6V87Z" style="fill:#2a78d6"/><path d="M100.7,85.9V85.8H106.6V85.9Z" style="fill:#eb6834"/><path d="M100.7,85.8V85.8Q100.7,85.7 100.8,85.7H106.5Q106.6,85.7 106.6,85.8V85.8Z" style="fill:#1baf7a"/><path d="M108.1,87V86.6H113.9V87Z" style="fill:#2a78d6"/><path d="M108.1,86.6V86.6H113.9V86.6Z" style="fill:#eb6834"/><path d="M108.1,86.6V86.6Q108.1,86.5 108.1,86.5H113.9Q113.9,86.5 113.9,86.6V86.6Z" style="fill:#1baf7a"/><path d="M115.4,87V86.6H121.2V87Z" style="fill:#2a78d6"/><path d="M115.4,86.6V86.6Q115.4,86.6 115.5,86.6H121.2Q121.2,86.6 121.2,86.6V86.6Z" style="fill:#1baf7a"/><path d="M122.7,87V87Q122.7,86.8 123,86.8H128.4Q128.6,86.8 128.6,87V87Z" style="fill:#2a78d6"/><path d="M130.1,87V86.9H135.9V87Z" style="fill:#2a78d6"/><path d="M130.1,86.9V86.9Q130.1,86.8 130.1,86.8H135.9Q135.9,86.8 135.9,86.9V86.9Z" style="fill:#eb6834"/><path d="M137.4,87V87Q137.4,86.8 137.6,86.8H143Q143.2,86.8 143.2,87V87Z" style="fill:#2a78d6"/><path d="M144.8,87V87Q144.8,86.9 144.8,86.9H150.5Q150.6,86.9 150.6,87V87Z" style="fill:#2a78d6"/><path d="M152.1,87V87Q152.1,86.7 152.4,86.7H157.6Q157.9,86.7 157.9,87V87Z" style="fill:#2a78d6"/><path d="M159.4,87V86.9H165.2V87Z" style="fill:#2a78d6"/><path d="M159.4,86.9V86.9Q159.4,86.9 159.5,86.9H165.2Q165.2,86.9 165.2,86.9V86.9Z" style="fill:#eb6834"/><path d="M166.8,87V87Q166.8,87 166.8,87H172.5Q172.6,87 172.6,87V87Z" style="fill:#2a78d6"/><path d="M181.4,87V86.1H187.2V87Z" style="fill:#2a78d6"/><path d="M181.4,86.1V85.8H187.2V86.1Z" style="fill:#eb6834"/><path d="M181.4,85.8V85.8Q181.4,85.7 181.5,85.7H187.2Q187.2,85.7 187.2,85.8V85.8Z" style="fill:#1baf7a"/><line x1="12" y1="87.5" x2="188" y2="87.5" style="stroke:#c3c2b7;stroke-width:1"/><path d="M52.1,89l4.5,6h-9z" style="fill:#0b0b0b"/><text x="52.1" y="106" text-anchor="middle" style="font-size:10.5px;font-weight:600;fill:#0b0b0b">3.94</text><text x="12" y="106" style="font-size:10px;font-weight:400;fill:#898781">1</text><text x="188" y="106" text-anchor="end" style="font-size:10px;font-weight:400;fill:#898781">13.9+</text><text x="12" y="122.5" style="font-size:10.5px;font-weight:400;fill:#898781;font-variant-numeric:tabular-nums">5,238 samples  ·  gini 0.448</text></g><g transform="translate(0,601.5)"><title>MedInc ≤ 1.93
1,668 samples  ·  gini 0.608</title><rect x="8" y="8" width="200" height="136.5" rx="10" style="fill:#ffffff;stroke:#e4e3dd;stroke-width:1"/><rect x="4" y="4" width="200" height="136.5" rx="10" style="fill:#ffffff;stroke:#e4e3dd;stroke-width:1"/><rect class="dti-frame" width="200" height="136.5" rx="10" filter="url(#dti5-sh)" style="fill:#ffffff;stroke:#e4e3dd;stroke-width:1"/><text x="12" y="22.5" style="font-size:13px;font-weight:600;fill:#0b0b0b">MedInc</text><path d="M12.8,87V85.1H18.6V87Z" style="fill:#2a78d6"/><path d="M12.8,85.1V84.4H18.6V85.1Z" style="fill:#eb6834"/><path d="M12.8,84.4V84.4Q12.8,84 13.1,84H18.2Q18.6,84 18.6,84.4V84.4Z" style="fill:#1baf7a"/><path d="M20.1,87V87Q20.1,86.6 20.5,86.6H25.5Q25.9,86.6 25.9,87V87Z" style="fill:#2a78d6"/><path d="M27.4,87V83.7H33.2V87Z" style="fill:#2a78d6"/><path d="M27.4,83.7V81.8H33.2V83.7Z" style="fill:#eb6834"/><path d="M27.4,81.8V81.8Q27.4,80.7 28.5,80.7H32.1Q33.2,80.7 33.2,81.8V81.8Z" style="fill:#1baf7a"/><path d="M34.8,87V84H40.6V87Z" style="fill:#2a78d6"/><path d="M34.8,84V81.4H40.6V84Z" style="fill:#eb6834"/><path d="M34.8,81.4V81.4Q34.8,80.3 35.9,80.3H39.5Q40.6,80.3 40.6,81.4V81.4Z" style="fill:#1baf7a"/><path d="M42.1,87V83.7H47.9V87Z" style="fill:#2a78d6"/><path d="M42.1,83.7V80.7H47.9V83.7Z" style="fill:#eb6834"/><path d="M42.1,80.7V80.7Q42.1,78.8 43.9,78.8H46.1Q47.9,78.8 47.9,80.7V80.7Z" style="fill:#1baf7a"/><path d="M49.4,87V80.3H55.2V87Z" style="fill:#2a78d6"/><path d="M49.4,80.3V77.3H55.2V80.3Z" style="fill:#eb6834"/><path d="M49.4,77.3V77.3Q49.4,76.6 50.2,76.6H54.5Q55.2,76.6 55.2,77.3V77.3Z" style="fill:#1baf7a"/><path d="M56.8,87V77.7H62.6V87Z" style="fill:#2a78d6"/><path d="M56.8,77.7V74.7H62.6V77.7Z" style="fill:#eb6834"/><path d="M56.8,74.7V74.7Q56.8,73.6 57.9,73.6H61.5Q62.6,73.6 62.6,74.7V74.7Z" style="fill:#1baf7a"/><path d="M64.1,87V77H69.9V87Z" style="fill:#2a78d6"/><path d="M64.1,77V75.1H69.9V77Z" style="fill:#eb6834"/><path d="M64.1,75.1V75.1Q64.1,73.3 65.9,73.3H68.1Q69.9,73.3 69.9,75.1V75.1Z" style="fill:#1baf7a"/><path d="M71.4,87V74.7H77.2V87Z" style="fill:#2a78d6"/><path d="M71.4,74.7V71H77.2V74.7Z" style="fill:#eb6834"/><path d="M71.4,71V70.4Q71.4,68.4 73.4,68.4H75.2Q77.2,68.4 77.2,70.4V71Z" style="fill:#1baf7a"/><path d="M78.7,87V74.4H84.6V87Z" style="fill:#2a78d6"/><path d="M78.7,74.4V69.2H84.6V74.4Z" style="fill:#eb6834"/><path d="M78.7,69.2V69.2Q78.7,67.3 80.6,67.3H82.7Q84.6,67.3 84.6,69.2V69.2Z" style="fill:#1baf7a"/><path d="M86.1,87V75.1H91.9V87Z" style="fill:#2a78d6"/><path d="M86.1,75.1V68.4H91.9V75.1Z" style="fill:#eb6834"/><path d="M86.1,68.4V68.4Q86.1,67.7 86.8,67.7H91.2Q91.9,67.7 91.9,68.4V68.4Z" style="fill:#1baf7a"/><path d="M93.4,87V71.4H99.2V87Z" style="fill:#2a78d6"/><path d="M93.4,71.4V65.5H99.2V71.4Z" style="fill:#eb6834"/><path d="M93.4,65.5V63Q93.4,61 95.4,61H97.2Q99.2,61 99.2,63V65.5Z" style="fill:#1baf7a"/><path d="M100.7,87V68.8H106.6V87Z" style="fill:#2a78d6"/><path d="M100.7,68.8V61.4H106.6V68.8Z" style="fill:#eb6834"/><path d="M100.7,61.4V60.4Q100.7,58.4 102.7,58.4H104.6Q106.6,58.4 106.6,60.4V61.4Z" style="fill:#1baf7a"/><path d="M108.1,87V65.1H113.9V87Z" style="fill:#2a78d6"/><path d="M108.1,65.1V54.7H113.9V65.1Z" style="fill:#eb6834"/><path d="M108.1,54.7V52.6Q108.1,50.6 110.1,50.6H111.9Q113.9,50.6 113.9,52.6V54.7Z" style="fill:#1baf7a"/><path d="M115.4,87V66.2H121.2V87Z" style="fill:#2a78d6"/><path d="M115.4,66.2V54.3H121.2V66.2Z" style="fill:#eb6834"/><path d="M115.4,54.3V51.9Q115.4,49.9 117.4,49.9H119.2Q121.2,49.9 121.2,51.9V54.3Z" style="fill:#1baf7a"/><path d="M122.7,87V69.5H128.6V87Z" style="fill:#2a78d6"/><path d="M122.7,69.5V58.8H128.6V69.5Z" style="fill:#eb6834"/><path d="M122.7,58.8V56.3Q122.7,54.3 124.7,54.3H126.6Q128.6,54.3 128.6,56.3V58.8Z" style="fill:#1baf7a"/><path d="M130.1,87V69.9H135.9V87Z" style="fill:#2a78d6"/><path d="M130.1,69.9V52.5H135.9V69.9Z" style="fill:#eb6834"/><path d="M130.1,52.5V51.1Q130.1,49.1 132.1,49.1H133.9Q135.9,49.1 135.9,51.1V52.5Z" style="fill:#1baf7a"/><path d="M137.4,87V72.1H143.2V87Z" style="fill:#2a78d6"/><path d="M137.4,72.1V51.7H143.2V72.1Z" style="fill:#eb6834"/><path d="M137.4,51.7V49.3Q137.4,47.3 139.4,47.3H141.2Q143.2,47.3 143.2,49.3V51.7Z" style="fill:#1baf7a"/><path d="M144.8,87V68.1H150.6V87Z" style="fill:#2a78d6"/><path d="M144.8,68.1V50.6H150.6V68.1Z" style="fill:#eb6834"/><path d="M144.8,50.6V47Q144.8,45 146.8,45H148.6Q150.6,45 150.6,47V50.6Z" style="fill:#1baf7a"/><path d="M152.1,87V66.9H157.9V87Z" style="fill:#2a78d6"/><path d="M152.1,66.9V41.3H157.9V66.9Z" style="fill:#eb6834"/><path d="M152.1,41.3V37Q152.1,35 154.1,35H155.9Q157.9,35 157.9,37V41.3Z" style="fill:#1baf7a"/><path d="M159.4,87V74H165.2V87Z" style="fill:#2a78d6"/><path d="M159.4,74V49.9H165.2V74Z" style="fill:#eb6834"/><path d="M159.4,49.9V43.7Q159.4,41.7 161.4,41.7H163.2Q165.2,41.7 165.2,43.7V49.9Z" style="fill:#1baf7a"/><path d="M166.8,87V74.7H172.6V87Z" style="fill:#2a78d6"/><path d="M166.8,74.7V51H172.6V74.7Z" style="fill:#eb6834"/><path d="M166.8,51V43.7Q166.8,41.7 168.8,41.7H170.6Q172.6,41.7 172.6,43.7V51Z" style="fill:#1baf7a"/><path d="M174.1,87V78.8H179.9V87Z" style="fill:#2a78d6"/><path d="M174.1,78.8V57.7H179.9V78.8Z" style="fill:#eb6834"/><path d="M174.1,57.7V55.9Q174.1,53.9 176.1,53.9H177.9Q179.9,53.9 179.9,55.9V57.7Z" style="fill:#1baf7a"/><path d="M181.4,87V80.7H187.2V87Z" style="fill:#2a78d6"/><path d="M181.4,80.7V53.2H187.2V80.7Z" style="fill:#eb6834"/><path d="M181.4,53.2V45.2Q181.4,43.2 183.4,43.2H185.2Q187.2,43.2 187.2,45.2V53.2Z" style="fill:#1baf7a"/><line x1="12" y1="87.5" x2="188" y2="87.5" style="stroke:#c3c2b7;stroke-width:1"/><path d="M133.7,89l4.5,6h-9z" style="fill:#0b0b0b"/><text x="133.7" y="106" text-anchor="middle" style="font-size:10.5px;font-weight:600;fill:#0b0b0b">1.93</text><text x="12" y="106" style="font-size:10px;font-weight:400;fill:#898781">0.5</text><text x="188" y="106" text-anchor="end" style="font-size:10px;font-weight:400;fill:#898781">2.58</text><text x="12" y="122.5" style="font-size:10.5px;font-weight:400;fill:#898781;font-variant-numeric:tabular-nums">1,668 samples  ·  +38 nodes</text></g><g transform="translate(220,601.5)"><title>AveOccup ≤ 2.21
3,570 samples  ·  gini 0.302</title><rect x="8" y="8" width="200" height="136.5" rx="10" style="fill:#ffffff;stroke:#e4e3dd;stroke-width:1"/><rect x="4" y="4" width="200" height="136.5" rx="10" style="fill:#ffffff;stroke:#e4e3dd;stroke-width:1"/><rect class="dti-frame" width="200" height="136.5" rx="10" filter="url(#dti5-sh)" style="fill:#ffffff;stroke:#e4e3dd;stroke-width:1"/><text x="12" y="22.5" style="font-size:13px;font-weight:600;fill:#0b0b0b">AveOccup</text><path d="M12.8,87V87Q12.8,86.9 12.9,86.9H18.5Q18.6,86.9 18.6,87V87Z" style="fill:#1baf7a"/><path d="M27.4,87V85.3H33.2V87Z" style="fill:#2a78d6"/><path d="M27.4,85.3V85.3Q27.4,85.2 27.5,85.2H33.1Q33.2,85.2 33.2,85.3V85.3Z" style="fill:#1baf7a"/><path d="M34.8,87V84.1H40.6V87Z" style="fill:#2a78d6"/><path d="M34.8,84.1V82.9H40.6V84.1Z" style="fill:#eb6834"/><path d="M34.8,82.9V82.9Q34.8,81.9 35.7,81.9H39.6Q40.6,81.9 40.6,82.9V82.9Z" style="fill:#1baf7a"/><path d="M42.1,87V80.8H47.9V87Z" style="fill:#2a78d6"/><path d="M42.1,80.8V77H47.9V80.8Z" style="fill:#eb6834"/><path d="M42.1,77V76.7Q42.1,74.7 44.1,74.7H45.9Q47.9,74.7 47.9,76.7V77Z" style="fill:#1baf7a"/><path d="M49.4,87V69.2H55.2V87Z" style="fill:#2a78d6"/><path d="M49.4,69.2V63.5H55.2V69.2Z" style="fill:#eb6834"/><path d="M49.4,63.5V62.8Q49.4,60.8 51.4,60.8H53.2Q55.2,60.8 55.2,62.8V63.5Z" style="fill:#1baf7a"/><path d="M56.8,87V53.5H62.6V87Z" style="fill:#2a78d6"/><path d="M56.8,53.5V45.4H62.6V53.5Z" style="fill:#eb6834"/><path d="M56.8,45.4V45.4Q56.8,43.4 58.7,43.4H60.6Q62.6,43.4 62.6,45.4V45.4Z" style="fill:#1baf7a"/><path d="M64.1,87V44.3H69.9V87Z" style="fill:#2a78d6"/><path d="M64.1,44.3V38H69.9V44.3Z" style="fill:#eb6834"/><path d="M64.1,38V38Q64.1,36.4 65.6,36.4H68.4Q69.9,36.4 69.9,38V38Z" style="fill:#1baf7a"/><path d="M71.4,87V41.6H77.2V87Z" style="fill:#2a78d6"/><path d="M71.4,41.6V36.2H77.2V41.6Z" style="fill:#eb6834"/><path d="M71.4,36.2V36.2Q71.4,35 72.6,35H76Q77.2,35 77.2,36.2V36.2Z" style="fill:#1baf7a"/><path d="M78.7,87V50.6H84.6V87Z" style="fill:#2a78d6"/><path d="M78.7,50.6V46H84.6V50.6Z" style="fill:#eb6834"/><path d="M78.7,46V46Q78.7,44.6 80.1,44.6H83.3Q84.6,44.6 84.6,46V46Z" style="fill:#1baf7a"/><path d="M86.1,87V55.9H91.9V87Z" style="fill:#2a78d6"/><path d="M86.1,55.9V51.9H91.9V55.9Z" style="fill:#eb6834"/><path d="M86.1,51.9V51.9Q86.1,51.2 86.9,51.2H91.1Q91.9,51.2 91.9,51.9V51.9Z" style="fill:#1baf7a"/><path d="M93.4,87V61.7H99.2V87Z" style="fill:#2a78d6"/><path d="M93.4,61.7V58.1H99.2V61.7Z" style="fill:#eb6834"/><path d="M93.4,58.1V58.1Q93.4,57.7 93.9,57.7H98.8Q99.2,57.7 99.2,58.1V58.1Z" style="fill:#1baf7a"/><path d="M100.7,87V62H106.6V87Z" style="fill:#2a78d6"/><path d="M100.7,62V58H106.6V62Z" style="fill:#eb6834"/><path d="M100.7,58V58Q100.7,57.6 101.2,57.6H106.1Q106.6,57.6 106.6,58V58Z" style="fill:#1baf7a"/><path d="M108.1,87V71.2H113.9V87Z" style="fill:#2a78d6"/><path d="M108.1,71.2V68.1H113.9V71.2Z" style="fill:#eb6834"/><path d="M108.1,68.1V68.1Q108.1,67.9 108.3,67.9H113.7Q113.9,67.9 113.9,68.1V68.1Z" style="fill:#1baf7a"/><path d="M115.4,87V73.7H121.2V87Z" style="fill:#2a78d6"/><path d="M115.4,73.7V73.7Q115.4,72.4 116.7,72.4H119.9Q121.2,72.4 121.2,73.7V73.7Z" style="fill:#eb6834"/><path d="M122.7,87V76.6H128.6V87Z" style="fill:#2a78d6"/><path d="M122.7,76.6V75.1H128.6V76.6Z" style="fill:#eb6834"/><path d="M122.7,75.1V75.1Q122.7,74.9 122.9,74.9H128.5Q128.6,74.9 128.6,75.1V75.1Z" style="fill:#1baf7a"/><path d="M130.1,87V81.7H135.9V87Z" style="fill:#2a78d6"/><path d="M130.1,81.7V81H135.9V81.7Z" style="fill:#eb6834"/><path d="M130.1,81V81Q130.1,80.9 130.2,80.9H135.8Q135.9,80.9 135.9,81V81Z" style="fill:#1baf7a"/><path d="M137.4,87V82.8H143.2V87Z" style="fill:#2a78d6"/><path d="M137.4,82.8V81.8H143.2V82.8Z" style="fill:#eb6834"/><path d="M137.4,81.8V81.8Q137.4,81.7 137.5,81.7H143.1Q143.2,81.7 143.2,81.8V81.8Z" style="fill:#1baf7a"/><path d="M144.8,87V84H150.6V87Z" style="fill:#2a78d6"/><path d="M144.8,84V84Q144.8,83.9 144.9,83.9H150.5Q150.6,83.9 150.6,84V84Z" style="fill:#eb6834"/><path d="M152.1,87V85.2H157.9V87Z" style="fill:#2a78d6"/><path d="M152.1,85.2V85.1H157.9V85.2Z" style="fill:#eb6834"/><path d="M152.1,85.1V85.1Q152.1,85 152.2,85H157.8Q157.9,85 157.9,85.1V85.1Z" style="fill:#1baf7a"/><path d="M159.4,87V87Q159.4,86.3 160.1,86.3H164.6Q165.2,86.3 165.2,87V87Z" style="fill:#2a78d6"/><path d="M166.8,87V87Q166.8,86.4 167.3,86.4H172Q172.6,86.4 172.6,87V87Z" style="fill:#2a78d6"/><path d="M174.1,87V87Q174.1,86.8 174.3,86.8H179.7Q179.9,86.8 179.9,87V87Z" style="fill:#2a78d6"/><path d="M181.4,87V85.2H187.2V87Z" style="fill:#2a78d6"/><path d="M181.4,85.2V84.7H187.2V85.2Z" style="fill:#eb6834"/><path d="M181.4,84.7V84.7Q181.4,84.3 181.7,84.3H186.9Q187.2,84.3 187.2,84.7V84.7Z" style="fill:#1baf7a"/><line x1="12" y1="87.5" x2="188" y2="87.5" style="stroke:#c3c2b7;stroke-width:1"/><path d="M58.7,89l4.5,6h-9z" style="fill:#0b0b0b"/><text x="58.7" y="106" text-anchor="middle" style="font-size:10.5px;font-weight:600;fill:#0b0b0b">2.21</text><text x="12" y="106" style="font-size:10px;font-weight:400;fill:#898781">0.75</text><text x="188" y="106" text-anchor="end" style="font-size:10px;font-weight:400;fill:#898781">6.27+</text><text x="12" y="122.5" style="font-size:10.5px;font-weight:400;fill:#898781;font-variant-numeric:tabular-nums">3,570 samples  ·  +42 nodes</text></g><g transform="translate(550,401)"><title>AveOccup ≤ 2.27
7,895 samples  ·  gini 0.644</title><rect class="dti-frame" width="200" height="136.5" rx="10" filter="url(#dti5-sh)" style="fill:#ffffff;stroke:#e4e3dd;stroke-width:1"/><text x="12" y="22.5" style="font-size:13px;font-weight:600;fill:#0b0b0b">AveOccup</text><path d="M12.8,87V87Q12.8,87 12.8,87H18.5Q18.6,87 18.6,87V87Z" style="fill:#2a78d6"/><path d="M20.1,87V87Q20.1,87 20.1,87H25.9Q25.9,87 25.9,87V87Z" style="fill:#1baf7a"/><path d="M27.4,87V86.8H33.2V87Z" style="fill:#2a78d6"/><path d="M27.4,86.8V86.8Q27.4,86.5 27.7,86.5H32.9Q33.2,86.5 33.2,86.8V86.8Z" style="fill:#1baf7a"/><path d="M34.8,87V85.9H40.6V87Z" style="fill:#2a78d6"/><path d="M34.8,85.9V84.9H40.6V85.9Z" style="fill:#eb6834"/><path d="M34.8,84.9V84.2Q34.8,82.2 36.8,82.2H38.6Q40.6,82.2 40.6,84.2V84.9Z" style="fill:#1baf7a"/><path d="M42.1,87V85.6H47.9V87Z" style="fill:#2a78d6"/><path d="M42.1,85.6V82.9H47.9V85.6Z" style="fill:#eb6834"/><path d="M42.1,82.9V77.6Q42.1,75.6 44.1,75.6H45.9Q47.9,75.6 47.9,77.6V82.9Z" style="fill:#1baf7a"/><path d="M49.4,87V85H55.2V87Z" style="fill:#2a78d6"/><path d="M49.4,85V78.8H55.2V85Z" style="fill:#eb6834"/><path d="M49.4,78.8V68.7Q49.4,66.7 51.4,66.7H53.2Q55.2,66.7 55.2,68.7V78.8Z" style="fill:#1baf7a"/><path d="M56.8,87V81.1H62.6V87Z" style="fill:#2a78d6"/><path d="M56.8,81.1V70.1H62.6V81.1Z" style="fill:#eb6834"/><path d="M56.8,70.1V59.4Q56.8,57.4 58.8,57.4H60.6Q62.6,57.4 62.6,59.4V70.1Z" style="fill:#1baf7a"/><path d="M64.1,87V72.5H69.9V87Z" style="fill:#2a78d6"/><path d="M64.1,72.5V53.8H69.9V72.5Z" style="fill:#eb6834"/><path d="M64.1,53.8V42.8Q64.1,40.8 66.1,40.8H67.9Q69.9,40.8 69.9,42.8V53.8Z" style="fill:#1baf7a"/><path d="M71.4,87V67.1H77.2V87Z" style="fill:#2a78d6"/><path d="M71.4,67.1V44.8H77.2V67.1Z" style="fill:#eb6834"/><path d="M71.4,44.8V37Q71.4,35 73.4,35H75.2Q77.2,35 77.2,37V44.8Z" style="fill:#1baf7a"/><path d="M78.7,87V66.2H84.6V87Z" style="fill:#2a78d6"/><path d="M78.7,66.2V45.6H84.6V66.2Z" style="fill:#eb6834"/><path d="M78.7,45.6V40.5Q78.7,38.5 80.7,38.5H82.6Q84.6,38.5 84.6,40.5V45.6Z" style="fill:#1baf7a"/><path d="M86.1,87V70.4H91.9V87Z" style="fill:#2a78d6"/><path d="M86.1,70.4V54.4H91.9V70.4Z" style="fill:#eb6834"/><path d="M86.1,54.4V52.1Q86.1,50.1 88.1,50.1H89.9Q91.9,50.1 91.9,52.1V54.4Z" style="fill:#1baf7a"/><path d="M93.4,87V74.6H99.2V87Z" style="fill:#2a78d6"/><path d="M93.4,74.6V62.3H99.2V74.6Z" style="fill:#eb6834"/><path d="M93.4,62.3V61.5Q93.4,59.5 95.4,59.5H97.2Q99.2,59.5 99.2,61.5V62.3Z" style="fill:#1baf7a"/><path d="M100.7,87V79.5H106.6V87Z" style="fill:#2a78d6"/><path d="M100.7,79.5V70.5H106.6V79.5Z" style="fill:#eb6834"/><path d="M100.7,70.5V70.5Q100.7,69.2 102.1,69.2H105.3Q106.6,69.2 106.6,70.5V70.5Z" style="fill:#1baf7a"/><path d="M108.1,87V81.8H113.9V87Z" style="fill:#2a78d6"/><path d="M108.1,81.8V74.9H113.9V81.8Z" style="fill:#eb6834"/><path d="M108.1,74.9V74.9Q108.1,74.1 108.9,74.1H113.1Q113.9,74.1 113.9,74.9V74.9Z" style="fill:#1baf7a"/><path d="M115.4,87V83.2H121.2V87Z" style="fill:#2a78d6"/><path d="M115.4,83.2V77.7H121.2V83.2Z" style="fill:#eb6834"/><path d="M115.4,77.7V77.7Q115.4,77.2 115.9,77.2H120.7Q121.2,77.2 121.2,77.7V77.7Z" style="fill:#1baf7a"/><path d="M122.7,87V84.6H128.6V87Z" style="fill:#2a78d6"/><path d="M122.7,84.6V79.6H128.6V84.6Z" style="fill:#eb6834"/><path d="M122.7,79.6V79.6Q122.7,79.3 123.1,79.3H128.3Q128.6,79.3 128.6,79.6V79.6Z" style="fill:#1baf7a"/><path d="M130.1,87V84.6H135.9V87Z" style="fill:#2a78d6"/><path d="M130.1,84.6V80.7H135.9V84.6Z" style="fill:#eb6834"/><path d="M130.1,80.7V80.7Q130.1,80.5 130.3,80.5H135.7Q135.9,80.5 135.9,80.7V80.7Z" style="fill:#1baf7a"/><path d="M137.4,87V85.2H143.2V87Z" style="fill:#2a78d6"/><path d="M137.4,85.2V83.1H143.2V85.2Z" style="fill:#eb6834"/><path d="M137.4,83.1V83.1Q137.4,82.9 137.6,82.9H143.1Q143.2,82.9 143.2,83.1V83.1Z" style="fill:#1baf7a"/><path d="M144.8,87V86H150.6V87Z" style="fill:#2a78d6"/><path d="M144.8,86V84.9H150.6V86Z" style="fill:#eb6834"/><path d="M144.8,84.9V84.9Q144.8,84.8 144.8,84.8H150.5Q150.6,84.8 150.6,84.9V84.9Z" style="fill:#1baf7a"/><path d="M152.1,87V86.3H157.9V87Z" style="fill:#2a78d6"/><path d="M152.1,86.3V86.3Q152.1,85.1 153.4,85.1H156.6Q157.9,85.1 157.9,86.3V86.3Z" style="fill:#eb6834"/><path d="M159.4,87V86.5H165.2V87Z" style="fill:#2a78d6"/><path d="M159.4,86.5V85.6H165.2V86.5Z" style="fill:#eb6834"/><path d="M159.4,85.6V85.6Q159.4,85.5 159.6,85.5H165.1Q165.2,85.5 165.2,85.6V85.6Z" style="fill:#1baf7a"/><path d="M166.8,87V86.6H172.6V87Z" style="fill:#2a78d6"/><path d="M166.8,86.6V85.9H172.6V86.6Z" style="fill:#eb6834"/><path d="M166.8,85.9V85.9Q166.8,85.9 166.8,85.9H172.5Q172.6,85.9 172.6,85.9V85.9Z" style="fill:#1baf7a"/><path d="M174.1,87V86.8H179.9V87Z" style="fill:#2a78d6"/><path d="M174.1,86.8V86.8Q174.1,86.4 174.5,86.4H179.5Q179.9,86.4 179.9,86.8V86.8Z" style="fill:#eb6834"/><path d="M181.4,87V86.1H187.2V87Z" style="fill:#2a78d6"/><path d="M181.4,86.1V84.8H187.2V86.1Z" style="fill:#eb6834"/><path d="M181.4,84.8V84.8Q181.4,84.6 181.6,84.6H187Q187.2,84.6 187.2,84.8V84.8Z" style="fill:#1baf7a"/><line x1="12" y1="87.5" x2="188" y2="87.5" style="stroke:#c3c2b7;stroke-width:1"/><path d="M63.6,89l4.5,6h-9z" style="fill:#0b0b0b"/><text x="63.6" y="106" text-anchor="middle" style="font-size:10.5px;font-weight:600;fill:#0b0b0b">2.27</text><text x="12" y="106" style="font-size:10px;font-weight:400;fill:#898781">0.692</text><text x="188" y="106" text-anchor="end" style="font-size:10px;font-weight:400;fill:#898781">6.07+</text><text x="12" y="122.5" style="font-size:10.5px;font-weight:400;fill:#898781;font-variant-numeric:tabular-nums">7,895 samples  ·  gini 0.644</text></g><g transform="translate(440,601.5)"><title>Latitude ≤ 37.9
1,567 samples  ·  gini 0.6</title><rect x="8" y="8" width="200" height="136.5" rx="10" style="fill:#ffffff;stroke:#e4e3dd;stroke-width:1"/><rect x="4" y="4" width="200" height="136.5" rx="10" style="fill:#ffffff;stroke:#e4e3dd;stroke-width:1"/><rect class="dti-frame" width="200" height="136.5" rx="10" filter="url(#dti5-sh)" style="fill:#ffffff;stroke:#e4e3dd;stroke-width:1"/><text x="12" y="22.5" style="font-size:13px;font-weight:600;fill:#0b0b0b">Latitude</text><path d="M12.8,87V83.1H18.6V87Z" style="fill:#2a78d6"/><path d="M12.8,83.1V70.3H18.6V83.1Z" style="fill:#eb6834"/><path d="M12.8,70.3V62.4Q12.8,60.4 14.8,60.4H16.6Q18.6,60.4 18.6,62.4V70.3Z" style="fill:#1baf7a"/><path d="M20.1,87V85.6H25.9V87Z" style="fill:#2a78d6"/><path d="M20.1,85.6V82.9H25.9V85.6Z" style="fill:#eb6834"/><path d="M20.1,82.9V82.8Q20.1,80.8 22.1,80.8H23.9Q25.9,80.8 25.9,82.8V82.9Z" style="fill:#1baf7a"/><path d="M27.4,87V84.2H33.2V87Z" style="fill:#2a78d6"/><path d="M27.4,84.2V80.8H33.2V84.2Z" style="fill:#eb6834"/><path d="M27.4,80.8V77.1Q27.4,75.1 29.4,75.1H31.2Q33.2,75.1 33.2,77.1V80.8Z" style="fill:#1baf7a"/><path d="M34.8,87V81H40.6V87Z" style="fill:#2a78d6"/><path d="M34.8,81V68.5H40.6V81Z" style="fill:#eb6834"/><path d="M34.8,68.5V41.6Q34.8,39.6 36.8,39.6H38.6Q40.6,39.6 40.6,41.6V68.5Z" style="fill:#1baf7a"/><path d="M42.1,87V84.9H47.9V87Z" style="fill:#2a78d6"/><path d="M42.1,84.9V71.7H47.9V84.9Z" style="fill:#eb6834"/><path d="M42.1,71.7V37Q42.1,35 44.1,35H45.9Q47.9,35 47.9,37V71.7Z" style="fill:#1baf7a"/><path d="M49.4,87V86.1H55.2V87Z" style="fill:#2a78d6"/><path d="M49.4,86.1V85H55.2V86.1Z" style="fill:#eb6834"/><path d="M49.4,85V84.6Q49.4,82.6 51.4,82.6H53.2Q55.2,82.6 55.2,84.6V85Z" style="fill:#1baf7a"/><path d="M56.8,87V87Q56.8,86.6 57.1,86.6H62.2Q62.6,86.6 62.6,87V87Z" style="fill:#eb6834"/><path d="M64.1,87V85.9H69.9V87Z" style="fill:#2a78d6"/><path d="M64.1,85.9V84.2H69.9V85.9Z" style="fill:#eb6834"/><path d="M64.1,84.2V84.2Q64.1,82.9 65.3,82.9H68.7Q69.9,82.9 69.9,84.2V84.2Z" style="fill:#1baf7a"/><path d="M71.4,87V86.5H77.2V87Z" style="fill:#2a78d6"/><path d="M71.4,86.5V86.5Q71.4,86.3 71.6,86.3H77.1Q77.2,86.3 77.2,86.5V86.5Z" style="fill:#1baf7a"/><path d="M78.7,87V87Q78.7,86.8 78.9,86.8H84.4Q84.6,86.8 84.6,87V87Z" style="fill:#1baf7a"/><path d="M86.1,87V86.5H91.9V87Z" style="fill:#2a78d6"/><path d="M86.1,86.5V86.5Q86.1,86.1 86.4,86.1H91.6Q91.9,86.1 91.9,86.5V86.5Z" style="fill:#eb6834"/><path d="M93.4,87V84.5H99.2V87Z" style="fill:#2a78d6"/><path d="M93.4,84.5V82.9H99.2V84.5Z" style="fill:#eb6834"/><path d="M93.4,82.9V81.5Q93.4,79.5 95.4,79.5H97.2Q99.2,79.5 99.2,81.5V82.9Z" style="fill:#1baf7a"/><path d="M100.7,87V86.6H106.6V87Z" style="fill:#2a78d6"/><path d="M100.7,86.6V86.1H106.6V86.6Z" style="fill:#eb6834"/><path d="M100.7,86.1V85.8Q100.7,83.8 102.7,83.8H104.6Q106.6,83.8 106.6,85.8V86.1Z" style="fill:#1baf7a"/><path d="M108.1,87V85.6H113.9V87Z" style="fill:#2a78d6"/><path d="M108.1,85.6V81.7H113.9V85.6Z" style="fill:#eb6834"/><path d="M108.1,81.7V69.3Q108.1,67.3 110.1,67.3H111.9Q113.9,67.3 113.9,69.3V81.7Z" style="fill:#1baf7a"/><path d="M115.4,87V83.1H121.2V87Z" style="fill:#2a78d6"/><path d="M115.4,83.1V68.2H121.2V83.1Z" style="fill:#eb6834"/><path d="M115.4,68.2V37Q115.4,35 117.4,35H119.2Q121.2,35 121.2,37V68.2Z" style="fill:#1baf7a"/><path d="M122.7,87V82.6H128.6V87Z" style="fill:#2a78d6"/><path d="M122.7,82.6V77.1H128.6V82.6Z" style="fill:#eb6834"/><path d="M122.7,77.1V75.3Q122.7,73.3 124.7,73.3H126.6Q128.6,73.3 128.6,75.3V77.1Z" style="fill:#1baf7a"/><path d="M130.1,87V80.4H135.9V87Z" style="fill:#2a78d6"/><path d="M130.1,80.4V71.7H135.9V80.4Z" style="fill:#eb6834"/><path d="M130.1,71.7V71.7Q130.1,70.7 131.1,70.7H134.9Q135.9,70.7 135.9,71.7V71.7Z" style="fill:#1baf7a"/><path d="M137.4,87V82.4H143.2V87Z" style="fill:#2a78d6"/><path d="M137.4,82.4V81H143.2V82.4Z" style="fill:#eb6834"/><path d="M137.4,81V81Q137.4,80.4 137.9,80.4H142.7Q143.2,80.4 143.2,81V81Z" style="fill:#1baf7a"/><path d="M144.8,87V86.1H150.6V87Z" style="fill:#2a78d6"/><path d="M144.8,86.1V85H150.6V86.1Z" style="fill:#eb6834"/><path d="M144.8,85V85Q144.8,84.9 144.9,84.9H150.4Q150.6,84.9 150.6,85V85Z" style="fill:#1baf7a"/><path d="M152.1,87V86.6H157.9V87Z" style="fill:#2a78d6"/><path d="M152.1,86.6V86.6Q152.1,86.3 152.4,86.3H157.6Q157.9,86.3 157.9,86.6V86.6Z" style="fill:#eb6834"/><path d="M159.4,87V87Q159.4,86.8 159.6,86.8H165.1Q165.2,86.8 165.2,87V87Z" style="fill:#2a78d6"/><path d="M166.8,87V86.6H172.6V87Z" style="fill:#2a78d6"/><path d="M166.8,86.6V86.6Q166.8,86.5 166.9,86.5H172.4Q172.6,86.5 172.6,86.6V86.6Z" style="fill:#eb6834"/><path d="M174.1,87V87Q174.1,86.6 174.4,86.6H179.6Q179.9,86.6 179.9,87V87Z" style="fill:#2a78d6"/><path d="M181.4,87V86.6H187.2V87Z" style="fill:#2a78d6"/><path d="M181.4,86.6V86.6Q181.4,86.5 181.6,86.5H187.1Q187.2,86.5 187.2,86.6V86.6Z" style="fill:#eb6834"/><line x1="12" y1="87.5" x2="188" y2="87.5" style="stroke:#c3c2b7;stroke-width:1"/><path d="M122.7,89l4.5,6h-9z" style="fill:#0b0b0b"/><text x="122.7" y="106" text-anchor="middle" style="font-size:10.5px;font-weight:600;fill:#0b0b0b">37.9</text><text x="12" y="106" style="font-size:10px;font-weight:400;fill:#898781">32.6</text><text x="188" y="106" text-anchor="end" style="font-size:10px;font-weight:400;fill:#898781">41.1</text><text x="12" y="122.5" style="font-size:10.5px;font-weight:400;fill:#898781;font-variant-numeric:tabular-nums">1,567 samples  ·  +30 nodes</text></g><g transform="translate(660,601.5)"><title>Latitude ≤ 34.4
6,328 samples  ·  gini 0.611</title><rect x="8" y="8" width="200" height="136.5" rx="10" style="fill:#ffffff;stroke:#e4e3dd;stroke-width:1"/><rect x="4" y="4" width="200" height="136.5" rx="10" style="fill:#ffffff;stroke:#e4e3dd;stroke-width:1"/><rect class="dti-frame" width="200" height="136.5" rx="10" filter="url(#dti5-sh)" style="fill:#ffffff;stroke:#e4e3dd;stroke-width:1"/><text x="12" y="22.5" style="font-size:13px;font-weight:600;fill:#0b0b0b">Latitude</text><path d="M12.8,87V83.1H18.6V87Z" style="fill:#2a78d6"/><path d="M12.8,83.1V78.6H18.6V83.1Z" style="fill:#eb6834"/><path d="M12.8,78.6V78.6Q12.8,78.2 13.1,78.2H18.2Q18.6,78.2 18.6,78.6V78.6Z" style="fill:#1baf7a"/><path d="M20.1,87V86.2H25.9V87Z" style="fill:#2a78d6"/><path d="M20.1,86.2V84.3H25.9V86.2Z" style="fill:#eb6834"/><path d="M20.1,84.3V84.3Q20.1,83.8 20.6,83.8H25.4Q25.9,83.8 25.9,84.3V84.3Z" style="fill:#1baf7a"/><path d="M27.4,87V86.3H33.2V87Z" style="fill:#2a78d6"/><path d="M27.4,86.3V84.7H33.2V86.3Z" style="fill:#eb6834"/><path d="M27.4,84.7V84.7Q27.4,83.6 28.5,83.6H32.2Q33.2,83.6 33.2,84.7V84.7Z" style="fill:#1baf7a"/><path d="M34.8,87V73.4H40.6V87Z" style="fill:#2a78d6"/><path d="M34.8,73.4V41.9H40.6V73.4Z" style="fill:#eb6834"/><path d="M34.8,41.9V37Q34.8,35 36.8,35H38.6Q40.6,35 40.6,37V41.9Z" style="fill:#1baf7a"/><path d="M42.1,87V83H47.9V87Z" style="fill:#2a78d6"/><path d="M42.1,83V71.3H47.9V83Z" style="fill:#eb6834"/><path d="M42.1,71.3V69Q42.1,67 44.1,67H45.9Q47.9,67 47.9,69V71.3Z" style="fill:#1baf7a"/><path d="M49.4,87V85H55.2V87Z" style="fill:#2a78d6"/><path d="M49.4,85V84.5H55.2V85Z" style="fill:#eb6834"/><path d="M49.4,84.5V84.5Q49.4,84.4 49.5,84.4H55.1Q55.2,84.4 55.2,84.5V84.5Z" style="fill:#1baf7a"/><path d="M56.8,87V85.6H62.6V87Z" style="fill:#2a78d6"/><path d="M56.8,85.6V84.8H62.6V85.6Z" style="fill:#eb6834"/><path d="M56.8,84.8V84.8Q56.8,84.7 56.9,84.7H62.5Q62.6,84.7 62.6,84.8V84.8Z" style="fill:#1baf7a"/><path d="M64.1,87V84.7H69.9V87Z" style="fill:#2a78d6"/><path d="M64.1,84.7V84H69.9V84.7Z" style="fill:#eb6834"/><path d="M64.1,84V84Q64.1,83.8 64.3,83.8H69.7Q69.9,83.8 69.9,84V84Z" style="fill:#1baf7a"/><path d="M71.4,87V86.8H77.2V87Z" style="fill:#2a78d6"/><path d="M71.4,86.8V86.7H77.2V86.8Z" style="fill:#eb6834"/><path d="M71.4,86.7V86.7Q71.4,86.6 71.4,86.6H77.2Q77.2,86.6 77.2,86.7V86.7Z" style="fill:#1baf7a"/><path d="M78.7,87V83.8H84.6V87Z" style="fill:#2a78d6"/><path d="M78.7,83.8V83.7H84.6V83.8Z" style="fill:#eb6834"/><path d="M78.7,83.7V83.7Q78.7,83.6 78.8,83.6H84.6Q84.6,83.6 84.6,83.7V83.7Z" style="fill:#1baf7a"/><path d="M86.1,87V82.8H91.9V87Z" style="fill:#2a78d6"/><path d="M86.1,82.8V81.9H91.9V82.8Z" style="fill:#eb6834"/><path d="M86.1,81.9V81.9Q86.1,81.6 86.3,81.6H91.7Q91.9,81.6 91.9,81.9V81.9Z" style="fill:#1baf7a"/><path d="M93.4,87V85.7H99.2V87Z" style="fill:#2a78d6"/><path d="M93.4,85.7V84.2H99.2V85.7Z" style="fill:#eb6834"/><path d="M93.4,84.2V84.2Q93.4,83.3 94.3,83.3H98.3Q99.2,83.3 99.2,84.2V84.2Z" style="fill:#1baf7a"/><path d="M100.7,87V84.6H106.6V87Z" style="fill:#2a78d6"/><path d="M100.7,84.6V81.1H106.6V84.6Z" style="fill:#eb6834"/><path d="M100.7,81.1V80.7Q100.7,78.7 102.7,78.7H104.6Q106.6,78.7 106.6,80.7V81.1Z" style="fill:#1baf7a"/><path d="M108.1,87V81.3H113.9V87Z" style="fill:#2a78d6"/><path d="M108.1,81.3V73H113.9V81.3Z" style="fill:#eb6834"/><path d="M108.1,73V69.6Q108.1,67.6 110.1,67.6H111.9Q113.9,67.6 113.9,69.6V73Z" style="fill:#1baf7a"/><path d="M115.4,87V82.1H121.2V87Z" style="fill:#2a78d6"/><path d="M115.4,82.1V79.1H121.2V82.1Z" style="fill:#eb6834"/><path d="M115.4,79.1V79.1Q115.4,78.4 116.2,78.4H120.5Q121.2,78.4 121.2,79.1V79.1Z" style="fill:#1baf7a"/><path d="M122.7,87V80.5H128.6V87Z" style="fill:#2a78d6"/><path d="M122.7,80.5V77.1H128.6V80.5Z" style="fill:#eb6834"/><path d="M122.7,77.1V77.1Q122.7,76.8 123.1,76.8H128.2Q128.6,76.8 128.6,77.1V77.1Z" style="fill:#1baf7a"/><path d="M130.1,87V84.3H135.9V87Z" style="fill:#2a78d6"/><path d="M130.1,84.3V83.2H135.9V84.3Z" style="fill:#eb6834"/><path d="M130.1,83.2V83.2Q130.1,83.1 130.2,83.1H135.8Q135.9,83.1 135.9,83.2V83.2Z" style="fill:#1baf7a"/><path d="M137.4,87V85.5H143.2V87Z" style="fill:#2a78d6"/><path d="M137.4,85.5V84.4H143.2V85.5Z" style="fill:#eb6834"/><path d="M137.4,84.4V84.4Q137.4,84.4 137.5,84.4H143.2Q143.2,84.4 143.2,84.4V84.4Z" style="fill:#1baf7a"/><path d="M144.8,87V85.9H150.6V87Z" style="fill:#2a78d6"/><path d="M144.8,85.9V85.9Q144.8,85.8 144.9,85.8H150.5Q150.6,85.8 150.6,85.9V85.9Z" style="fill:#eb6834"/><path d="M152.1,87V86.4H157.9V87Z" style="fill:#2a78d6"/><path d="M152.1,86.4V86.4Q152.1,86.4 152.1,86.4H157.9Q157.9,86.4 157.9,86.4V86.4Z" style="fill:#eb6834"/><path d="M159.4,87V85.4H165.2V87Z" style="fill:#2a78d6"/><path d="M159.4,85.4V85.4Q159.4,85.3 159.5,85.3H165.1Q165.2,85.3 165.2,85.4V85.4Z" style="fill:#eb6834"/><path d="M166.8,87V85.9H172.6V87Z" style="fill:#2a78d6"/><path d="M166.8,85.9V85.9Q166.8,85.9 166.8,85.9H172.6Q172.6,85.9 172.6,85.9V85.9Z" style="fill:#eb6834"/><path d="M174.1,87V87Q174.1,86.8 174.3,86.8H179.7Q179.9,86.8 179.9,87V87Z" style="fill:#2a78d6"/><path d="M181.4,87V86.8H187.2V87Z" style="fill:#2a78d6"/><path d="M181.4,86.8V86.8Q181.4,86.8 181.4,86.8H187.2Q187.2,86.8 187.2,86.8V86.8Z" style="fill:#eb6834"/><line x1="12" y1="87.5" x2="188" y2="87.5" style="stroke:#c3c2b7;stroke-width:1"/><path d="M46.4,89l4.5,6h-9z" style="fill:#0b0b0b"/><text x="46.4" y="106" text-anchor="middle" style="font-size:10.5px;font-weight:600;fill:#0b0b0b">34.4</text><text x="188" y="106" text-anchor="end" style="font-size:10px;font-weight:400;fill:#898781">41.9</text><text x="12" y="122.5" style="font-size:10.5px;font-weight:400;fill:#898781;font-variant-numeric:tabular-nums">6,328 samples  ·  +60 nodes</text></g><g transform="translate(1210,200.5)"><title>MedInc ≤ 5.59
7,507 samples  ·  gini 0.497</title><rect class="dti-frame" width="200" height="136.5" rx="10" filter="url(#dti5-sh)" style="fill:#ffffff;stroke:#e4e3dd;stroke-width:1"/><text x="12" y="22.5" style="font-size:13px;font-weight:600;fill:#0b0b0b">MedInc</text><path d="M12.8,87V80H18.6V87Z" style="fill:#2a78d6"/><path d="M12.8,80V54.2H18.6V80Z" style="fill:#eb6834"/><path d="M12.8,54.2V37Q12.8,35 14.8,35H16.6Q18.6,35 18.6,37V54.2Z" style="fill:#1baf7a"/><path d="M20.1,87V84H25.9V87Z" style="fill:#2a78d6"/><path d="M20.1,84V65.5H25.9V84Z" style="fill:#eb6834"/><path d="M20.1,65.5V49Q20.1,47 22.1,47H23.9Q25.9,47 25.9,49V65.5Z" style="fill:#1baf7a"/><path d="M27.4,87V85.4H33.2V87Z" style="fill:#2a78d6"/><path d="M27.4,85.4V72H33.2V85.4Z" style="fill:#eb6834"/><path d="M27.4,72V54.1Q27.4,52.1 29.4,52.1H31.2Q33.2,52.1 33.2,54.1V72Z" style="fill:#1baf7a"/><path d="M34.8,87V86.6H40.6V87Z" style="fill:#2a78d6"/><path d="M34.8,86.6V80.2H40.6V86.6Z" style="fill:#eb6834"/><path d="M34.8,80.2V64.9Q34.8,62.9 36.8,62.9H38.6Q40.6,62.9 40.6,64.9V80.2Z" style="fill:#1baf7a"/><path d="M42.1,87V86.6H47.9V87Z" style="fill:#2a78d6"/><path d="M42.1,86.6V83.7H47.9V86.6Z" style="fill:#eb6834"/><path d="M42.1,83.7V68.7Q42.1,66.7 44.1,66.7H45.9Q47.9,66.7 47.9,68.7V83.7Z" style="fill:#1baf7a"/><path d="M49.4,87V87H55.2V87Z" style="fill:#2a78d6"/><path d="M49.4,87V86.2H55.2V87Z" style="fill:#eb6834"/><path d="M49.4,86.2V75.6Q49.4,73.6 51.4,73.6H53.2Q55.2,73.6 55.2,75.6V86.2Z" style="fill:#1baf7a"/><path d="M56.8,87V87H62.6V87Z" style="fill:#2a78d6"/><path d="M56.8,87V86.7H62.6V87Z" style="fill:#eb6834"/><path d="M56.8,86.7V80.7Q56.8,78.7 58.8,78.7H60.6Q62.6,78.7 62.6,80.7V86.7Z" style="fill:#1baf7a"/><path d="M64.1,87V86.9H69.9V87Z" style="fill:#2a78d6"/><path d="M64.1,86.9V86.6H69.9V86.9Z" style="fill:#eb6834"/><path d="M64.1,86.6V82.1Q64.1,80.1 66.1,80.1H67.9Q69.9,80.1 69.9,82.1V86.6Z" style="fill:#1baf7a"/><path d="M71.4,87V86.9H77.2V87Z" style="fill:#eb6834"/><path d="M71.4,86.9V82.9Q71.4,80.9 73.4,80.9H75.2Q77.2,80.9 77.2,82.9V86.9Z" style="fill:#1baf7a"/><path d="M78.7,87V86.9H84.6V87Z" style="fill:#eb6834"/><path d="M78.7,86.9V85.1Q78.7,83.1 80.7,83.1H82.6Q84.6,83.1 84.6,85.1V86.9Z" style="fill:#1baf7a"/><path d="M86.1,87V86.9H91.9V87Z" style="fill:#eb6834"/><path d="M86.1,86.9V86.6Q86.1,84.6 88.1,84.6H89.9Q91.9,84.6 91.9,86.6V86.9Z" style="fill:#1baf7a"/><path d="M93.4,87V87Q93.4,85.5 94.9,85.5H97.8Q99.2,85.5 99.2,87V87Z" style="fill:#1baf7a"/><path d="M100.7,87V87H106.6V87Z" style="fill:#eb6834"/><path d="M100.7,87V87Q100.7,85.9 101.9,85.9H105.5Q106.6,85.9 106.6,87V87Z" style="fill:#1baf7a"/><path d="M108.1,87V86.9H113.9V87Z" style="fill:#2a78d6"/><path d="M108.1,86.9V86.9H113.9V86.9Z" style="fill:#eb6834"/><path d="M108.1,86.9V86.4Q108.1,84.4 110.1,84.4H111.9Q113.9,84.4 113.9,86.4V86.9Z" style="fill:#1baf7a"/><path d="M115.4,87V87Q115.4,85.5 116.9,85.5H119.7Q121.2,85.5 121.2,87V87Z" style="fill:#1baf7a"/><path d="M122.7,87V87Q122.7,85.9 123.8,85.9H127.5Q128.6,85.9 128.6,87V87Z" style="fill:#1baf7a"/><path d="M130.1,87V87Q130.1,86.5 130.6,86.5H135.4Q135.9,86.5 135.9,87V87Z" style="fill:#1baf7a"/><path d="M137.4,87V87Q137.4,86.6 137.8,86.6H142.8Q143.2,86.6 143.2,87V87Z" style="fill:#1baf7a"/><path d="M144.8,87V87H150.6V87Z" style="fill:#2a78d6"/><path d="M144.8,87V87Q144.8,86.5 145.2,86.5H150.1Q150.6,86.5 150.6,87V87Z" style="fill:#1baf7a"/><path d="M152.1,87V87Q152.1,86.6 152.5,86.6H157.5Q157.9,86.6 157.9,87V87Z" style="fill:#1baf7a"/><path d="M159.4,87V87Q159.4,86.6 159.8,86.6H164.9Q165.2,86.6 165.2,87V87Z" style="fill:#1baf7a"/><path d="M166.8,87V87Q166.8,86.9 166.9,86.9H172.4Q172.6,86.9 172.6,87V87Z" style="fill:#1baf7a"/><path d="M174.1,87V87Q174.1,86.9 174.2,86.9H179.8Q179.9,86.9 179.9,87V87Z" style="fill:#1baf7a"/><path d="M181.4,87V87H187.2V87Z" style="fill:#2a78d6"/><path d="M181.4,87V87Q181.4,85.4 183,85.4H185.7Q187.2,85.4 187.2,87V87Z" style="fill:#1baf7a"/><line x1="12" y1="87.5" x2="188" y2="87.5" style="stroke:#c3c2b7;stroke-width:1"/><path d="M35.9,89l4.5,6h-9z" style="fill:#0b0b0b"/><text x="35.9" y="106" text-anchor="middle" style="font-size:10.5px;font-weight:600;fill:#0b0b0b">5.59</text><text x="188" y="106" text-anchor="end" style="font-size:10px;font-weight:400;fill:#898781">15</text><text x="12" y="122.5" style="font-size:10.5px;font-weight:400;fill:#898781;font-variant-numeric:tabular-nums">7,507 samples  ·  gini 0.497</text></g><g transform="translate(990,401)"><title>AveOccup ≤ 2.93
4,513 samples  ·  gini 0.576</title><rect class="dti-frame" width="200" height="136.5" rx="10" filter="url(#dti5-sh)" style="fill:#ffffff;stroke:#e4e3dd;stroke-width:1"/><text x="12" y="22.5" style="font-size:13px;font-weight:600;fill:#0b0b0b">AveOccup</text><path d="M12.8,87V86.7H18.6V87Z" style="fill:#eb6834"/><path d="M12.8,86.7V86.7Q12.8,86 13.5,86H17.9Q18.6,86 18.6,86.7V86.7Z" style="fill:#1baf7a"/><path d="M20.1,87V86.8H25.9V87Z" style="fill:#2a78d6"/><path d="M20.1,86.8V86.3H25.9V86.8Z" style="fill:#eb6834"/><path d="M20.1,86.3V85.4Q20.1,83.4 22.1,83.4H23.9Q25.9,83.4 25.9,85.4V86.3Z" style="fill:#1baf7a"/><path d="M27.4,87V86.9H33.2V87Z" style="fill:#2a78d6"/><path d="M27.4,86.9V86.1H33.2V86.9Z" style="fill:#eb6834"/><path d="M27.4,86.1V81.3Q27.4,79.3 29.4,79.3H31.2Q33.2,79.3 33.2,81.3V86.1Z" style="fill:#1baf7a"/><path d="M34.8,87V86.6H40.6V87Z" style="fill:#2a78d6"/><path d="M34.8,86.6V84.1H40.6V86.6Z" style="fill:#eb6834"/><path d="M34.8,84.1V75.3Q34.8,73.3 36.8,73.3H38.6Q40.6,73.3 40.6,75.3V84.1Z" style="fill:#1baf7a"/><path d="M42.1,87V86.7H47.9V87Z" style="fill:#2a78d6"/><path d="M42.1,86.7V82.2H47.9V86.7Z" style="fill:#eb6834"/><path d="M42.1,82.2V69.7Q42.1,67.7 44.1,67.7H45.9Q47.9,67.7 47.9,69.7V82.2Z" style="fill:#1baf7a"/><path d="M49.4,87V85.8H55.2V87Z" style="fill:#2a78d6"/><path d="M49.4,85.8V78.3H55.2V85.8Z" style="fill:#eb6834"/><path d="M49.4,78.3V55.9Q49.4,53.9 51.4,53.9H53.2Q55.2,53.9 55.2,55.9V78.3Z" style="fill:#1baf7a"/><path d="M56.8,87V84.7H62.6V87Z" style="fill:#2a78d6"/><path d="M56.8,84.7V69.2H62.6V84.7Z" style="fill:#eb6834"/><path d="M56.8,69.2V48.4Q56.8,46.4 58.8,46.4H60.6Q62.6,46.4 62.6,48.4V69.2Z" style="fill:#1baf7a"/><path d="M64.1,87V83.2H69.9V87Z" style="fill:#2a78d6"/><path d="M64.1,83.2V63.4H69.9V83.2Z" style="fill:#eb6834"/><path d="M64.1,63.4V37.2Q64.1,35.2 66.1,35.2H67.9Q69.9,35.2 69.9,37.2V63.4Z" style="fill:#1baf7a"/><path d="M71.4,87V82H77.2V87Z" style="fill:#2a78d6"/><path d="M71.4,82V58.3H77.2V82Z" style="fill:#eb6834"/><path d="M71.4,58.3V37Q71.4,35 73.4,35H75.2Q77.2,35 77.2,37V58.3Z" style="fill:#1baf7a"/><path d="M78.7,87V80.7H84.6V87Z" style="fill:#2a78d6"/><path d="M78.7,80.7V55H84.6V80.7Z" style="fill:#eb6834"/><path d="M78.7,55V41.9Q78.7,39.9 80.7,39.9H82.6Q84.6,39.9 84.6,41.9V55Z" style="fill:#1baf7a"/><path d="M86.1,87V82.4H91.9V87Z" style="fill:#2a78d6"/><path d="M86.1,82.4V61.8H91.9V82.4Z" style="fill:#eb6834"/><path d="M86.1,61.8V55.9Q86.1,53.9 88.1,53.9H89.9Q91.9,53.9 91.9,55.9V61.8Z" style="fill:#1baf7a"/><path d="M93.4,87V83.9H99.2V87Z" style="fill:#2a78d6"/><path d="M93.4,83.9V69.5H99.2V83.9Z" style="fill:#eb6834"/><path d="M93.4,69.5V66.7Q93.4,64.7 95.4,64.7H97.2Q99.2,64.7 99.2,66.7V69.5Z" style="fill:#1baf7a"/><path d="M100.7,87V85.4H106.6V87Z" style="fill:#2a78d6"/><path d="M100.7,85.4V75.6H106.6V85.4Z" style="fill:#eb6834"/><path d="M100.7,75.6V75.6Q100.7,73.7 102.7,73.7H104.6Q106.6,73.7 106.6,75.6V75.6Z" style="fill:#1baf7a"/><path d="M108.1,87V86.2H113.9V87Z" style="fill:#2a78d6"/><path d="M108.1,86.2V80.8H113.9V86.2Z" style="fill:#eb6834"/><path d="M108.1,80.8V80.8Q108.1,79.3 109.5,79.3H112.5Q113.9,79.3 113.9,80.8V80.8Z" style="fill:#1baf7a"/><path d="M115.4,87V86.4H121.2V87Z" style="fill:#2a78d6"/><path d="M115.4,86.4V84H121.2V86.4Z" style="fill:#eb6834"/><path d="M115.4,84V84Q115.4,83.1 116.3,83.1H120.4Q121.2,83.1 121.2,84V84Z" style="fill:#1baf7a"/><path d="M122.7,87V86.5H128.6V87Z" style="fill:#2a78d6"/><path d="M122.7,86.5V83.2H128.6V86.5Z" style="fill:#eb6834"/><path d="M122.7,83.2V83.2Q122.7,82.4 123.6,82.4H127.8Q128.6,82.4 128.6,83.2V83.2Z" style="fill:#1baf7a"/><path d="M130.1,87V86.9H135.9V87Z" style="fill:#2a78d6"/><path d="M130.1,86.9V86.7Q130.1,84.7 132.1,84.7H133.9Q135.9,84.7 135.9,86.7V86.9Z" style="fill:#eb6834"/><path d="M137.4,87V86.9H143.2V87Z" style="fill:#2a78d6"/><path d="M137.4,86.9V85.9H143.2V86.9Z" style="fill:#eb6834"/><path d="M137.4,85.9V85.9Q137.4,85.5 137.7,85.5H142.9Q143.2,85.5 143.2,85.9V85.9Z" style="fill:#1baf7a"/><path d="M144.8,87V86.8H150.6V87Z" style="fill:#2a78d6"/><path d="M144.8,86.8V85.5H150.6V86.8Z" style="fill:#eb6834"/><path d="M144.8,85.5V85.5Q144.8,85.4 144.8,85.4H150.5Q150.6,85.4 150.6,85.5V85.5Z" style="fill:#1baf7a"/><path d="M152.1,87V86.8H157.9V87Z" style="fill:#2a78d6"/><path d="M152.1,86.8V86.4H157.9V86.8Z" style="fill:#eb6834"/><path d="M152.1,86.4V86.4Q152.1,86.3 152.2,86.3H157.8Q157.9,86.3 157.9,86.4V86.4Z" style="fill:#1baf7a"/><path d="M159.4,87V86.9H165.2V87Z" style="fill:#2a78d6"/><path d="M159.4,86.9V86.9Q159.4,86.4 159.9,86.4H164.8Q165.2,86.4 165.2,86.9V86.9Z" style="fill:#eb6834"/><path d="M166.8,87V86.8H172.6V87Z" style="fill:#2a78d6"/><path d="M166.8,86.8V86.7H172.6V86.8Z" style="fill:#eb6834"/><path d="M166.8,86.7V86.7Q166.8,86.6 166.8,86.6H172.5Q172.6,86.6 172.6,86.7V86.7Z" style="fill:#1baf7a"/><path d="M174.1,87V87Q174.1,86.7 174.4,86.7H179.6Q179.9,86.7 179.9,87V87Z" style="fill:#eb6834"/><path d="M181.4,87V86.7H187.2V87Z" style="fill:#2a78d6"/><path d="M181.4,86.7V85.1H187.2V86.7Z" style="fill:#eb6834"/><path d="M181.4,85.1V85.1Q181.4,84.8 181.7,84.8H186.9Q187.2,84.8 187.2,85.1V85.1Z" style="fill:#1baf7a"/><line x1="12" y1="87.5" x2="188" y2="87.5" style="stroke:#c3c2b7;stroke-width:1"/><path d="M76.8,89l4.5,6h-9z" style="fill:#0b0b0b"/><text x="76.8" y="106" text-anchor="middle" style="font-size:10.5px;font-weight:600;fill:#0b0b0b">2.93</text><text x="12" y="106" style="font-size:10px;font-weight:400;fill:#898781">1.3</text><text x="188" y="106" text-anchor="end" style="font-size:10px;font-weight:400;fill:#898781">5.73+</text><text x="12" y="122.5" style="font-size:10.5px;font-weight:400;fill:#898781;font-variant-numeric:tabular-nums">4,513 samples  ·  gini 0.576</text></g><g transform="translate(880,601.5)"><title>Latitude ≤ 37.9
2,646 samples  ·  gini 0.512</title><rect x="8" y="8" width="200" height="136.5" rx="10" style="fill:#ffffff;stroke:#e4e3dd;stroke-width:1"/><rect x="4" y="4" width="200" height="136.5" rx="10" style="fill:#ffffff;stroke:#e4e3dd;stroke-width:1"/><rect class="dti-frame" width="200" height="136.5" rx="10" filter="url(#dti5-sh)" style="fill:#ffffff;stroke:#e4e3dd;stroke-width:1"/><text x="12" y="22.5" style="font-size:13px;font-weight:600;fill:#0b0b0b">Latitude</text><path d="M12.8,87V86.6H18.6V87Z" style="fill:#2a78d6"/><path d="M12.8,86.6V79H18.6V86.6Z" style="fill:#eb6834"/><path d="M12.8,79V75.8Q12.8,73.8 14.8,73.8H16.6Q18.6,73.8 18.6,75.8V79Z" style="fill:#1baf7a"/><path d="M20.1,87V86.8H25.9V87Z" style="fill:#2a78d6"/><path d="M20.1,86.8V84.3H25.9V86.8Z" style="fill:#eb6834"/><path d="M20.1,84.3V83.5Q20.1,81.5 22.1,81.5H23.9Q25.9,81.5 25.9,83.5V84.3Z" style="fill:#1baf7a"/><path d="M27.4,87V84.6H33.2V87Z" style="fill:#eb6834"/><path d="M27.4,84.6V80.1Q27.4,78.1 29.4,78.1H31.2Q33.2,78.1 33.2,80.1V84.6Z" style="fill:#1baf7a"/><path d="M34.8,87V85.7H40.6V87Z" style="fill:#2a78d6"/><path d="M34.8,85.7V67.2H40.6V85.7Z" style="fill:#eb6834"/><path d="M34.8,67.2V37Q34.8,35 36.8,35H38.6Q40.6,35 40.6,37V67.2Z" style="fill:#1baf7a"/><path d="M42.1,87V85.1H47.9V87Z" style="fill:#2a78d6"/><path d="M42.1,85.1V74.6H47.9V85.1Z" style="fill:#eb6834"/><path d="M42.1,74.6V46.6Q42.1,44.6 44.1,44.6H45.9Q47.9,44.6 47.9,46.6V74.6Z" style="fill:#1baf7a"/><path d="M49.4,87V86.6H55.2V87Z" style="fill:#2a78d6"/><path d="M49.4,86.6V85H55.2V86.6Z" style="fill:#eb6834"/><path d="M49.4,85V83Q49.4,81 51.4,81H53.2Q55.2,81 55.2,83V85Z" style="fill:#1baf7a"/><path d="M56.8,87V86.9H62.6V87Z" style="fill:#2a78d6"/><path d="M56.8,86.9V86.1H62.6V86.9Z" style="fill:#eb6834"/><path d="M56.8,86.1V86.1Q56.8,85.9 56.9,85.9H62.4Q62.6,85.9 62.6,86.1V86.1Z" style="fill:#1baf7a"/><path d="M64.1,87V86H69.9V87Z" style="fill:#2a78d6"/><path d="M64.1,86V85.7H69.9V86Z" style="fill:#eb6834"/><path d="M64.1,85.7V85.7Q64.1,84.8 65.1,84.8H68.9Q69.9,84.8 69.9,85.7V85.7Z" style="fill:#1baf7a"/><path d="M71.4,87V86.4H77.2V87Z" style="fill:#2a78d6"/><path d="M71.4,86.4V86.1H77.2V86.4Z" style="fill:#eb6834"/><path d="M71.4,86.1V86.1Q71.4,85.9 71.6,85.9H77.1Q77.2,85.9 77.2,86.1V86.1Z" style="fill:#1baf7a"/><path d="M78.7,87V86.9H84.6V87Z" style="fill:#2a78d6"/><path d="M78.7,86.9V86.9Q78.7,86.8 78.8,86.8H84.5Q84.6,86.8 84.6,86.9V86.9Z" style="fill:#1baf7a"/><path d="M86.1,87V86.4H91.9V87Z" style="fill:#2a78d6"/><path d="M86.1,86.4V86.3H91.9V86.4Z" style="fill:#eb6834"/><path d="M86.1,86.3V86.3Q86.1,86.2 86.2,86.2H91.8Q91.9,86.2 91.9,86.3V86.3Z" style="fill:#1baf7a"/><path d="M93.4,87V86.8H99.2V87Z" style="fill:#2a78d6"/><path d="M93.4,86.8V86.3H99.2V86.8Z" style="fill:#eb6834"/><path d="M93.4,86.3V86.3Q93.4,85 94.7,85H98Q99.2,85 99.2,86.3V86.3Z" style="fill:#1baf7a"/><path d="M100.7,87V86.1H106.6V87Z" style="fill:#2a78d6"/><path d="M100.7,86.1V84.1H106.6V86.1Z" style="fill:#eb6834"/><path d="M100.7,84.1V83Q100.7,81 102.7,81H104.6Q106.6,81 106.6,83V84.1Z" style="fill:#1baf7a"/><path d="M108.1,87V86.5H113.9V87Z" style="fill:#2a78d6"/><path d="M108.1,86.5V83.8H113.9V86.5Z" style="fill:#eb6834"/><path d="M108.1,83.8V67.8Q108.1,65.8 110.1,65.8H111.9Q113.9,65.8 113.9,67.8V83.8Z" style="fill:#1baf7a"/><path d="M115.4,87V86.5H121.2V87Z" style="fill:#2a78d6"/><path d="M115.4,86.5V79.1H121.2V86.5Z" style="fill:#eb6834"/><path d="M115.4,79.1V55.9Q115.4,53.9 117.4,53.9H119.2Q121.2,53.9 121.2,55.9V79.1Z" style="fill:#1baf7a"/><path d="M122.7,87V85.7H128.6V87Z" style="fill:#2a78d6"/><path d="M122.7,85.7V77.4H128.6V85.7Z" style="fill:#eb6834"/><path d="M122.7,77.4V70Q122.7,68 124.7,68H126.6Q128.6,68 128.6,70V77.4Z" style="fill:#1baf7a"/><path d="M130.1,87V86.6H135.9V87Z" style="fill:#2a78d6"/><path d="M130.1,86.6V83H135.9V86.6Z" style="fill:#eb6834"/><path d="M130.1,83V81.1Q130.1,79.1 132.1,79.1H133.9Q135.9,79.1 135.9,81.1V83Z" style="fill:#1baf7a"/><path d="M137.4,87V85.1H143.2V87Z" style="fill:#2a78d6"/><path d="M137.4,85.1V79.5H143.2V85.1Z" style="fill:#eb6834"/><path d="M137.4,79.5V79.4Q137.4,77.4 139.4,77.4H141.2Q143.2,77.4 143.2,79.4V79.5Z" style="fill:#1baf7a"/><path d="M144.8,87V86.2H150.6V87Z" style="fill:#2a78d6"/><path d="M144.8,86.2V84.7H150.6V86.2Z" style="fill:#eb6834"/><path d="M144.8,84.7V84.7Q144.8,84.4 145,84.4H150.3Q150.6,84.4 150.6,84.7V84.7Z" style="fill:#1baf7a"/><path d="M152.1,87V86.6H157.9V87Z" style="fill:#2a78d6"/><path d="M152.1,86.6V86.6Q152.1,85.7 153.1,85.7H156.9Q157.9,85.7 157.9,86.6V86.6Z" style="fill:#eb6834"/><path d="M159.4,87V86.9H165.2V87Z" style="fill:#2a78d6"/><path d="M159.4,86.9V86.9Q159.4,86.8 159.5,86.8H165.2Q165.2,86.8 165.2,86.9V86.9Z" style="fill:#eb6834"/><path d="M166.8,87V87Q166.8,86.9 166.8,86.9H172.5Q172.6,86.9 172.6,87V87Z" style="fill:#2a78d6"/><path d="M174.1,87V87Q174.1,86.9 174.2,86.9H179.8Q179.9,86.9 179.9,87V87Z" style="fill:#eb6834"/><path d="M181.4,87V86.9H187.2V87Z" style="fill:#2a78d6"/><path d="M181.4,86.9V86.9Q181.4,86.8 181.5,86.8H187.2Q187.2,86.8 187.2,86.9V86.9Z" style="fill:#eb6834"/><line x1="12" y1="87.5" x2="188" y2="87.5" style="stroke:#c3c2b7;stroke-width:1"/><path d="M124.4,89l4.5,6h-9z" style="fill:#0b0b0b"/><text x="124.4" y="106" text-anchor="middle" style="font-size:10.5px;font-weight:600;fill:#0b0b0b">37.9</text><text x="12" y="106" style="font-size:10px;font-weight:400;fill:#898781">32.6</text><text x="188" y="106" text-anchor="end" style="font-size:10px;font-weight:400;fill:#898781">40.9</text><text x="12" y="122.5" style="font-size:10.5px;font-weight:400;fill:#898781;font-variant-numeric:tabular-nums">2,646 samples  ·  +38 nodes</text></g><g transform="translate(1100,601.5)"><title>Longitude ≤ −121
1,867 samples  ·  gini 0.533</title><rect x="8" y="8" width="200" height="136.5" rx="10" style="fill:#ffffff;stroke:#e4e3dd;stroke-width:1"/><rect x="4" y="4" width="200" height="136.5" rx="10" style="fill:#ffffff;stroke:#e4e3dd;stroke-width:1"/><rect class="dti-frame" width="200" height="136.5" rx="10" filter="url(#dti5-sh)" style="fill:#ffffff;stroke:#e4e3dd;stroke-width:1"/><text x="12" y="22.5" style="font-size:13px;font-weight:600;fill:#0b0b0b">Longitude</text><path d="M12.8,87V87Q12.8,86.8 12.9,86.8H18.4Q18.6,86.8 18.6,87V87Z" style="fill:#2a78d6"/><path d="M34.8,87V86.8H40.6V87Z" style="fill:#2a78d6"/><path d="M34.8,86.8V86.4H40.6V86.8Z" style="fill:#eb6834"/><path d="M34.8,86.4V86.4Q34.8,85.7 35.4,85.7H40Q40.6,85.7 40.6,86.4V86.4Z" style="fill:#1baf7a"/><path d="M42.1,87V86.8H47.9V87Z" style="fill:#2a78d6"/><path d="M42.1,86.8V83.1H47.9V86.8Z" style="fill:#eb6834"/><path d="M42.1,83.1V74.8Q42.1,72.8 44.1,72.8H45.9Q47.9,72.8 47.9,74.8V83.1Z" style="fill:#1baf7a"/><path d="M49.4,87V85.6H55.2V87Z" style="fill:#2a78d6"/><path d="M49.4,85.6V73.9H55.2V85.6Z" style="fill:#eb6834"/><path d="M49.4,73.9V70.1Q49.4,68.1 51.4,68.1H53.2Q55.2,68.1 55.2,70.1V73.9Z" style="fill:#1baf7a"/><path d="M56.8,87V84.3H62.6V87Z" style="fill:#2a78d6"/><path d="M56.8,84.3V65.4H62.6V84.3Z" style="fill:#eb6834"/><path d="M56.8,65.4V52.9Q56.8,50.9 58.8,50.9H60.6Q62.6,50.9 62.6,52.9V65.4Z" style="fill:#1baf7a"/><path d="M64.1,87V83.1H69.9V87Z" style="fill:#2a78d6"/><path d="M64.1,83.1V77.7H69.9V83.1Z" style="fill:#eb6834"/><path d="M64.1,77.7V77.5Q64.1,75.5 66.1,75.5H67.9Q69.9,75.5 69.9,77.5V77.7Z" style="fill:#1baf7a"/><path d="M71.4,87V85.1H77.2V87Z" style="fill:#2a78d6"/><path d="M71.4,85.1V76.3H77.2V85.1Z" style="fill:#eb6834"/><path d="M71.4,76.3V76.3Q71.4,75.8 71.9,75.8H76.8Q77.2,75.8 77.2,76.3V76.3Z" style="fill:#1baf7a"/><path d="M78.7,87V86.7H84.6V87Z" style="fill:#2a78d6"/><path d="M78.7,86.7V85.4H84.6V86.7Z" style="fill:#eb6834"/><path d="M78.7,85.4V85.4Q78.7,84.3 79.9,84.3H83.5Q84.6,84.3 84.6,85.4V85.4Z" style="fill:#1baf7a"/><path d="M86.1,87V85.9H91.9V87Z" style="fill:#2a78d6"/><path d="M86.1,85.9V84.6Q86.1,82.6 88.1,82.6H89.9Q91.9,82.6 91.9,84.6V85.9Z" style="fill:#eb6834"/><path d="M93.4,87V85.4H99.2V87Z" style="fill:#2a78d6"/><path d="M93.4,85.4V85.1H99.2V85.4Z" style="fill:#eb6834"/><path d="M93.4,85.1V85.1Q93.4,85 93.6,85H99.1Q99.2,85 99.2,85.1V85.1Z" style="fill:#1baf7a"/><path d="M100.7,87V82.3H106.6V87Z" style="fill:#2a78d6"/><path d="M100.7,82.3V81.5H106.6V82.3Z" style="fill:#eb6834"/><path d="M100.7,81.5V81.5Q100.7,80.2 102,80.2H105.3Q106.6,80.2 106.6,81.5V81.5Z" style="fill:#1baf7a"/><path d="M108.1,87V85.4H113.9V87Z" style="fill:#2a78d6"/><path d="M108.1,85.4V81.6H113.9V85.4Z" style="fill:#eb6834"/><path d="M108.1,81.6V81.6Q108.1,80.5 109.2,80.5H112.8Q113.9,80.5 113.9,81.6V81.6Z" style="fill:#1baf7a"/><path d="M115.4,87V85H121.2V87Z" style="fill:#2a78d6"/><path d="M115.4,85V83.2H121.2V85Z" style="fill:#eb6834"/><path d="M115.4,83.2V82.5Q115.4,80.5 117.4,80.5H119.2Q121.2,80.5 121.2,82.5V83.2Z" style="fill:#1baf7a"/><path d="M122.7,87V86.8H128.6V87Z" style="fill:#2a78d6"/><path d="M122.7,86.8V72.7H128.6V86.8Z" style="fill:#eb6834"/><path d="M122.7,72.7V69.9Q122.7,67.9 124.7,67.9H126.6Q128.6,67.9 128.6,69.9V72.7Z" style="fill:#1baf7a"/><path d="M130.1,87V84.6H135.9V87Z" style="fill:#2a78d6"/><path d="M130.1,84.6V55.2H135.9V84.6Z" style="fill:#eb6834"/><path d="M130.1,55.2V46.6Q130.1,44.6 132.1,44.6H133.9Q135.9,44.6 135.9,46.6V55.2Z" style="fill:#1baf7a"/><path d="M137.4,87V86.4H143.2V87Z" style="fill:#2a78d6"/><path d="M137.4,86.4V45.1H143.2V86.4Z" style="fill:#eb6834"/><path d="M137.4,45.1V37Q137.4,35 139.4,35H141.2Q143.2,35 143.2,37V45.1Z" style="fill:#1baf7a"/><path d="M144.8,87V81H150.6V87Z" style="fill:#2a78d6"/><path d="M144.8,81V67.3H150.6V81Z" style="fill:#eb6834"/><path d="M144.8,67.3V66.6Q144.8,64.6 146.8,64.6H148.6Q150.6,64.6 150.6,66.6V67.3Z" style="fill:#1baf7a"/><path d="M152.1,87V81.3H157.9V87Z" style="fill:#2a78d6"/><path d="M152.1,81.3V60.5H157.9V81.3Z" style="fill:#eb6834"/><path d="M152.1,60.5V59.4Q152.1,57.4 154.1,57.4H155.9Q157.9,57.4 157.9,59.4V60.5Z" style="fill:#1baf7a"/><path d="M159.4,87V86.8H165.2V87Z" style="fill:#2a78d6"/><path d="M159.4,86.8V82.9H165.2V86.8Z" style="fill:#eb6834"/><path d="M159.4,82.9V82.9Q159.4,82.1 160.2,82.1H164.5Q165.2,82.1 165.2,82.9V82.9Z" style="fill:#1baf7a"/><path d="M166.8,87V86.8H172.6V87Z" style="fill:#2a78d6"/><path d="M166.8,86.8V86.8Q166.8,86.7 166.9,86.7H172.4Q172.6,86.7 172.6,86.8V86.8Z" style="fill:#eb6834"/><path d="M174.1,87V87Q174.1,86.8 174.2,86.8H179.8Q179.9,86.8 179.9,87V87Z" style="fill:#2a78d6"/><path d="M181.4,87V87Q181.4,85.7 182.7,85.7H186Q187.2,85.7 187.2,87V87Z" style="fill:#2a78d6"/><line x1="12" y1="87.5" x2="188" y2="87.5" style="stroke:#c3c2b7;stroke-width:1"/><path d="M66.8,89l4.5,6h-9z" style="fill:#0b0b0b"/><text x="66.8" y="106" text-anchor="middle" style="font-size:10.5px;font-weight:600;fill:#0b0b0b">−121</text><text x="12" y="106" style="font-size:10px;font-weight:400;fill:#898781">−124</text><text x="188" y="106" text-anchor="end" style="font-size:10px;font-weight:400;fill:#898781">−116</text><text x="12" y="122.5" style="font-size:10.5px;font-weight:400;fill:#898781;font-variant-numeric:tabular-nums">1,867 samples  ·  +30 nodes</text></g><g transform="translate(1430,401)"><title>MedInc ≤ 6.26
2,994 samples  ·  gini 0.179</title><rect class="dti-frame" width="200" height="136.5" rx="10" filter="url(#dti5-sh)" style="fill:#ffffff;stroke:#e4e3dd;stroke-width:1"/><text x="12" y="22.5" style="font-size:13px;font-weight:600;fill:#0b0b0b">MedInc</text><path d="M12.8,87V86.5H18.6V87Z" style="fill:#2a78d6"/><path d="M12.8,86.5V75.9H18.6V86.5Z" style="fill:#eb6834"/><path d="M12.8,75.9V37.3Q12.8,35.3 14.8,35.3H16.6Q18.6,35.3 18.6,37.3V75.9Z" style="fill:#1baf7a"/><path d="M20.1,87V86H25.9V87Z" style="fill:#2a78d6"/><path d="M20.1,86V78.4H25.9V86Z" style="fill:#eb6834"/><path d="M20.1,78.4V37Q20.1,35 22.1,35H23.9Q25.9,35 25.9,37V78.4Z" style="fill:#1baf7a"/><path d="M27.4,87V84.8H33.2V87Z" style="fill:#eb6834"/><path d="M27.4,84.8V56.1Q27.4,54.1 29.4,54.1H31.2Q33.2,54.1 33.2,56.1V84.8Z" style="fill:#1baf7a"/><path d="M34.8,87V86.8H40.6V87Z" style="fill:#2a78d6"/><path d="M34.8,86.8V86.4H40.6V86.8Z" style="fill:#eb6834"/><path d="M34.8,86.4V66Q34.8,64 36.8,64H38.6Q40.6,64 40.6,66V86.4Z" style="fill:#1baf7a"/><path d="M42.1,87V86.9H47.9V87Z" style="fill:#2a78d6"/><path d="M42.1,86.9V86.1H47.9V86.9Z" style="fill:#eb6834"/><path d="M42.1,86.1V71.4Q42.1,69.4 44.1,69.4H45.9Q47.9,69.4 47.9,71.4V86.1Z" style="fill:#1baf7a"/><path d="M49.4,87V86.9H55.2V87Z" style="fill:#2a78d6"/><path d="M49.4,86.9V86.3H55.2V86.9Z" style="fill:#eb6834"/><path d="M49.4,86.3V72.1Q49.4,70.1 51.4,70.1H53.2Q55.2,70.1 55.2,72.1V86.3Z" style="fill:#1baf7a"/><path d="M56.8,87V86.8H62.6V87Z" style="fill:#eb6834"/><path d="M56.8,86.8V76.2Q56.8,74.2 58.8,74.2H60.6Q62.6,74.2 62.6,76.2V86.8Z" style="fill:#1baf7a"/><path d="M64.1,87V86.8H69.9V87Z" style="fill:#eb6834"/><path d="M64.1,86.8V80.4Q64.1,78.4 66.1,78.4H67.9Q69.9,78.4 69.9,80.4V86.8Z" style="fill:#1baf7a"/><path d="M71.4,87V86.8H77.2V87Z" style="fill:#eb6834"/><path d="M71.4,86.8V83.2Q71.4,81.2 73.4,81.2H75.2Q77.2,81.2 77.2,83.2V86.8Z" style="fill:#1baf7a"/><path d="M78.7,87V85.5Q78.7,83.5 80.7,83.5H82.6Q84.6,83.5 84.6,85.5V87Z" style="fill:#1baf7a"/><path d="M86.1,87V86.9H91.9V87Z" style="fill:#eb6834"/><path d="M86.1,86.9V85.5Q86.1,83.5 88.1,83.5H89.9Q91.9,83.5 91.9,85.5V86.9Z" style="fill:#1baf7a"/><path d="M93.4,87V86.8H99.2V87Z" style="fill:#2a78d6"/><path d="M93.4,86.8V86.7H99.2V86.8Z" style="fill:#eb6834"/><path d="M93.4,86.7V83.8Q93.4,81.8 95.4,81.8H97.2Q99.2,81.8 99.2,83.8V86.7Z" style="fill:#1baf7a"/><path d="M100.7,87V84.4Q100.7,82.4 102.7,82.4H104.6Q106.6,82.4 106.6,84.4V87Z" style="fill:#1baf7a"/><path d="M108.1,87V85.3Q108.1,83.3 110.1,83.3H111.9Q113.9,83.3 113.9,85.3V87Z" style="fill:#1baf7a"/><path d="M115.4,87V87Q115.4,85.3 117.1,85.3H119.5Q121.2,85.3 121.2,87V87Z" style="fill:#1baf7a"/><path d="M122.7,87V87Q122.7,85.6 124.2,85.6H127.1Q128.6,85.6 128.6,87V87Z" style="fill:#1baf7a"/><path d="M130.1,87V87Q130.1,86 131.1,86H134.9Q135.9,86 135.9,87V87Z" style="fill:#1baf7a"/><path d="M137.4,87V86.9H143.2V87Z" style="fill:#2a78d6"/><path d="M137.4,86.9V86.9Q137.4,85.7 138.6,85.7H142.1Q143.2,85.7 143.2,86.9V86.9Z" style="fill:#1baf7a"/><path d="M144.8,87V87Q144.8,86.2 145.5,86.2H149.8Q150.6,86.2 150.6,87V87Z" style="fill:#1baf7a"/><path d="M152.1,87V87Q152.1,85.9 153.2,85.9H156.8Q157.9,85.9 157.9,87V87Z" style="fill:#1baf7a"/><path d="M159.4,87V87Q159.4,86.4 160,86.4H164.7Q165.2,86.4 165.2,87V87Z" style="fill:#1baf7a"/><path d="M166.8,87V87Q166.8,86.8 166.9,86.8H172.4Q172.6,86.8 172.6,87V87Z" style="fill:#1baf7a"/><path d="M174.1,87V87Q174.1,86.6 174.5,86.6H179.5Q179.9,86.6 179.9,87V87Z" style="fill:#1baf7a"/><path d="M181.4,87V86.9H187.2V87Z" style="fill:#2a78d6"/><path d="M181.4,86.9V84.6Q181.4,82.6 183.4,82.6H185.2Q187.2,82.6 187.2,84.6V86.9Z" style="fill:#1baf7a"/><line x1="12" y1="87.5" x2="188" y2="87.5" style="stroke:#c3c2b7;stroke-width:1"/><path d="M24.5,89l4.5,6h-9z" style="fill:#0b0b0b"/><text x="24.5" y="106" text-anchor="middle" style="font-size:10.5px;font-weight:600;fill:#0b0b0b">6.26</text><text x="188" y="106" text-anchor="end" style="font-size:10px;font-weight:400;fill:#898781">15</text><text x="12" y="122.5" style="font-size:10.5px;font-weight:400;fill:#898781;font-variant-numeric:tabular-nums">2,994 samples  ·  gini 0.179</text></g><g transform="translate(1320,601.5)"><title>Latitude ≤ 38
1,072 samples  ·  gini 0.328</title><rect x="8" y="8" width="200" height="136.5" rx="10" style="fill:#ffffff;stroke:#e4e3dd;stroke-width:1"/><rect x="4" y="4" width="200" height="136.5" rx="10" style="fill:#ffffff;stroke:#e4e3dd;stroke-width:1"/><rect class="dti-frame" width="200" height="136.5" rx="10" filter="url(#dti5-sh)" style="fill:#ffffff;stroke:#e4e3dd;stroke-width:1"/><text x="12" y="22.5" style="font-size:13px;font-weight:600;fill:#0b0b0b">Latitude</text><path d="M12.8,87V86.8H18.6V87Z" style="fill:#2a78d6"/><path d="M12.8,86.8V83.7H18.6V86.8Z" style="fill:#eb6834"/><path d="M12.8,83.7V80.8Q12.8,78.8 14.8,78.8H16.6Q18.6,78.8 18.6,80.8V83.7Z" style="fill:#1baf7a"/><path d="M20.1,87V85.6H25.9V87Z" style="fill:#eb6834"/><path d="M20.1,85.6V81.3Q20.1,79.3 22.1,79.3H23.9Q25.9,79.3 25.9,81.3V85.6Z" style="fill:#1baf7a"/><path d="M27.4,87V84.5Q27.4,82.5 29.4,82.5H31.2Q33.2,82.5 33.2,84.5V87Z" style="fill:#1baf7a"/><path d="M34.8,87V80H40.6V87Z" style="fill:#eb6834"/><path d="M34.8,80V44Q34.8,42 36.8,42H38.6Q40.6,42 40.6,44V80Z" style="fill:#1baf7a"/><path d="M42.1,87V86.8H47.9V87Z" style="fill:#2a78d6"/><path d="M42.1,86.8V79H47.9V86.8Z" style="fill:#eb6834"/><path d="M42.1,79V37Q42.1,35 44.1,35H45.9Q47.9,35 47.9,37V79Z" style="fill:#1baf7a"/><path d="M49.4,87V80.4H55.2V87Z" style="fill:#eb6834"/><path d="M49.4,80.4V63.9Q49.4,61.9 51.4,61.9H53.2Q55.2,61.9 55.2,63.9V80.4Z" style="fill:#1baf7a"/><path d="M56.8,87V86.3H62.6V87Z" style="fill:#eb6834"/><path d="M56.8,86.3V86.3Q56.8,85.6 57.5,85.6H61.9Q62.6,85.6 62.6,86.3V86.3Z" style="fill:#1baf7a"/><path d="M64.1,87V87Q64.1,86.8 64.3,86.8H69.7Q69.9,86.8 69.9,87V87Z" style="fill:#1baf7a"/><path d="M71.4,87V86.8H77.2V87Z" style="fill:#2a78d6"/><path d="M71.4,86.8V86.5H77.2V86.8Z" style="fill:#eb6834"/><path d="M71.4,86.5V86.5Q71.4,86.3 71.7,86.3H77Q77.2,86.3 77.2,86.5V86.5Z" style="fill:#1baf7a"/><path d="M78.7,87V87Q78.7,86.1 79.7,86.1H83.6Q84.6,86.1 84.6,87V87Z" style="fill:#2a78d6"/><path d="M93.4,87V86.8H99.2V87Z" style="fill:#eb6834"/><path d="M93.4,86.8V86.8Q93.4,86.5 93.7,86.5H99Q99.2,86.5 99.2,86.8V86.8Z" style="fill:#1baf7a"/><path d="M100.7,87V87Q100.7,85.1 102.6,85.1H104.7Q106.6,85.1 106.6,87V87Z" style="fill:#1baf7a"/><path d="M108.1,87V86.3H113.9V87Z" style="fill:#2a78d6"/><path d="M108.1,86.3V85.1H113.9V86.3Z" style="fill:#eb6834"/><path d="M108.1,85.1V84.5Q108.1,82.5 110.1,82.5H111.9Q113.9,82.5 113.9,84.5V85.1Z" style="fill:#1baf7a"/><path d="M115.4,87V85.4H121.2V87Z" style="fill:#eb6834"/><path d="M115.4,85.4V66Q115.4,64 117.4,64H119.2Q121.2,64 121.2,66V85.4Z" style="fill:#1baf7a"/><path d="M122.7,87V84.4H128.6V87Z" style="fill:#eb6834"/><path d="M122.7,84.4V61.4Q122.7,59.4 124.7,59.4H126.6Q128.6,59.4 128.6,61.4V84.4Z" style="fill:#1baf7a"/><path d="M130.1,87V86.5H135.9V87Z" style="fill:#2a78d6"/><path d="M130.1,86.5V81.8H135.9V86.5Z" style="fill:#eb6834"/><path d="M130.1,81.8V61.6Q130.1,59.6 132.1,59.6H133.9Q135.9,59.6 135.9,61.6V81.8Z" style="fill:#1baf7a"/><path d="M137.4,87V86.8H143.2V87Z" style="fill:#2a78d6"/><path d="M137.4,86.8V83.7H143.2V86.8Z" style="fill:#eb6834"/><path d="M137.4,83.7V81.3Q137.4,79.3 139.4,79.3H141.2Q143.2,79.3 143.2,81.3V83.7Z" style="fill:#1baf7a"/><path d="M144.8,87V86.8H150.6V87Z" style="fill:#2a78d6"/><path d="M144.8,86.8V83.3H150.6V86.8Z" style="fill:#eb6834"/><path d="M144.8,83.3V81.3Q144.8,79.3 146.8,79.3H148.6Q150.6,79.3 150.6,81.3V83.3Z" style="fill:#1baf7a"/><path d="M152.1,87V84.2H157.9V87Z" style="fill:#eb6834"/><path d="M152.1,84.2V84.2Q152.1,83 153.3,83H156.7Q157.9,83 157.9,84.2V84.2Z" style="fill:#1baf7a"/><path d="M159.4,87V87Q159.4,86.5 159.9,86.5H164.8Q165.2,86.5 165.2,87V87Z" style="fill:#eb6834"/><path d="M166.8,87V87Q166.8,86.8 167,86.8H172.3Q172.6,86.8 172.6,87V87Z" style="fill:#2a78d6"/><path d="M181.4,87V86.8H187.2V87Z" style="fill:#2a78d6"/><path d="M181.4,86.8V86.8Q181.4,86.5 181.7,86.5H187Q187.2,86.5 187.2,86.8V86.8Z" style="fill:#eb6834"/><line x1="12" y1="87.5" x2="188" y2="87.5" style="stroke:#c3c2b7;stroke-width:1"/><path d="M135.5,89l4.5,6h-9z" style="fill:#0b0b0b"/><text x="135.5" y="106" text-anchor="middle" style="font-size:10.5px;font-weight:600;fill:#0b0b0b">38</text><text x="12" y="106" style="font-size:10px;font-weight:400;fill:#898781">32.6</text><text x="188" y="106" text-anchor="end" style="font-size:10px;font-weight:400;fill:#898781">40.2</text><text x="12" y="122.5" style="font-size:10.5px;font-weight:400;fill:#898781;font-variant-numeric:tabular-nums">1,072 samples  ·  +20 nodes</text></g><g transform="translate(1540,601.5)"><title>Latitude ≤ 38
1,922 samples  ·  gini 0.0782</title><rect x="8" y="8" width="200" height="136.5" rx="10" style="fill:#ffffff;stroke:#e4e3dd;stroke-width:1"/><rect x="4" y="4" width="200" height="136.5" rx="10" style="fill:#ffffff;stroke:#e4e3dd;stroke-width:1"/><rect class="dti-frame" width="200" height="136.5" rx="10" filter="url(#dti5-sh)" style="fill:#ffffff;stroke:#e4e3dd;stroke-width:1"/><text x="12" y="22.5" style="font-size:13px;font-weight:600;fill:#0b0b0b">Latitude</text><path d="M12.8,87V86.9H18.6V87Z" style="fill:#2a78d6"/><path d="M12.8,86.9V86.5H18.6V86.9Z" style="fill:#eb6834"/><path d="M12.8,86.5V81Q12.8,79 14.8,79H16.6Q18.6,79 18.6,81V86.5Z" style="fill:#1baf7a"/><path d="M20.1,87V86.6H25.9V87Z" style="fill:#eb6834"/><path d="M20.1,86.6V81.1Q20.1,79.1 22.1,79.1H23.9Q25.9,79.1 25.9,81.1V86.6Z" style="fill:#1baf7a"/><path d="M27.4,87V87Q27.4,86.6 27.8,86.6H32.9Q33.2,86.6 33.2,87V87Z" style="fill:#1baf7a"/><path d="M34.8,87V86.8H40.6V87Z" style="fill:#eb6834"/><path d="M34.8,86.8V65.8Q34.8,63.8 36.8,63.8H38.6Q40.6,63.8 40.6,65.8V86.8Z" style="fill:#1baf7a"/><path d="M42.1,87V86.2H47.9V87Z" style="fill:#eb6834"/><path d="M42.1,86.2V52.8Q42.1,50.8 44.1,50.8H45.9Q47.9,50.8 47.9,52.8V86.2Z" style="fill:#1baf7a"/><path d="M49.4,87V86.5H55.2V87Z" style="fill:#2a78d6"/><path d="M49.4,86.5V85.4H55.2V86.5Z" style="fill:#eb6834"/><path d="M49.4,85.4V37Q49.4,35 51.4,35H53.2Q55.2,35 55.2,37V85.4Z" style="fill:#1baf7a"/><path d="M56.8,87V86.9H62.6V87Z" style="fill:#eb6834"/><path d="M56.8,86.9V77.1Q56.8,75.1 58.8,75.1H60.6Q62.6,75.1 62.6,77.1V86.9Z" style="fill:#1baf7a"/><path d="M64.1,87V86.8H69.9V87Z" style="fill:#eb6834"/><path d="M64.1,86.8V86.8Q64.1,85.9 64.9,85.9H69.1Q69.9,85.9 69.9,86.8V86.8Z" style="fill:#1baf7a"/><path d="M71.4,87V87Q71.4,86.8 71.7,86.8H77Q77.2,86.8 77.2,87V87Z" style="fill:#1baf7a"/><path d="M78.7,87V87Q78.7,86.9 78.9,86.9H84.5Q84.6,86.9 84.6,87V87Z" style="fill:#1baf7a"/><path d="M86.1,87V86.2H91.9V87Z" style="fill:#eb6834"/><path d="M86.1,86.2V86.2Q86.1,86 86.2,86H91.8Q91.9,86 91.9,86.2V86.2Z" style="fill:#1baf7a"/><path d="M108.1,87V87Q108.1,86.9 108.2,86.9H113.8Q113.9,86.9 113.9,87V87Z" style="fill:#1baf7a"/><path d="M115.4,87V87Q115.4,85.8 116.6,85.8H120Q121.2,85.8 121.2,87V87Z" style="fill:#1baf7a"/><path d="M122.7,87V86.8H128.6V87Z" style="fill:#2a78d6"/><path d="M122.7,86.8V85.4H128.6V86.8Z" style="fill:#eb6834"/><path d="M122.7,85.4V85.4Q122.7,85.2 123,85.2H128.3Q128.6,85.2 128.6,85.4V85.4Z" style="fill:#1baf7a"/><path d="M130.1,87V86.9H135.9V87Z" style="fill:#eb6834"/><path d="M130.1,86.9V86.9Q130.1,84.9 132,84.9H134Q135.9,84.9 135.9,86.9V86.9Z" style="fill:#1baf7a"/><path d="M137.4,87V86.8H143.2V87Z" style="fill:#2a78d6"/><path d="M137.4,86.8V62.3Q137.4,60.3 139.4,60.3H141.2Q143.2,60.3 143.2,62.3V86.8Z" style="fill:#1baf7a"/><path d="M144.8,87V86.6H150.6V87Z" style="fill:#eb6834"/><path d="M144.8,86.6V70Q144.8,68 146.8,68H148.6Q150.6,68 150.6,70V86.6Z" style="fill:#1baf7a"/><path d="M152.1,87V86.5H157.9V87Z" style="fill:#eb6834"/><path d="M152.1,86.5V61.5Q152.1,59.5 154.1,59.5H155.9Q157.9,59.5 157.9,61.5V86.5Z" style="fill:#1baf7a"/><path d="M159.4,87V86.2H165.2V87Z" style="fill:#eb6834"/><path d="M159.4,86.2V82.8Q159.4,80.8 161.4,80.8H163.2Q165.2,80.8 165.2,82.8V86.2Z" style="fill:#1baf7a"/><path d="M166.8,87V86.9H172.6V87Z" style="fill:#2a78d6"/><path d="M166.8,86.9V86.5H172.6V86.9Z" style="fill:#eb6834"/><path d="M166.8,86.5V86.5Q166.8,84.8 168.4,84.8H170.9Q172.6,84.8 172.6,86.5V86.5Z" style="fill:#1baf7a"/><path d="M174.1,87V86.5H179.9V87Z" style="fill:#eb6834"/><path d="M174.1,86.5V85.7Q174.1,83.7 176.1,83.7H177.9Q179.9,83.7 179.9,85.7V86.5Z" style="fill:#1baf7a"/><path d="M181.4,87V86.9H187.2V87Z" style="fill:#eb6834"/><path d="M181.4,86.9V86.9Q181.4,86.4 181.9,86.4H186.8Q187.2,86.4 187.2,86.9V86.9Z" style="fill:#1baf7a"/><line x1="12" y1="87.5" x2="188" y2="87.5" style="stroke:#c3c2b7;stroke-width:1"/><path d="M161.1,89l4.5,6h-9z" style="fill:#0b0b0b"/><text x="161.1" y="106" text-anchor="middle" style="font-size:10.5px;font-weight:600;fill:#0b0b0b">38</text><text x="12" y="106" style="font-size:10px;font-weight:400;fill:#898781">32.6</text><text x="188" y="106" text-anchor="end" style="font-size:10px;font-weight:400;fill:#898781">39</text><text x="12" y="122.5" style="font-size:10.5px;font-weight:400;fill:#898781;font-variant-numeric:tabular-nums">1,922 samples  ·  +12 nodes</text></g><g class="dti-pill"><rect x="617.3" y="159.5" width="43.7" height="18" rx="9" style="fill:#ffffff;stroke:#e4e3dd;stroke-width:1"/><text x="639.1" y="172.2" text-anchor="middle" style="font-size:10.5px;font-weight:600;fill:#0b0b0b;font-variant-numeric:tabular-nums">≤ 4.11</text></g><g class="dti-pill"><rect x="1087.3" y="159.5" width="43.5" height="18" rx="9" style="fill:#ffffff;stroke:#e4e3dd;stroke-width:1"/><text x="1109.1" y="172.2" text-anchor="middle" style="font-size:10.5px;font-weight:600;fill:#0b0b0b;font-variant-numeric:tabular-nums">&gt; 4.11</text></g><g class="dti-pill"><rect x="286.7" y="360" width="43.7" height="18" rx="9" style="fill:#ffffff;stroke:#e4e3dd;stroke-width:1"/><text x="308.5" y="372.7" text-anchor="middle" style="font-size:10.5px;font-weight:600;fill:#0b0b0b;font-variant-numeric:tabular-nums">≤ 2.58</text></g><g class="dti-pill"><rect x="525.9" y="360" width="43.5" height="18" rx="9" style="fill:#ffffff;stroke:#e4e3dd;stroke-width:1"/><text x="547.6" y="372.7" text-anchor="middle" style="font-size:10.5px;font-weight:600;fill:#0b0b0b;font-variant-numeric:tabular-nums">&gt; 2.58</text></g><g class="dti-pill"><rect x="128" y="560.5" width="43.7" height="18" rx="9" style="fill:#ffffff;stroke:#e4e3dd;stroke-width:1"/><text x="149.8" y="573.2" text-anchor="middle" style="font-size:10.5px;font-weight:600;fill:#0b0b0b;font-variant-numeric:tabular-nums">≤ 3.94</text></g><g class="dti-pill"><rect x="245.7" y="560.5" width="43.5" height="18" rx="9" style="fill:#ffffff;stroke:#e4e3dd;stroke-width:1"/><text x="267.4" y="573.2" text-anchor="middle" style="font-size:10.5px;font-weight:600;fill:#0b0b0b;font-variant-numeric:tabular-nums">&gt; 3.94</text></g><g class="dti-pill"><rect x="564" y="560.5" width="43.7" height="18" rx="9" style="fill:#ffffff;stroke:#e4e3dd;stroke-width:1"/><text x="585.8" y="573.2" text-anchor="middle" style="font-size:10.5px;font-weight:600;fill:#0b0b0b;font-variant-numeric:tabular-nums">≤ 2.27</text></g><g class="dti-pill"><rect x="685.5" y="560.5" width="43.5" height="18" rx="9" style="fill:#ffffff;stroke:#e4e3dd;stroke-width:1"/><text x="707.3" y="573.2" text-anchor="middle" style="font-size:10.5px;font-weight:600;fill:#0b0b0b;font-variant-numeric:tabular-nums">&gt; 2.27</text></g><g class="dti-pill"><rect x="1173.8" y="360" width="43.7" height="18" rx="9" style="fill:#ffffff;stroke:#e4e3dd;stroke-width:1"/><text x="1195.6" y="372.7" text-anchor="middle" style="font-size:10.5px;font-weight:600;fill:#0b0b0b;font-variant-numeric:tabular-nums">≤ 5.59</text></g><g class="dti-pill"><rect x="1404.8" y="360" width="43.5" height="18" rx="9" style="fill:#ffffff;stroke:#e4e3dd;stroke-width:1"/><text x="1426.6" y="372.7" text-anchor="middle" style="font-size:10.5px;font-weight:600;fill:#0b0b0b;font-variant-numeric:tabular-nums">&gt; 5.59</text></g><g class="dti-pill"><rect x="1010.5" y="560.5" width="43.7" height="18" rx="9" style="fill:#ffffff;stroke:#e4e3dd;stroke-width:1"/><text x="1032.3" y="573.2" text-anchor="middle" style="font-size:10.5px;font-weight:600;fill:#0b0b0b;font-variant-numeric:tabular-nums">≤ 2.93</text></g><g class="dti-pill"><rect x="1127.1" y="560.5" width="43.5" height="18" rx="9" style="fill:#ffffff;stroke:#e4e3dd;stroke-width:1"/><text x="1148.8" y="573.2" text-anchor="middle" style="font-size:10.5px;font-weight:600;fill:#0b0b0b;font-variant-numeric:tabular-nums">&gt; 2.93</text></g><g class="dti-pill"><rect x="1450.4" y="560.5" width="43.7" height="18" rx="9" style="fill:#ffffff;stroke:#e4e3dd;stroke-width:1"/><text x="1472.2" y="573.2" text-anchor="middle" style="font-size:10.5px;font-weight:600;fill:#0b0b0b;font-variant-numeric:tabular-nums">≤ 6.26</text></g><g class="dti-pill"><rect x="1564.8" y="560.5" width="43.5" height="18" rx="9" style="fill:#ffffff;stroke:#e4e3dd;stroke-width:1"/><text x="1586.6" y="573.2" text-anchor="middle" style="font-size:10.5px;font-weight:600;fill:#0b0b0b;font-variant-numeric:tabular-nums">&gt; 6.26</text></g></g></svg>