<svg xmlns="http://www.w3.org/2000/svg" width="576" height="744" viewBox="0 0 576 744" role="img" aria-label="Bayesian rule list" font-family="Helvetica, &#x27;Helvetica Neue&#x27;, Arial, &#x27;Nimbus Sans&#x27;, &#x27;Liberation Sans&#x27;, sans-serif"><defs><filter id="dti50-sh" x="-20%" y="-20%" width="140%" height="160%"><feDropShadow dx="0" dy="1" stdDeviation="1" style="flood-color:#1a1a1a;flood-opacity:0.06"/><feDropShadow dx="0" dy="6" stdDeviation="8" style="flood-color:#1a1a1a;flood-opacity:0.07"/></filter></defs><rect width="100%" height="100%" style="fill:#ffffff"/><g transform="translate(28,28)"><text x="0" y="18" style="font-size:18px;font-weight:650;fill:#0b0b0b">Bayesian rule list</text><text x="0" y="41" style="font-size:12px;font-weight:400;fill:#52514e">BayesianRuleListClassifier  ·  3 rules + else  ·  569 training samples</text><circle cx="5" cy="62" r="5" style="fill:#2a78d6"/><text x="15" y="66" style="font-size:11.5px;font-weight:400;fill:#52514e">malignant</text><circle cx="80.9" cy="62" r="5" style="fill:#eb6834"/><text x="90.9" y="66" style="font-size:11.5px;font-weight:400;fill:#52514e">benign</text></g><g transform="translate(67,120)"><g style="fill-opacity:0.32"><title>mean_radius_high = 1 and mean_concavity_high = 1: yes  →  211 samples</title><path d="M200,44.1C255,44.1 255,44.1 310,44.1L310,62.5C255,62.5 255,62.5 200,62.5Z" style="fill:#2a78d6"/><path d="M200,62.5C255,62.5 255,62.5 310,62.5L310,65.4C255,65.4 255,65.4 200,65.4Z" style="fill:#eb6834"/></g><g style="fill-opacity:0.32"><title>mean_radius_high = 1 and mean_concavity_high = 1: no  →  358 samples</title><path d="M82,109.5C82,140.5 82,140.5 82,171.5L84.9,171.5C84.9,140.5 84.9,140.5 84.9,109.5Z" style="fill:#2a78d6"/><path d="M84.9,109.5C84.9,140.5 84.9,140.5 84.9,171.5L118,171.5C118,140.5 118,140.5 118,109.5Z" style="fill:#eb6834"/></g><g style="fill-opacity:0.32"><title>mean_smoothness_high = 1 and mean_concave_points_high = 1: yes  →  50 samples</title><path d="M200,223.7C255,223.7 255,223.7 310,223.7L310,225.4C255,225.4 255,225.4 200,225.4Z" style="fill:#2a78d6"/><path d="M200,225.4C255,225.4 255,225.4 310,225.4L310,228.8C255,228.8 255,228.8 200,228.8Z" style="fill:#eb6834"/></g><g style="fill-opacity:0.32"><title>mean_smoothness_high = 1 and mean_concave_points_high = 1: no  →  308 samples</title><path d="M84.5,281C84.5,312 84.5,312 84.5,343L85.8,343C85.8,312 85.8,312 85.8,281Z" style="fill:#2a78d6"/><path d="M85.8,281C85.8,312 85.8,312 85.8,343L115.5,343C115.5,312 115.5,312 115.5,281Z" style="fill:#eb6834"/></g><g style="fill-opacity:0.32"><title>mean_radius_high = 1 and mean_texture_high = 1: yes  →  29 samples</title><path d="M200,396.3C255,396.3 255,396.3 310,396.3L310,397.5C255,397.5 255,397.5 200,397.5Z" style="fill:#2a78d6"/><path d="M200,397.5C255,397.5 255,397.5 310,397.5L310,399.2C255,399.2 255,399.2 200,399.2Z" style="fill:#eb6834"/></g><g style="fill-opacity:0.32"><title>mean_radius_high = 1 and mean_texture_high = 1: no  →  279 samples</title><path d="M86,452.5C86,483.5 86,483.5 86,514.5L86.2,514.5C86.2,483.5 86.2,483.5 86.2,452.5Z" style="fill:#2a78d6"/><path d="M86.2,452.5C86.2,483.5 86.2,483.5 86.2,514.5L114,514.5C114,483.5 114,483.5 114,452.5Z" style="fill:#eb6834"/></g><g transform="translate(0,0)"><title>mean_radius_high = 1 and mean_concavity_high = 1
569 samples  ·  gini 0.468</title><rect class="dti-frame" width="200" height="109.5" rx="10" filter="url(#dti50-sh)" style="fill:#ffffff;stroke:#e4e3dd;stroke-width:1"/><text x="12" y="22.5" style="font-size:13px;font-weight:600;fill:#0b0b0b">Rule 1</text><text x="12" y="43" style="font-size:11.5px;font-weight:400;fill:#52514e;font-variant-numeric:tabular-nums">mean_radius_high = 1</text><text x="12" y="60" style="font-size:11.5px;font-weight:400;fill:#52514e;font-variant-numeric:tabular-nums">mean_concavity_high = 1</text><clipPath id="dti50-cb0"><rect x="12" y="69" width="176" height="8" rx="4"/></clipPath><g clip-path="url(#dti50-cb0)"><rect x="12" y="69" width="176" height="8" style="fill:#e1e0d9"/><rect x="12" y="69" width="64.8" height="8" style="fill:#2a78d6"/><rect x="78.8" y="69" width="109.2" height="8" style="fill:#eb6834"/></g><text x="12" y="95.5" style="font-size:10.5px;font-weight:400;fill:#898781;font-variant-numeric:tabular-nums">569 samples  ·  gini 0.468</text></g><g transform="translate(310,19)"><title>malignant
211 samples  ·  gini 0.23
malignant: 182
benign: 28.7</title><rect class="dti-frame" width="132" height="71.5" rx="10" filter="url(#dti50-sh)" style="fill:#ffffff;stroke:#e4e3dd;stroke-width:1"/><clipPath id="dti50-cc1"><rect width="132" height="71.5" rx="10"/></clipPath><g clip-path="url(#dti50-cc1)"><rect width="132" height="71.5" style="fill:#2a78d6;fill-opacity:0.07"/><rect width="132" height="4" style="fill:#2a78d6"/></g><circle cx="16.5" cy="22.2" r="4.5" style="fill:#2a78d6"/><text x="27" y="27" style="font-size:13.5px;font-weight:600;fill:#0b0b0b">malignant</text><text x="12" y="44.5" style="font-size:11px;font-weight:400;fill:#52514e;font-variant-numeric:tabular-nums">86% of 211</text><clipPath id="dti50-cb1"><rect x="12" y="53.5" width="108" height="6" rx="3"/></clipPath><g clip-path="url(#dti50-cb1)"><rect x="12" y="53.5" width="108" height="6" style="fill:#e1e0d9"/><rect x="12" y="53.5" width="91.6" height="6" style="fill:#2a78d6"/><rect x="105.6" y="53.5" width="14.4" height="6" style="fill:#eb6834"/></g></g><g transform="translate(0,171.5)"><title>mean_smoothness_high = 1 and mean_concave_points_high = 1
358 samples  ·  gini 0.149</title><rect class="dti-frame" width="200" height="109.5" rx="10" filter="url(#dti50-sh)" style="fill:#ffffff;stroke:#e4e3dd;stroke-width:1"/><text x="12" y="22.5" style="font-size:13px;font-weight:600;fill:#0b0b0b">Rule 2</text><text x="12" y="43" style="font-size:11.5px;font-weight:400;fill:#52514e;font-variant-numeric:tabular-nums">mean_smoothness_high = 1</text><text x="12" y="60" style="font-size:11.5px;font-weight:400;fill:#52514e;font-variant-numeric:tabular-nums">mean_concave_points_high = 1</text><clipPath id="dti50-cb2"><rect x="12" y="69" width="176" height="8" rx="4"/></clipPath><g clip-path="url(#dti50-cb2)"><rect x="12" y="69" width="176" height="8" style="fill:#e1e0d9"/><rect x="12" y="69" width="14.1" height="8" style="fill:#2a78d6"/><rect x="28.1" y="69" width="159.9" height="8" style="fill:#eb6834"/></g><text x="12" y="95.5" style="font-size:10.5px;font-weight:400;fill:#898781;font-variant-numeric:tabular-nums">358 samples  ·  gini 0.149</text></g><g transform="translate(310,190.5)"><title>benign
50 samples  ·  gini 0.435
malignant: 16.3
benign: 33.7</title><rect class="dti-frame" width="132" height="71.5" rx="10" filter="url(#dti50-sh)" style="fill:#ffffff;stroke:#e4e3dd;stroke-width:1"/><clipPath id="dti50-cc3"><rect width="132" height="71.5" rx="10"/></clipPath><g clip-path="url(#dti50-cc3)"><rect width="132" height="71.5" style="fill:#eb6834;fill-opacity:0.07"/><rect width="132" height="4" style="fill:#eb6834"/></g><circle cx="16.5" cy="22.2" r="4.5" style="fill:#eb6834"/><text x="27" y="27" style="font-size:13.5px;font-weight:600;fill:#0b0b0b">benign</text><text x="12" y="44.5" style="font-size:11px;font-weight:400;fill:#52514e;font-variant-numeric:tabular-nums">67% of 50</text><clipPath id="dti50-cb3"><rect x="12" y="53.5" width="108" height="6" rx="3"/></clipPath><g clip-path="url(#dti50-cb3)"><rect x="12" y="53.5" width="108" height="6" style="fill:#e1e0d9"/><rect x="12" y="53.5" width="34.7" height="6" style="fill:#2a78d6"/><rect x="48.7" y="53.5" width="71.3" height="6" style="fill:#eb6834"/></g></g><g transform="translate(0,343)"><title>mean_radius_high = 1 and mean_texture_high = 1
308 samples  ·  gini 0.0809</title><rect class="dti-frame" width="200" height="109.5" rx="10" filter="url(#dti50-sh)" style="fill:#ffffff;stroke:#e4e3dd;stroke-width:1"/><text x="12" y="22.5" style="font-size:13px;font-weight:600;fill:#0b0b0b">Rule 3</text><text x="12" y="43" style="font-size:11.5px;font-weight:400;fill:#52514e;font-variant-numeric:tabular-nums">mean_radius_high = 1</text><text x="12" y="60" style="font-size:11.5px;font-weight:400;fill:#52514e;font-variant-numeric:tabular-nums">mean_texture_high = 1</text><clipPath id="dti50-cb4"><rect x="12" y="69" width="176" height="8" rx="4"/></clipPath><g clip-path="url(#dti50-cb4)"><rect x="12" y="69" width="176" height="8" style="fill:#e1e0d9"/><rect x="12" y="69" width="7.3" height="8" style="fill:#2a78d6"/><rect x="21.3" y="69" width="166.7" height="8" style="fill:#eb6834"/></g><text x="12" y="95.5" style="font-size:10.5px;font-weight:400;fill:#898781;font-variant-numeric:tabular-nums">308 samples  ·  gini 0.0809</text></g><g transform="translate(310,362)"><title>benign
29 samples  ·  gini 0.485
malignant: 12.2
benign: 16.8</title><rect class="dti-frame" width="132" height="71.5" rx="10" filter="url(#dti50-sh)" style="fill:#ffffff;stroke:#e4e3dd;stroke-width:1"/><clipPath id="dti50-cc5"><rect width="132" height="71.5" rx="10"/></clipPath><g clip-path="url(#dti50-cc5)"><rect width="132" height="71.5" style="fill:#eb6834;fill-opacity:0.07"/><rect width="132" height="4" style="fill:#eb6834"/></g><circle cx="16.5" cy="22.2" r="4.5" style="fill:#eb6834"/><text x="27" y="27" style="font-size:13.5px;font-weight:600;fill:#0b0b0b">benign</text><text x="12" y="44.5" style="font-size:11px;font-weight:400;fill:#52514e;font-variant-numeric:tabular-nums">58% of 29</text><clipPath id="dti50-cb5"><rect x="12" y="53.5" width="108" height="6" rx="3"/></clipPath><g clip-path="url(#dti50-cb5)"><rect x="12" y="53.5" width="108" height="6" style="fill:#e1e0d9"/><rect x="12" y="53.5" width="44.5" height="6" style="fill:#2a78d6"/><rect x="58.5" y="53.5" width="61.5" height="6" style="fill:#eb6834"/></g></g><g transform="translate(34,514.5)"><title>benign
279 samples  ·  gini 0.00714
malignant: 1.99
benign: 277</title><rect class="dti-frame" width="132" height="71.5" rx="10" filter="url(#dti50-sh)" style="fill:#ffffff;stroke:#e4e3dd;stroke-width:1"/><clipPath id="dti50-cc6"><rect width="132" height="71.5" rx="10"/></clipPath><g clip-path="url(#dti50-cc6)"><rect width="132" height="71.5" style="fill:#eb6834;fill-opacity:0.07"/><rect width="132" height="4" style="fill:#eb6834"/></g><circle cx="16.5" cy="22.2" r="4.5" style="fill:#eb6834"/><text x="27" y="27" style="font-size:13.5px;font-weight:600;fill:#0b0b0b">benign</text><text x="12" y="44.5" style="font-size:11px;font-weight:400;fill:#52514e;font-variant-numeric:tabular-nums">99% of 279</text><clipPath id="dti50-cb6"><rect x="12" y="53.5" width="108" height="6" rx="3"/></clipPath><g clip-path="url(#dti50-cb6)"><rect x="12" y="53.5" width="108" height="6" style="fill:#e1e0d9"/><rect x="12" y="53.5" width="0.8" height="6" style="fill:#2a78d6"/><rect x="14.8" y="53.5" width="105.2" height="6" style="fill:#eb6834"/></g></g><g class="dti-pill"><rect x="239.2" y="45.8" width="31.5" height="18" rx="9" style="fill:#ffffff;stroke:#e4e3dd;stroke-width:1"/><text x="255" y="58.5" text-anchor="middle" style="font-size:10.5px;font-weight:600;fill:#0b0b0b;font-variant-numeric:tabular-nums">yes</text></g><g class="dti-pill"><rect x="86.6" y="131.5" width="26.8" height="18" rx="9" style="fill:#ffffff;stroke:#e4e3dd;stroke-width:1"/><text x="100" y="144.2" text-anchor="middle" style="font-size:10.5px;font-weight:600;fill:#0b0b0b;font-variant-numeric:tabular-nums">no</text></g><g class="dti-pill"><rect x="239.2" y="217.2" width="31.5" height="18" rx="9" style="fill:#ffffff;stroke:#e4e3dd;stroke-width:1"/><text x="255" y="229.9" text-anchor="middle" style="font-size:10.5px;font-weight:600;fill:#0b0b0b;font-variant-numeric:tabular-nums">yes</text></g><g class="dti-pill"><rect x="86.6" y="303" width="26.8" height="18" rx="9" style="fill:#ffffff;stroke:#e4e3dd;stroke-width:1"/><text x="100" y="315.7" text-anchor="middle" style="font-size:10.5px;font-weight:600;fill:#0b0b0b;font-variant-numeric:tabular-nums">no</text></g><g class="dti-pill"><rect x="239.2" y="388.8" width="31.5" height="18" rx="9" style="fill:#ffffff;stroke:#e4e3dd;stroke-width:1"/><text x="255" y="401.4" text-anchor="middle" style="font-size:10.5px;font-weight:600;fill:#0b0b0b;font-variant-numeric:tabular-nums">yes</text></g><g class="dti-pill"><rect x="86.6" y="474.5" width="26.8" height="18" rx="9" style="fill:#ffffff;stroke:#e4e3dd;stroke-width:1"/><text x="100" y="487.2" text-anchor="middle" style="font-size:10.5px;font-weight:600;fill:#0b0b0b;font-variant-numeric:tabular-nums">no</text></g></g></svg>