<svg xmlns="http://www.w3.org/2000/svg" width="636" height="1432.5" viewBox="0 0 636 1432.5" role="img" aria-label="C4.5, breast cancer" font-family="Helvetica, &#x27;Helvetica Neue&#x27;, Arial, &#x27;Nimbus Sans&#x27;, &#x27;Liberation Sans&#x27;, sans-serif"><defs><filter id="dti41-sh" x="-20%" y="-20%" width="140%" height="160%"><feDropShadow dx="0" dy="1" stdDeviation="1" style="flood-color:#1a1a1a;flood-opacity:0.06"/><feDropShadow dx="0" dy="6" stdDeviation="8" style="flood-color:#1a1a1a;flood-opacity:0.07"/></filter></defs><rect width="100%" height="100%" style="fill:#ffffff"/><g transform="translate(28,28)"><text x="0" y="18" style="font-size:18px;font-weight:650;fill:#0b0b0b">C4.5, breast cancer</text><text x="0" y="41" style="font-size:12px;font-weight:400;fill:#52514e">C45TreeClassifier  ·  depth 6  ·  7 leaves  ·  569 training samples</text><circle cx="5" cy="62" r="5" style="fill:#2a78d6"/><text x="15" y="66" style="font-size:11.5px;font-weight:400;fill:#52514e">malignant</text><circle cx="80.9" cy="62" r="5" style="fill:#eb6834"/><text x="90.9" y="66" style="font-size:11.5px;font-weight:400;fill:#52514e">benign</text></g><g transform="translate(28,120)"><g style="fill-opacity:0.32"><title>worst area ≤ 888: ≤ 888  →  386 samples</title><path d="M361,136.5C361,168.5 287.3,168.5 287.3,200.5L314.4,200.5C314.4,168.5 388.1,168.5 388.1,136.5Z" style="fill:#2a78d6"/><path d="M388.1,136.5C388.1,168.5 314.4,168.5 314.4,200.5L368.7,200.5C368.7,168.5 442.4,168.5 442.4,136.5Z" style="fill:#eb6834"/></g><g style="fill-opacity:0.32"><title>worst area ≤ 888: &gt; 888  →  183 samples</title><path d="M442.4,136.5C442.4,168.5 494.7,168.5 494.7,200.5L533.3,200.5C533.3,168.5 481,168.5 481,136.5Z" style="fill:#2a78d6"/></g><g style="fill-opacity:0.32"><title>worst concave points ≤ 0.136: ≤ 0.136  →  337 samples</title><path d="M287.3,337C287.3,369 199.5,369 199.5,401L213.7,401C213.7,369 301.5,369 301.5,337Z" style="fill:#2a78d6"/><path d="M301.5,337C301.5,369 213.7,369 213.7,401L270.5,401C270.5,369 358.4,369 358.4,337Z" style="fill:#eb6834"/></g><g style="fill-opacity:0.32"><title>worst concave points ≤ 0.136: &gt; 0.136  →  49 samples</title><path d="M358.4,337C358.4,369 415.8,369 415.8,401L426.2,401C426.2,369 368.7,369 368.7,337Z" style="fill:#2a78d6"/></g><g style="fill-opacity:0.32"><title>symmetry error ≤ 0.0105: ≤ 0.0105  →  1 samples</title><path d="M199.5,537.5C199.5,569.5 141.2,569.5 141.2,601.5L142.8,601.5C142.8,569.5 199.7,569.5 199.7,537.5Z" style="fill:#2a78d6"/></g><g style="fill-opacity:0.32"><title>symmetry error ≤ 0.0105: &gt; 0.0105  →  336 samples</title><path d="M199.7,537.5C199.7,569.5 292.6,569.5 292.6,601.5L363.4,601.5C363.4,569.5 270.5,569.5 270.5,537.5Z" style="fill:#eb6834"/></g><g style="fill-opacity:0.32"><title>worst area ≤ 788: ≤ 788  →  311 samples</title><path d="M292.6,738C292.6,770 202.2,770 202.2,802L267.8,802C267.8,770 358.2,770 358.2,738Z" style="fill:#eb6834"/></g><g style="fill-opacity:0.32"><title>worst area ≤ 788: &gt; 788  →  25 samples</title><path d="M358.2,738C358.2,770 418.4,770 418.4,802L423.6,802C423.6,770 363.4,770 363.4,738Z" style="fill:#eb6834"/></g><g style="fill-opacity:0.32"><title>area error ≤ 49.1: ≤ 49.1  →  308 samples</title><path d="M202.2,938.5C202.2,970.5 109.5,970.5 109.5,1002.5L174.5,1002.5C174.5,970.5 267.2,970.5 267.2,938.5Z" style="fill:#eb6834"/></g><g style="fill-opacity:0.32"><title>area error ≤ 49.1: &gt; 49.1  →  3 samples</title><path d="M267.2,938.5C267.2,970.5 327.2,970.5 327.2,1002.5L328.8,1002.5C328.8,970.5 267.8,970.5 267.8,938.5Z" style="fill:#eb6834"/></g><g style="fill-opacity:0.32"><title>worst texture ≤ 33.4: ≤ 33.4  →  288 samples</title><path d="M109.5,1139C109.5,1171 35.6,1171 35.6,1203L96.4,1203C96.4,1171 170.3,1171 170.3,1139Z" style="fill:#eb6834"/></g><g style="fill-opacity:0.32"><title>worst texture ≤ 33.4: &gt; 33.4  →  20 samples</title><path d="M170.3,1139C170.3,1171 215.9,1171 215.9,1203L220.1,1203C220.1,1171 174.5,1171 174.5,1139Z" style="fill:#eb6834"/></g><g transform="translate(321,0)"><title>worst area ≤ 888
569 samples</title><rect class="dti-frame" width="200" height="136.5" rx="10" filter="url(#dti41-sh)" style="fill:#ffffff;stroke:#e4e3dd;stroke-width:1"/><text x="12" y="22.5" style="font-size:13px;font-weight:600;fill:#0b0b0b">worst area</text><path d="M12.8,87V75Q12.8,73 14.8,73H16.6Q18.6,73 18.6,75V87Z" style="fill:#eb6834"/><path d="M20.1,87V86.2H25.9V87Z" style="fill:#2a78d6"/><path d="M20.1,86.2V42.4Q20.1,40.4 22.1,40.4H23.9Q25.9,40.4 25.9,42.4V86.2Z" style="fill:#eb6834"/><path d="M27.4,87V85.4H33.2V87Z" style="fill:#2a78d6"/><path d="M27.4,85.4V37Q27.4,35 29.4,35H31.2Q33.2,35 33.2,37V85.4Z" style="fill:#eb6834"/><path d="M34.8,87V75.7H40.6V87Z" style="fill:#2a78d6"/><path d="M34.8,75.7V53.7Q34.8,51.7 36.8,51.7H38.6Q40.6,51.7 40.6,53.7V75.7Z" style="fill:#eb6834"/><path d="M42.1,87V75H47.9V87Z" style="fill:#2a78d6"/><path d="M42.1,75V73.1Q42.1,71.1 44.1,71.1H45.9Q47.9,71.1 47.9,73.1V75Z" style="fill:#eb6834"/><path d="M49.4,87V82.4Q49.4,80.4 51.4,80.4H53.2Q55.2,80.4 55.2,82.4V87Z" style="fill:#2a78d6"/><path d="M56.8,87V74.2H62.6V87Z" style="fill:#2a78d6"/><path d="M56.8,74.2V74.2Q56.8,73.8 57.1,73.8H62.2Q62.6,73.8 62.6,74.2V74.2Z" style="fill:#eb6834"/><path d="M64.1,87V82.4Q64.1,80.4 66.1,80.4H67.9Q69.9,80.4 69.9,82.4V87Z" style="fill:#2a78d6"/><path d="M71.4,87V78.9Q71.4,76.9 73.4,76.9H75.2Q77.2,76.9 77.2,78.9V87Z" style="fill:#2a78d6"/><path d="M78.7,87V82.8Q78.7,80.8 80.7,80.8H82.6Q84.6,80.8 84.6,82.8V87Z" style="fill:#2a78d6"/><path d="M86.1,87V84.3Q86.1,82.3 88.1,82.3H89.9Q91.9,82.3 91.9,84.3V87Z" style="fill:#2a78d6"/><path d="M93.4,87V86.7Q93.4,84.7 95.4,84.7H97.2Q99.2,84.7 99.2,86.7V87Z" style="fill:#2a78d6"/><path d="M100.7,87V87Q100.7,85.4 102.3,85.4H105Q106.6,85.4 106.6,87V87Z" style="fill:#2a78d6"/><path d="M108.1,87V87Q108.1,85.4 109.6,85.4H112.4Q113.9,85.4 113.9,87V87Z" style="fill:#2a78d6"/><path d="M115.4,87V87Q115.4,85.8 116.6,85.8H120.1Q121.2,85.8 121.2,87V87Z" style="fill:#2a78d6"/><path d="M122.7,87V87Q122.7,86.6 123.1,86.6H128.2Q128.6,86.6 128.6,87V87Z" style="fill:#2a78d6"/><path d="M130.1,87V87Q130.1,86.2 130.9,86.2H135.1Q135.9,86.2 135.9,87V87Z" style="fill:#2a78d6"/><path d="M137.4,87V87Q137.4,85.8 138.6,85.8H142.1Q143.2,85.8 143.2,87V87Z" style="fill:#2a78d6"/><path d="M152.1,87V87Q152.1,86.6 152.5,86.6H157.5Q157.9,86.6 157.9,87V87Z" style="fill:#2a78d6"/><path d="M181.4,87V87Q181.4,86.6 181.8,86.6H186.9Q187.2,86.6 187.2,87V87Z" style="fill:#2a78d6"/><line x1="12" y1="87.5" x2="188" y2="87.5" style="stroke:#c3c2b7;stroke-width:1"/><path d="M42.4,89l4.5,6h-9z" style="fill:#0b0b0b"/><text x="42.4" y="106" text-anchor="middle" style="font-size:10.5px;font-weight:600;fill:#0b0b0b">888</text><text x="188" y="106" text-anchor="end" style="font-size:10px;font-weight:400;fill:#898781">4,254</text><text x="12" y="122.5" style="font-size:10.5px;font-weight:400;fill:#898781;font-variant-numeric:tabular-nums">569 samples</text></g><g transform="translate(228,200.5)"><title>worst concave points ≤ 0.136
386 samples</title><rect class="dti-frame" width="200" height="136.5" rx="10" filter="url(#dti41-sh)" style="fill:#ffffff;stroke:#e4e3dd;stroke-width:1"/><text x="12" y="22.5" style="font-size:13px;font-weight:600;fill:#0b0b0b">worst concave points</text><path d="M12.8,87V72.7Q12.8,70.7 14.8,70.7H16.6Q18.6,70.7 18.6,72.7V87Z" style="fill:#eb6834"/><path d="M20.1,87V80.8Q20.1,78.8 22.1,78.8H23.9Q25.9,78.8 25.9,80.8V87Z" style="fill:#eb6834"/><path d="M27.4,87V86H33.2V87Z" style="fill:#2a78d6"/><path d="M27.4,86V65.5Q27.4,63.5 29.4,63.5H31.2Q33.2,63.5 33.2,65.5V86Z" style="fill:#eb6834"/><path d="M34.8,87V68.6Q34.8,66.6 36.8,66.6H38.6Q40.6,66.6 40.6,68.6V87Z" style="fill:#eb6834"/><path d="M42.1,87V60.5Q42.1,58.5 44.1,58.5H45.9Q47.9,58.5 47.9,60.5V87Z" style="fill:#eb6834"/><path d="M49.4,87V41.1Q49.4,39.1 51.4,39.1H53.2Q55.2,39.1 55.2,41.1V87Z" style="fill:#eb6834"/><path d="M56.8,87V86H62.6V87Z" style="fill:#2a78d6"/><path d="M56.8,86V47.2Q56.8,45.2 58.8,45.2H60.6Q62.6,45.2 62.6,47.2V86Z" style="fill:#eb6834"/><path d="M64.1,87V37Q64.1,35 66.1,35H67.9Q69.9,35 69.9,37V87Z" style="fill:#eb6834"/><path d="M71.4,87V86H77.2V87Z" style="fill:#2a78d6"/><path d="M71.4,86V58.4Q71.4,56.4 73.4,56.4H75.2Q77.2,56.4 77.2,58.4V86Z" style="fill:#eb6834"/><path d="M78.7,87V57.4Q78.7,55.4 80.7,55.4H82.6Q84.6,55.4 84.6,57.4V87Z" style="fill:#eb6834"/><path d="M86.1,87V85H91.9V87Z" style="fill:#2a78d6"/><path d="M86.1,85V68.6Q86.1,66.6 88.1,66.6H89.9Q91.9,66.6 91.9,68.6V85Z" style="fill:#eb6834"/><path d="M93.4,87V86H99.2V87Z" style="fill:#2a78d6"/><path d="M93.4,86V75.7Q93.4,73.7 95.4,73.7H97.2Q99.2,73.7 99.2,75.7V86Z" style="fill:#eb6834"/><path d="M100.7,87V81.9H106.6V87Z" style="fill:#2a78d6"/><path d="M100.7,81.9V74.7Q100.7,72.7 102.7,72.7H104.6Q106.6,72.7 106.6,74.7V81.9Z" style="fill:#eb6834"/><path d="M108.1,87V82.9H113.9V87Z" style="fill:#2a78d6"/><path d="M108.1,82.9V73.7Q108.1,71.7 110.1,71.7H111.9Q113.9,71.7 113.9,73.7V82.9Z" style="fill:#eb6834"/><path d="M115.4,87V83.9H121.2V87Z" style="fill:#2a78d6"/><path d="M115.4,83.9V80.8Q115.4,78.8 117.4,78.8H119.2Q121.2,78.8 121.2,80.8V83.9Z" style="fill:#eb6834"/><path d="M122.7,87V85H128.6V87Z" style="fill:#2a78d6"/><path d="M122.7,85V85Q122.7,83.9 123.8,83.9H127.6Q128.6,83.9 128.6,85V85Z" style="fill:#eb6834"/><path d="M130.1,87V82.9H135.9V87Z" style="fill:#2a78d6"/><path d="M130.1,82.9V82.9Q130.1,81.9 131.1,81.9H134.9Q135.9,81.9 135.9,82.9V82.9Z" style="fill:#eb6834"/><path d="M137.4,87V87Q137.4,85 139.4,85H141.2Q143.2,85 143.2,87V87Z" style="fill:#2a78d6"/><path d="M144.8,87V87Q144.8,85 146.8,85H148.6Q150.6,85 150.6,87V87Z" style="fill:#2a78d6"/><path d="M152.1,87V85.9Q152.1,83.9 154.1,83.9H155.9Q157.9,83.9 157.9,85.9V87Z" style="fill:#2a78d6"/><path d="M159.4,87V87Q159.4,85 161.4,85H163.2Q165.2,85 165.2,87V87Z" style="fill:#2a78d6"/><path d="M166.8,87V87Q166.8,86 167.8,86H171.6Q172.6,86 172.6,87V87Z" style="fill:#2a78d6"/><path d="M181.4,87V85.9Q181.4,83.9 183.4,83.9H185.2Q187.2,83.9 187.2,85.9V87Z" style="fill:#2a78d6"/><line x1="12" y1="87.5" x2="188" y2="87.5" style="stroke:#c3c2b7;stroke-width:1"/><path d="M104.9,89l4.5,6h-9z" style="fill:#0b0b0b"/><text x="104.9" y="106" text-anchor="middle" style="font-size:10.5px;font-weight:600;fill:#0b0b0b">0.136</text><text x="12" y="106" style="font-size:10px;font-weight:400;fill:#898781">0</text><text x="188" y="106" text-anchor="end" style="font-size:10px;font-weight:400;fill:#898781">0.258</text><text x="12" y="122.5" style="font-size:10.5px;font-weight:400;fill:#898781;font-variant-numeric:tabular-nums">386 samples</text></g><g transform="translate(135,401)"><title>symmetry error ≤ 0.0105
337 samples</title><rect class="dti-frame" width="200" height="136.5" rx="10" filter="url(#dti41-sh)" style="fill:#ffffff;stroke:#e4e3dd;stroke-width:1"/><text x="12" y="22.5" style="font-size:13px;font-weight:600;fill:#0b0b0b">symmetry error</text><path d="M12.8,87V87Q12.8,85.8 14,85.8H17.3Q18.6,85.8 18.6,87V87Z" style="fill:#2a78d6"/><path d="M20.1,87V82.8Q20.1,80.8 22.1,80.8H23.9Q25.9,80.8 25.9,82.8V87Z" style="fill:#eb6834"/><path d="M27.4,87V75.4Q27.4,73.4 29.4,73.4H31.2Q33.2,73.4 33.2,75.4V87Z" style="fill:#eb6834"/><path d="M34.8,87V85.8H40.6V87Z" style="fill:#2a78d6"/><path d="M34.8,85.8V60.5Q34.8,58.5 36.8,58.5H38.6Q40.6,58.5 40.6,60.5V85.8Z" style="fill:#eb6834"/><path d="M42.1,87V85.8H47.9V87Z" style="fill:#2a78d6"/><path d="M42.1,85.8V55.6Q42.1,53.6 44.1,53.6H45.9Q47.9,53.6 47.9,55.6V85.8Z" style="fill:#eb6834"/><path d="M49.4,87V85.8H55.2V87Z" style="fill:#2a78d6"/><path d="M49.4,85.8V46.9Q49.4,44.9 51.4,44.9H53.2Q55.2,44.9 55.2,46.9V85.8Z" style="fill:#eb6834"/><path d="M56.8,87V85.8H62.6V87Z" style="fill:#2a78d6"/><path d="M56.8,85.8V58Q56.8,56 58.8,56H60.6Q62.6,56 62.6,58V85.8Z" style="fill:#eb6834"/><path d="M64.1,87V37Q64.1,35 66.1,35H67.9Q69.9,35 69.9,37V87Z" style="fill:#eb6834"/><path d="M71.4,87V48.1Q71.4,46.1 73.4,46.1H75.2Q77.2,46.1 77.2,48.1V87Z" style="fill:#eb6834"/><path d="M78.7,87V58Q78.7,56 80.7,56H82.6Q84.6,56 84.6,58V87Z" style="fill:#eb6834"/><path d="M86.1,87V65.5Q86.1,63.5 88.1,63.5H89.9Q91.9,63.5 91.9,65.5V87Z" style="fill:#eb6834"/><path d="M93.4,87V85.8H99.2V87Z" style="fill:#2a78d6"/><path d="M93.4,85.8V76.6Q93.4,74.6 95.4,74.6H97.2Q99.2,74.6 99.2,76.6V85.8Z" style="fill:#eb6834"/><path d="M100.7,87V68Q100.7,66 102.7,66H104.6Q106.6,66 106.6,68V87Z" style="fill:#eb6834"/><path d="M108.1,87V66.7Q108.1,64.7 110.1,64.7H111.9Q113.9,64.7 113.9,66.7V87Z" style="fill:#eb6834"/><path d="M115.4,87V79.1Q115.4,77.1 117.4,77.1H119.2Q121.2,77.1 121.2,79.1V87Z" style="fill:#eb6834"/><path d="M122.7,87V85.8H128.6V87Z" style="fill:#2a78d6"/><path d="M122.7,85.8V80.3Q122.7,78.3 124.7,78.3H126.6Q128.6,78.3 128.6,80.3V85.8Z" style="fill:#eb6834"/><path d="M130.1,87V80.3Q130.1,78.3 132.1,78.3H133.9Q135.9,78.3 135.9,80.3V87Z" style="fill:#eb6834"/><path d="M137.4,87V84Q137.4,82 139.4,82H141.2Q143.2,82 143.2,84V87Z" style="fill:#eb6834"/><path d="M144.8,87V76.6Q144.8,74.6 146.8,74.6H148.6Q150.6,74.6 150.6,76.6V87Z" style="fill:#eb6834"/><path d="M152.1,87V87Q152.1,85.8 153.3,85.8H156.7Q157.9,85.8 157.9,87V87Z" style="fill:#eb6834"/><path d="M159.4,87V86.5Q159.4,84.5 161.4,84.5H163.2Q165.2,84.5 165.2,86.5V87Z" style="fill:#eb6834"/><path d="M166.8,87V86.5Q166.8,84.5 168.8,84.5H170.6Q172.6,84.5 172.6,86.5V87Z" style="fill:#eb6834"/><path d="M174.1,87V87Q174.1,85.8 175.3,85.8H178.7Q179.9,85.8 179.9,87V87Z" style="fill:#eb6834"/><path d="M181.4,87V82.8Q181.4,80.8 183.4,80.8H185.2Q187.2,80.8 187.2,82.8V87Z" style="fill:#eb6834"/><line x1="12" y1="87.5" x2="188" y2="87.5" style="stroke:#c3c2b7;stroke-width:1"/><path d="M25.7,89l4.5,6h-9z" style="fill:#0b0b0b"/><text x="28.1" y="106" text-anchor="middle" style="font-size:10.5px;font-weight:600;fill:#0b0b0b">0.0105</text><text x="188" y="106" text-anchor="end" style="font-size:10px;font-weight:400;fill:#898781">0.0421+</text><text x="12" y="122.5" style="font-size:10.5px;font-weight:400;fill:#898781;font-variant-numeric:tabular-nums">337 samples</text></g><g transform="translate(76,601.5)"><title>malignant
1 samples
malignant: 1</title><rect class="dti-frame" width="132" height="71.5" rx="10" filter="url(#dti41-sh)" style="fill:#ffffff;stroke:#e4e3dd;stroke-width:1"/><clipPath id="dti41-cc3"><rect width="132" height="71.5" rx="10"/></clipPath><g clip-path="url(#dti41-cc3)"><rect width="132" height="71.5" style="fill:#2a78d6;fill-opacity:0.07"/><rect width="132" height="4" style="fill:#2a78d6"/></g><circle cx="16.5" cy="22.2" r="4.5" style="fill:#2a78d6"/><text x="27" y="27" style="font-size:13.5px;font-weight:600;fill:#0b0b0b">malignant</text><text x="12" y="44.5" style="font-size:11px;font-weight:400;fill:#52514e;font-variant-numeric:tabular-nums">100% of 1</text><clipPath id="dti41-cb3"><rect x="12" y="53.5" width="108" height="6" rx="3"/></clipPath><g clip-path="url(#dti41-cb3)"><rect x="12" y="53.5" width="108" height="6" style="fill:#e1e0d9"/><rect x="12" y="53.5" width="108" height="6" style="fill:#2a78d6"/></g></g><g transform="translate(228,601.5)"><title>worst area ≤ 788
336 samples</title><rect class="dti-frame" width="200" height="136.5" rx="10" filter="url(#dti41-sh)" style="fill:#ffffff;stroke:#e4e3dd;stroke-width:1"/><text x="12" y="22.5" style="font-size:13px;font-weight:600;fill:#0b0b0b">worst area</text><path d="M12.8,87V87Q12.8,85.3 14.4,85.3H16.9Q18.6,85.3 18.6,87V87Z" style="fill:#eb6834"/><path d="M20.1,87V84Q20.1,82 22.1,82H23.9Q25.9,82 25.9,84V87Z" style="fill:#eb6834"/><path d="M27.4,87V80.6Q27.4,78.6 29.4,78.6H31.2Q33.2,78.6 33.2,80.6V87Z" style="fill:#eb6834"/><path d="M34.8,87V72.2Q34.8,70.2 36.8,70.2H38.6Q40.6,70.2 40.6,72.2V87Z" style="fill:#eb6834"/><path d="M42.1,87V77.3Q42.1,75.3 44.1,75.3H45.9Q47.9,75.3 47.9,77.3V87Z" style="fill:#eb6834"/><path d="M49.4,87V68.9Q49.4,66.9 51.4,66.9H53.2Q55.2,66.9 55.2,68.9V87Z" style="fill:#eb6834"/><path d="M56.8,87V58.8Q56.8,56.8 58.8,56.8H60.6Q62.6,56.8 62.6,58.8V87Z" style="fill:#eb6834"/><path d="M64.1,87V63.8Q64.1,61.8 66.1,61.8H67.9Q69.9,61.8 69.9,63.8V87Z" style="fill:#eb6834"/><path d="M71.4,87V63.8Q71.4,61.8 73.4,61.8H75.2Q77.2,61.8 77.2,63.8V87Z" style="fill:#eb6834"/><path d="M78.7,87V50.4Q78.7,48.4 80.7,48.4H82.6Q84.6,48.4 84.6,50.4V87Z" style="fill:#eb6834"/><path d="M86.1,87V58.8Q86.1,56.8 88.1,56.8H89.9Q91.9,56.8 91.9,58.8V87Z" style="fill:#eb6834"/><path d="M93.4,87V38.7Q93.4,36.7 95.4,36.7H97.2Q99.2,36.7 99.2,38.7V87Z" style="fill:#eb6834"/><path d="M100.7,87V85.3H106.6V87Z" style="fill:#2a78d6"/><path d="M100.7,85.3V37Q100.7,35 102.7,35H104.6Q106.6,35 106.6,37V85.3Z" style="fill:#eb6834"/><path d="M108.1,87V48.7Q108.1,46.7 110.1,46.7H111.9Q113.9,46.7 113.9,48.7V87Z" style="fill:#eb6834"/><path d="M115.4,87V58.8Q115.4,56.8 117.4,56.8H119.2Q121.2,56.8 121.2,58.8V87Z" style="fill:#eb6834"/><path d="M122.7,87V50.4Q122.7,48.4 124.7,48.4H126.6Q128.6,48.4 128.6,50.4V87Z" style="fill:#eb6834"/><path d="M130.1,87V85.3H135.9V87Z" style="fill:#2a78d6"/><path d="M130.1,85.3V65.5Q130.1,63.5 132.1,63.5H133.9Q135.9,63.5 135.9,65.5V85.3Z" style="fill:#eb6834"/><path d="M137.4,87V55.5Q137.4,53.5 139.4,53.5H141.2Q143.2,53.5 143.2,55.5V87Z" style="fill:#eb6834"/><path d="M144.8,87V72.2Q144.8,70.2 146.8,70.2H148.6Q150.6,70.2 150.6,72.2V87Z" style="fill:#eb6834"/><path d="M152.1,87V73.9Q152.1,71.9 154.1,71.9H155.9Q157.9,71.9 157.9,73.9V87Z" style="fill:#eb6834"/><path d="M159.4,87V85.3H165.2V87Z" style="fill:#2a78d6"/><path d="M159.4,85.3V77.3Q159.4,75.3 161.4,75.3H163.2Q165.2,75.3 165.2,77.3V85.3Z" style="fill:#eb6834"/><path d="M166.8,87V85.3H172.6V87Z" style="fill:#2a78d6"/><path d="M166.8,85.3V77.3Q166.8,75.3 168.8,75.3H170.6Q172.6,75.3 172.6,77.3V85.3Z" style="fill:#eb6834"/><path d="M174.1,87V85.3H179.9V87Z" style="fill:#2a78d6"/><path d="M174.1,85.3V73.9Q174.1,71.9 176.1,71.9H177.9Q179.9,71.9 179.9,73.9V85.3Z" style="fill:#eb6834"/><path d="M181.4,87V85.3H187.2V87Z" style="fill:#2a78d6"/><path d="M181.4,85.3V77.3Q181.4,75.3 183.4,75.3H185.2Q187.2,75.3 187.2,77.3V85.3Z" style="fill:#eb6834"/><line x1="12" y1="87.5" x2="188" y2="87.5" style="stroke:#c3c2b7;stroke-width:1"/><path d="M164.5,89l4.5,6h-9z" style="fill:#0b0b0b"/><text x="164.5" y="106" text-anchor="middle" style="font-size:10.5px;font-weight:600;fill:#0b0b0b">788</text><text x="12" y="106" style="font-size:10px;font-weight:400;fill:#898781">185</text><text x="12" y="122.5" style="font-size:10.5px;font-weight:400;fill:#898781;font-variant-numeric:tabular-nums">336 samples</text></g><g transform="translate(135,802)"><title>area error ≤ 49.1
311 samples</title><rect class="dti-frame" width="200" height="136.5" rx="10" filter="url(#dti41-sh)" style="fill:#ffffff;stroke:#e4e3dd;stroke-width:1"/><text x="12" y="22.5" style="font-size:13px;font-weight:600;fill:#0b0b0b">area error</text><path d="M12.8,87V80.6Q12.8,78.6 14.8,78.6H16.6Q18.6,78.6 18.6,80.6V87Z" style="fill:#eb6834"/><path d="M20.1,87V69.3Q20.1,67.3 22.1,67.3H23.9Q25.9,67.3 25.9,69.3V87Z" style="fill:#eb6834"/><path d="M27.4,87V56.7Q27.4,54.7 29.4,54.7H31.2Q33.2,54.7 33.2,56.7V87Z" style="fill:#eb6834"/><path d="M34.8,87V52.5Q34.8,50.5 36.8,50.5H38.6Q40.6,50.5 40.6,52.5V87Z" style="fill:#eb6834"/><path d="M42.1,87V49.6Q42.1,47.6 44.1,47.6H45.9Q47.9,47.6 47.9,49.6V87Z" style="fill:#eb6834"/><path d="M49.4,87V37Q49.4,35 51.4,35H53.2Q55.2,35 55.2,37V87Z" style="fill:#eb6834"/><path d="M56.8,87V41.2Q56.8,39.2 58.8,39.2H60.6Q62.6,39.2 62.6,41.2V87Z" style="fill:#eb6834"/><path d="M64.1,87V85.6H69.9V87Z" style="fill:#2a78d6"/><path d="M64.1,85.6V38.4Q64.1,36.4 66.1,36.4H67.9Q69.9,36.4 69.9,38.4V85.6Z" style="fill:#eb6834"/><path d="M71.4,87V53.9Q71.4,51.9 73.4,51.9H75.2Q77.2,51.9 77.2,53.9V87Z" style="fill:#eb6834"/><path d="M78.7,87V62.3Q78.7,60.3 80.7,60.3H82.6Q84.6,60.3 84.6,62.3V87Z" style="fill:#eb6834"/><path d="M86.1,87V69.3Q86.1,67.3 88.1,67.3H89.9Q91.9,67.3 91.9,69.3V87Z" style="fill:#eb6834"/><path d="M93.4,87V70.7Q93.4,68.7 95.4,68.7H97.2Q99.2,68.7 99.2,70.7V87Z" style="fill:#eb6834"/><path d="M100.7,87V72.1Q100.7,70.1 102.7,70.1H104.6Q106.6,70.1 106.6,72.1V87Z" style="fill:#eb6834"/><path d="M108.1,87V84.8Q108.1,82.8 110.1,82.8H111.9Q113.9,82.8 113.9,84.8V87Z" style="fill:#eb6834"/><path d="M115.4,87V80.6Q115.4,78.6 117.4,78.6H119.2Q121.2,78.6 121.2,80.6V87Z" style="fill:#eb6834"/><path d="M122.7,87V83.4Q122.7,81.4 124.7,81.4H126.6Q128.6,81.4 128.6,83.4V87Z" style="fill:#eb6834"/><path d="M130.1,87V87Q130.1,85.6 131.5,85.6H134.5Q135.9,85.6 135.9,87V87Z" style="fill:#eb6834"/><path d="M137.4,87V86.2Q137.4,84.2 139.4,84.2H141.2Q143.2,84.2 143.2,86.2V87Z" style="fill:#eb6834"/><path d="M144.8,87V87Q144.8,85.6 146.2,85.6H149.2Q150.6,85.6 150.6,87V87Z" style="fill:#eb6834"/><path d="M152.1,87V87Q152.1,85.6 153.5,85.6H156.5Q157.9,85.6 157.9,87V87Z" style="fill:#eb6834"/><path d="M159.4,87V86.2Q159.4,84.2 161.4,84.2H163.2Q165.2,84.2 165.2,86.2V87Z" style="fill:#eb6834"/><path d="M174.1,87V85.6H179.9V87Z" style="fill:#2a78d6"/><path d="M174.1,85.6V85.6Q174.1,84.2 175.5,84.2H178.5Q179.9,84.2 179.9,85.6V85.6Z" style="fill:#eb6834"/><path d="M181.4,87V86.2Q181.4,84.2 183.4,84.2H185.2Q187.2,84.2 187.2,86.2V87Z" style="fill:#eb6834"/><line x1="12" y1="87.5" x2="188" y2="87.5" style="stroke:#c3c2b7;stroke-width:1"/><path d="M179.9,89l4.5,6h-9z" style="fill:#0b0b0b"/><text x="177.8" y="106" text-anchor="middle" style="font-size:10.5px;font-weight:600;fill:#0b0b0b">49.1</text><text x="12" y="106" style="font-size:10px;font-weight:400;fill:#898781">6.8</text><text x="12" y="122.5" style="font-size:10.5px;font-weight:400;fill:#898781;font-variant-numeric:tabular-nums">311 samples</text></g><g transform="translate(42,1002.5)"><title>worst texture ≤ 33.4
308 samples</title><rect class="dti-frame" width="200" height="136.5" rx="10" filter="url(#dti41-sh)" style="fill:#ffffff;stroke:#e4e3dd;stroke-width:1"/><text x="12" y="22.5" style="font-size:13px;font-weight:600;fill:#0b0b0b">worst texture</text><path d="M12.8,87V84.1Q12.8,82.1 14.8,82.1H16.6Q18.6,82.1 18.6,84.1V87Z" style="fill:#eb6834"/><path d="M20.1,87V87Q20.1,85.4 21.7,85.4H24.3Q25.9,85.4 25.9,87V87Z" style="fill:#eb6834"/><path d="M27.4,87V76Q27.4,74 29.4,74H31.2Q33.2,74 33.2,76V87Z" style="fill:#eb6834"/><path d="M34.8,87V54.9Q34.8,52.9 36.8,52.9H38.6Q40.6,52.9 40.6,54.9V87Z" style="fill:#eb6834"/><path d="M42.1,87V56.5Q42.1,54.5 44.1,54.5H45.9Q47.9,54.5 47.9,56.5V87Z" style="fill:#eb6834"/><path d="M49.4,87V61.4Q49.4,59.4 51.4,59.4H53.2Q55.2,59.4 55.2,61.4V87Z" style="fill:#eb6834"/><path d="M56.8,87V40.2Q56.8,38.2 58.8,38.2H60.6Q62.6,38.2 62.6,40.2V87Z" style="fill:#eb6834"/><path d="M64.1,87V37Q64.1,35 66.1,35H67.9Q69.9,35 69.9,37V87Z" style="fill:#eb6834"/><path d="M71.4,87V38.6Q71.4,36.6 73.4,36.6H75.2Q77.2,36.6 77.2,38.6V87Z" style="fill:#eb6834"/><path d="M78.7,87V54.9Q78.7,52.9 80.7,52.9H82.6Q84.6,52.9 84.6,54.9V87Z" style="fill:#eb6834"/><path d="M86.1,87V46.8Q86.1,44.8 88.1,44.8H89.9Q91.9,44.8 91.9,46.8V87Z" style="fill:#eb6834"/><path d="M93.4,87V54.9Q93.4,52.9 95.4,52.9H97.2Q99.2,52.9 99.2,54.9V87Z" style="fill:#eb6834"/><path d="M100.7,87V64.6Q100.7,62.6 102.7,62.6H104.6Q106.6,62.6 106.6,64.6V87Z" style="fill:#eb6834"/><path d="M108.1,87V59.8Q108.1,57.8 110.1,57.8H111.9Q113.9,57.8 113.9,59.8V87Z" style="fill:#eb6834"/><path d="M115.4,87V77.6Q115.4,75.6 117.4,75.6H119.2Q121.2,75.6 121.2,77.6V87Z" style="fill:#eb6834"/><path d="M122.7,87V77.6Q122.7,75.6 124.7,75.6H126.6Q128.6,75.6 128.6,77.6V87Z" style="fill:#eb6834"/><path d="M130.1,87V76Q130.1,74 132.1,74H133.9Q135.9,74 135.9,76V87Z" style="fill:#eb6834"/><path d="M137.4,87V85.4H143.2V87Z" style="fill:#2a78d6"/><path d="M137.4,85.4V79.2Q137.4,77.2 139.4,77.2H141.2Q143.2,77.2 143.2,79.2V85.4Z" style="fill:#eb6834"/><path d="M144.8,87V85.8Q144.8,83.8 146.8,83.8H148.6Q150.6,83.8 150.6,85.8V87Z" style="fill:#eb6834"/><path d="M152.1,87V82.5Q152.1,80.5 154.1,80.5H155.9Q157.9,80.5 157.9,82.5V87Z" style="fill:#eb6834"/><path d="M159.4,87V80.9Q159.4,78.9 161.4,78.9H163.2Q165.2,78.9 165.2,80.9V87Z" style="fill:#eb6834"/><path d="M166.8,87V85.8Q166.8,83.8 168.8,83.8H170.6Q172.6,83.8 172.6,85.8V87Z" style="fill:#eb6834"/><path d="M181.4,87V84.1Q181.4,82.1 183.4,82.1H185.2Q187.2,82.1 187.2,84.1V87Z" style="fill:#eb6834"/><line x1="12" y1="87.5" x2="188" y2="87.5" style="stroke:#c3c2b7;stroke-width:1"/><path d="M138.3,89l4.5,6h-9z" style="fill:#0b0b0b"/><text x="138.3" y="106" text-anchor="middle" style="font-size:10.5px;font-weight:600;fill:#0b0b0b">33.4</text><text x="12" y="106" style="font-size:10px;font-weight:400;fill:#898781">12</text><text x="188" y="106" text-anchor="end" style="font-size:10px;font-weight:400;fill:#898781">41.8</text><text x="12" y="122.5" style="font-size:10.5px;font-weight:400;fill:#898781;font-variant-numeric:tabular-nums">308 samples</text></g><g transform="translate(0,1203)"><title>benign
288 samples
benign: 288</title><rect class="dti-frame" width="132" height="71.5" rx="10" filter="url(#dti41-sh)" style="fill:#ffffff;stroke:#e4e3dd;stroke-width:1"/><clipPath id="dti41-cc7"><rect width="132" height="71.5" rx="10"/></clipPath><g clip-path="url(#dti41-cc7)"><rect width="132" height="71.5" style="fill:#eb6834;fill-opacity:0.07"/><rect width="132" height="4" style="fill:#eb6834"/></g><circle cx="16.5" cy="22.2" r="4.5" style="fill:#eb6834"/><text x="27" y="27" style="font-size:13.5px;font-weight:600;fill:#0b0b0b">benign</text><text x="12" y="44.5" style="font-size:11px;font-weight:400;fill:#52514e;font-variant-numeric:tabular-nums">100% of 288</text><clipPath id="dti41-cb7"><rect x="12" y="53.5" width="108" height="6" rx="3"/></clipPath><g clip-path="url(#dti41-cb7)"><rect x="12" y="53.5" width="108" height="6" style="fill:#e1e0d9"/><rect x="12" y="53.5" width="108" height="6" style="fill:#eb6834"/></g></g><g transform="translate(152,1203)"><title>benign
20 samples
benign: 20</title><rect class="dti-frame" width="132" height="71.5" rx="10" filter="url(#dti41-sh)" style="fill:#ffffff;stroke:#e4e3dd;stroke-width:1"/><clipPath id="dti41-cc8"><rect width="132" height="71.5" rx="10"/></clipPath><g clip-path="url(#dti41-cc8)"><rect width="132" height="71.5" style="fill:#eb6834;fill-opacity:0.07"/><rect width="132" height="4" style="fill:#eb6834"/></g><circle cx="16.5" cy="22.2" r="4.5" style="fill:#eb6834"/><text x="27" y="27" style="font-size:13.5px;font-weight:600;fill:#0b0b0b">benign</text><text x="12" y="44.5" style="font-size:11px;font-weight:400;fill:#52514e;font-variant-numeric:tabular-nums">100% of 20</text><clipPath id="dti41-cb8"><rect x="12" y="53.5" width="108" height="6" rx="3"/></clipPath><g clip-path="url(#dti41-cb8)"><rect x="12" y="53.5" width="108" height="6" style="fill:#e1e0d9"/><rect x="12" y="53.5" width="108" height="6" style="fill:#eb6834"/></g></g><g transform="translate(262,1002.5)"><title>benign
3 samples
benign: 3</title><rect class="dti-frame" width="132" height="71.5" rx="10" filter="url(#dti41-sh)" style="fill:#ffffff;stroke:#e4e3dd;stroke-width:1"/><clipPath id="dti41-cc9"><rect width="132" height="71.5" rx="10"/></clipPath><g clip-path="url(#dti41-cc9)"><rect width="132" height="71.5" style="fill:#eb6834;fill-opacity:0.07"/><rect width="132" height="4" style="fill:#eb6834"/></g><circle cx="16.5" cy="22.2" r="4.5" style="fill:#eb6834"/><text x="27" y="27" style="font-size:13.5px;font-weight:600;fill:#0b0b0b">benign</text><text x="12" y="44.5" style="font-size:11px;font-weight:400;fill:#52514e;font-variant-numeric:tabular-nums">100% of 3</text><clipPath id="dti41-cb9"><rect x="12" y="53.5" width="108" height="6" rx="3"/></clipPath><g clip-path="url(#dti41-cb9)"><rect x="12" y="53.5" width="108" height="6" style="fill:#e1e0d9"/><rect x="12" y="53.5" width="108" height="6" style="fill:#eb6834"/></g></g><g transform="translate(355,802)"><title>benign
25 samples
benign: 25</title><rect class="dti-frame" width="132" height="71.5" rx="10" filter="url(#dti41-sh)" style="fill:#ffffff;stroke:#e4e3dd;stroke-width:1"/><clipPath id="dti41-cc10"><rect width="132" height="71.5" rx="10"/></clipPath><g clip-path="url(#dti41-cc10)"><rect width="132" height="71.5" style="fill:#eb6834;fill-opacity:0.07"/><rect width="132" height="4" style="fill:#eb6834"/></g><circle cx="16.5" cy="22.2" r="4.5" style="fill:#eb6834"/><text x="27" y="27" style="font-size:13.5px;font-weight:600;fill:#0b0b0b">benign</text><text x="12" y="44.5" style="font-size:11px;font-weight:400;fill:#52514e;font-variant-numeric:tabular-nums">100% of 25</text><clipPath id="dti41-cb10"><rect x="12" y="53.5" width="108" height="6" rx="3"/></clipPath><g clip-path="url(#dti41-cb10)"><rect x="12" y="53.5" width="108" height="6" style="fill:#e1e0d9"/><rect x="12" y="53.5" width="108" height="6" style="fill:#eb6834"/></g></g><g transform="translate(355,401)"><title>malignant
49 samples
malignant: 49</title><rect class="dti-frame" width="132" height="71.5" rx="10" filter="url(#dti41-sh)" style="fill:#ffffff;stroke:#e4e3dd;stroke-width:1"/><clipPath id="dti41-cc11"><rect width="132" height="71.5" rx="10"/></clipPath><g clip-path="url(#dti41-cc11)"><rect width="132" height="71.5" style="fill:#2a78d6;fill-opacity:0.07"/><rect width="132" height="4" style="fill:#2a78d6"/></g><circle cx="16.5" cy="22.2" r="4.5" style="fill:#2a78d6"/><text x="27" y="27" style="font-size:13.5px;font-weight:600;fill:#0b0b0b">malignant</text><text x="12" y="44.5" style="font-size:11px;font-weight:400;fill:#52514e;font-variant-numeric:tabular-nums">100% of 49</text><clipPath id="dti41-cb11"><rect x="12" y="53.5" width="108" height="6" rx="3"/></clipPath><g clip-path="url(#dti41-cb11)"><rect x="12" y="53.5" width="108" height="6" style="fill:#e1e0d9"/><rect x="12" y="53.5" width="108" height="6" style="fill:#2a78d6"/></g></g><g transform="translate(448,200.5)"><title>malignant
183 samples
malignant: 183</title><rect class="dti-frame" width="132" height="71.5" rx="10" filter="url(#dti41-sh)" style="fill:#ffffff;stroke:#e4e3dd;stroke-width:1"/><clipPath id="dti41-cc12"><rect width="132" height="71.5" rx="10"/></clipPath><g clip-path="url(#dti41-cc12)"><rect width="132" height="71.5" style="fill:#2a78d6;fill-opacity:0.07"/><rect width="132" height="4" style="fill:#2a78d6"/></g><circle cx="16.5" cy="22.2" r="4.5" style="fill:#2a78d6"/><text x="27" y="27" style="font-size:13.5px;font-weight:600;fill:#0b0b0b">malignant</text><text x="12" y="44.5" style="font-size:11px;font-weight:400;fill:#52514e;font-variant-numeric:tabular-nums">100% of 183</text><clipPath id="dti41-cb12"><rect x="12" y="53.5" width="108" height="6" rx="3"/></clipPath><g clip-path="url(#dti41-cb12)"><rect x="12" y="53.5" width="108" height="6" style="fill:#e1e0d9"/><rect x="12" y="53.5" width="108" height="6" style="fill:#2a78d6"/></g></g><g class="dti-pill"><rect x="344.5" y="159.5" width="40.7" height="18" rx="9" style="fill:#ffffff;stroke:#e4e3dd;stroke-width:1"/><text x="364.9" y="172.2" text-anchor="middle" style="font-size:10.5px;font-weight:600;fill:#0b0b0b;font-variant-numeric:tabular-nums">≤ 888</text></g><g class="dti-pill"><rect x="467.6" y="159.5" width="40.6" height="18" rx="9" style="fill:#ffffff;stroke:#e4e3dd;stroke-width:1"/><text x="487.9" y="172.2" text-anchor="middle" style="font-size:10.5px;font-weight:600;fill:#0b0b0b;font-variant-numeric:tabular-nums">&gt; 888</text></g><g class="dti-pill"><rect x="254.2" y="360" width="49.5" height="18" rx="9" style="fill:#ffffff;stroke:#e4e3dd;stroke-width:1"/><text x="278.9" y="372.7" text-anchor="middle" style="font-size:10.5px;font-weight:600;fill:#0b0b0b;font-variant-numeric:tabular-nums">≤ 0.136</text></g><g class="dti-pill"><rect x="367.6" y="360" width="49.3" height="18" rx="9" style="fill:#ffffff;stroke:#e4e3dd;stroke-width:1"/><text x="392.3" y="372.7" text-anchor="middle" style="font-size:10.5px;font-weight:600;fill:#0b0b0b;font-variant-numeric:tabular-nums">&gt; 0.136</text></g><g class="dti-pill"><rect x="143.1" y="560.5" width="55.3" height="18" rx="9" style="fill:#ffffff;stroke:#e4e3dd;stroke-width:1"/><text x="170.8" y="573.2" text-anchor="middle" style="font-size:10.5px;font-weight:600;fill:#0b0b0b;font-variant-numeric:tabular-nums">≤ 0.0105</text></g><g class="dti-pill"><rect x="254" y="560.5" width="55.2" height="18" rx="9" style="fill:#ffffff;stroke:#e4e3dd;stroke-width:1"/><text x="281.6" y="573.2" text-anchor="middle" style="font-size:10.5px;font-weight:600;fill:#0b0b0b;font-variant-numeric:tabular-nums">&gt; 0.0105</text></g><g class="dti-pill"><rect x="259.8" y="761" width="40.7" height="18" rx="9" style="fill:#ffffff;stroke:#e4e3dd;stroke-width:1"/><text x="280.2" y="773.7" text-anchor="middle" style="font-size:10.5px;font-weight:600;fill:#0b0b0b;font-variant-numeric:tabular-nums">≤ 788</text></g><g class="dti-pill"><rect x="370.6" y="761" width="40.6" height="18" rx="9" style="fill:#ffffff;stroke:#e4e3dd;stroke-width:1"/><text x="390.9" y="773.7" text-anchor="middle" style="font-size:10.5px;font-weight:600;fill:#0b0b0b;font-variant-numeric:tabular-nums">&gt; 788</text></g><g class="dti-pill"><rect x="166.5" y="961.5" width="43.7" height="18" rx="9" style="fill:#ffffff;stroke:#e4e3dd;stroke-width:1"/><text x="188.3" y="974.2" text-anchor="middle" style="font-size:10.5px;font-weight:600;fill:#0b0b0b;font-variant-numeric:tabular-nums">≤ 49.1</text></g><g class="dti-pill"><rect x="276" y="961.5" width="43.5" height="18" rx="9" style="fill:#ffffff;stroke:#e4e3dd;stroke-width:1"/><text x="297.7" y="974.2" text-anchor="middle" style="font-size:10.5px;font-weight:600;fill:#0b0b0b;font-variant-numeric:tabular-nums">&gt; 49.1</text></g><g class="dti-pill"><rect x="81.1" y="1162" width="43.7" height="18" rx="9" style="fill:#ffffff;stroke:#e4e3dd;stroke-width:1"/><text x="102.9" y="1174.7" text-anchor="middle" style="font-size:10.5px;font-weight:600;fill:#0b0b0b;font-variant-numeric:tabular-nums">≤ 33.4</text></g><g class="dti-pill"><rect x="173.4" y="1162" width="43.5" height="18" rx="9" style="fill:#ffffff;stroke:#e4e3dd;stroke-width:1"/><text x="195.2" y="1174.7" text-anchor="middle" style="font-size:10.5px;font-weight:600;fill:#0b0b0b;font-variant-numeric:tabular-nums">&gt; 33.4</text></g></g></svg>