<svg xmlns="http://www.w3.org/2000/svg" width="866" height="889.5" viewBox="0 0 866 889.5" role="img" aria-label="HSTree, breast cancer" font-family="Helvetica, &#x27;Helvetica Neue&#x27;, Arial, &#x27;Nimbus Sans&#x27;, &#x27;Liberation Sans&#x27;, sans-serif"><defs><filter id="dti35-sh" x="-20%" y="-20%" width="140%" height="160%"><feDropShadow dx="0" dy="1" stdDeviation="1" style="flood-color:#1a1a1a;flood-opacity:0.06"/><feDropShadow dx="0" dy="6" stdDeviation="8" style="flood-color:#1a1a1a;flood-opacity:0.07"/></filter></defs><rect width="100%" height="100%" style="fill:#ffffff"/><g transform="translate(18,18)"><text x="0" y="18" style="font-size:18px;font-weight:650;fill:#0b0b0b">HSTree, breast cancer</text><text x="0" y="41" style="font-size:12px;font-weight:400;fill:#52514e">HSTreeClassifier (shrinkage 10)  ·  depth 4  ·  8 leaves  ·  569 training samples</text><circle cx="5" cy="62" r="5" style="fill:#2a78d6"/><text x="15" y="66" style="font-size:11.5px;font-weight:400;fill:#52514e">malignant</text><circle cx="80.9" cy="62" r="5" style="fill:#eb6834"/><text x="90.9" y="66" style="font-size:11.5px;font-weight:400;fill:#52514e">benign</text></g><g transform="translate(18,110)"><g style="fill-opacity:0.32"><title>worst radius ≤ 16.8: ≤ 16.8  →  379 samples</title><path d="M371.5,121.5C371.5,146.5 132,146.5 132,171.5L139.4,171.5C139.4,146.5 378.9,146.5 378.9,121.5Z" style="fill:#2a78d6"/><path d="M378.9,121.5C378.9,146.5 139.4,146.5 139.4,171.5L212,171.5C212,146.5 451.4,146.5 451.4,121.5Z" style="fill:#eb6834"/></g><g style="fill-opacity:0.32"><title>worst radius ≤ 16.8: &gt; 16.8  →  190 samples</title><path d="M451.4,121.5C451.4,146.5 671,146.5 671,171.5L708.3,171.5C708.3,146.5 488.8,146.5 488.8,121.5Z" style="fill:#2a78d6"/><path d="M488.8,121.5C488.8,146.5 708.3,146.5 708.3,171.5L711,171.5C711,146.5 491.5,146.5 491.5,121.5Z" style="fill:#eb6834"/></g><g style="fill-opacity:0.32"><title>worst concave points ≤ 0.136: ≤ 0.136  →  333 samples</title><path d="M132,293C132,318 55.9,318 55.9,343L57.4,343C57.4,318 133.6,318 133.6,293Z" style="fill:#2a78d6"/><path d="M133.6,293C133.6,318 57.4,318 57.4,343L126.1,343C126.1,318 202.3,318 202.3,293Z" style="fill:#eb6834"/></g><g style="fill-opacity:0.32"><title>worst concave points ≤ 0.136: &gt; 0.136  →  46 samples</title><path d="M202.3,293C202.3,318 248.1,318 248.1,343L254,343C254,318 208.1,318 208.1,293Z" style="fill:#2a78d6"/><path d="M208.1,293C208.1,318 254,318 254,343L257.9,343C257.9,318 212,318 212,293Z" style="fill:#eb6834"/></g><g style="fill-opacity:0.32"><title>worst texture ≤ 25.7: ≤ 25.7  →  19 samples</title><path d="M248.1,464.5C248.1,489.5 121,489.5 121,514.5L122.1,514.5C122.1,489.5 249.2,489.5 249.2,464.5Z" style="fill:#2a78d6"/><path d="M249.2,464.5C249.2,489.5 122.1,489.5 122.1,514.5L125,514.5C125,489.5 252.2,489.5 252.2,464.5Z" style="fill:#eb6834"/></g><g style="fill-opacity:0.32"><title>worst texture ≤ 25.7: &gt; 25.7  →  27 samples</title><path d="M252.2,464.5C252.2,489.5 380.2,489.5 380.2,514.5L384.9,514.5C384.9,489.5 256.9,489.5 256.9,464.5Z" style="fill:#2a78d6"/><path d="M256.9,464.5C256.9,489.5 384.9,489.5 384.9,514.5L385.8,514.5C385.8,489.5 257.9,489.5 257.9,464.5Z" style="fill:#eb6834"/></g><g style="fill-opacity:0.32"><title>worst area ≤ 810: ≤ 810  →  15 samples</title><path d="M121,636C121,661 56.4,661 56.4,686L57,686C57,661 121.6,661 121.6,636Z" style="fill:#2a78d6"/><path d="M121.6,636C121.6,661 57,661 57,686L59.6,686C59.6,661 124.2,661 124.2,636Z" style="fill:#eb6834"/></g><g style="fill-opacity:0.32"><title>worst area ≤ 810: &gt; 810  →  4 samples</title><path d="M124.2,636C124.2,661 187.2,661 187.2,686L188.2,686C188.2,661 124.7,661 124.7,636Z" style="fill:#2a78d6"/><path d="M124.7,636C124.7,661 188.2,661 188.2,686L188.8,686C188.8,661 125,661 125,636Z" style="fill:#eb6834"/></g><g style="fill-opacity:0.32"><title>mean concave points ≤ 0.0541: ≤ 0.0541  →  6 samples</title><path d="M380.2,636C380.2,661 317.2,661 317.2,686L318.1,686C318.1,661 380.8,661 380.8,636Z" style="fill:#2a78d6"/><path d="M380.8,636C380.8,661 318.1,661 318.1,686L318.8,686C318.8,661 381.4,661 381.4,636Z" style="fill:#eb6834"/></g><g style="fill-opacity:0.32"><title>mean concave points ≤ 0.0541: &gt; 0.0541  →  21 samples</title><path d="M381.4,636C381.4,661 445.8,661 445.8,686L449.8,686C449.8,661 385.5,661 385.5,636Z" style="fill:#2a78d6"/><path d="M385.5,636C385.5,661 449.8,661 449.8,686L450.2,686C450.2,661 385.8,661 385.8,636Z" style="fill:#eb6834"/></g><g style="fill-opacity:0.32"><title>mean texture ≤ 16.1: ≤ 16.1  →  17 samples</title><path d="M671,293C671,318 608.2,318 608.2,343L609.9,343C609.9,318 672.7,318 672.7,293Z" style="fill:#2a78d6"/><path d="M672.7,293C672.7,318 609.9,318 609.9,343L611.8,343C611.8,318 674.6,318 674.6,293Z" style="fill:#eb6834"/></g><g style="fill-opacity:0.32"><title>mean texture ≤ 16.1: &gt; 16.1  →  173 samples</title><path d="M674.6,293C674.6,318 753.8,318 753.8,343L789.4,343C789.4,318 710.2,318 710.2,293Z" style="fill:#2a78d6"/><path d="M710.2,293C710.2,318 789.4,318 789.4,343L790.2,343C790.2,318 711,318 711,293Z" style="fill:#eb6834"/></g><g style="fill-opacity:0.32"><title>concavity error ≤ 0.0337: ≤ 0.0337  →  9 samples</title><path d="M608.2,464.5C608.2,489.5 544.1,489.5 544.1,514.5L544.4,514.5C544.4,489.5 608.6,489.5 608.6,464.5Z" style="fill:#2a78d6"/><path d="M608.6,464.5C608.6,489.5 544.4,489.5 544.4,514.5L545.9,514.5C545.9,489.5 610.1,489.5 610.1,464.5Z" style="fill:#eb6834"/></g><g style="fill-opacity:0.32"><title>concavity error ≤ 0.0337: &gt; 0.0337  →  8 samples</title><path d="M610.1,464.5C610.1,489.5 674.2,489.5 674.2,514.5L675.5,514.5C675.5,489.5 611.5,489.5 611.5,464.5Z" style="fill:#2a78d6"/><path d="M611.5,464.5C611.5,489.5 675.5,489.5 675.5,514.5L675.8,514.5C675.8,489.5 611.8,489.5 611.8,464.5Z" style="fill:#eb6834"/></g><g transform="translate(341.5,0)"><title>worst radius ≤ 16.8
569 samples  ·  gini 0.468</title><rect class="dti-frame" width="180" height="121.5" rx="10" filter="url(#dti35-sh)" style="fill:#ffffff;stroke:#e4e3dd;stroke-width:1"/><text x="10" y="20.5" style="font-size:13px;font-weight:600;fill:#0b0b0b">worst radius</text><path d="M10.8,77V76.3Q10.8,74.3 12.8,74.3H13.9Q15.9,74.3 15.9,76.3V77Z" style="fill:#eb6834"/><path d="M17.4,77V71.4Q17.4,69.4 19.4,69.4H20.6Q22.6,69.4 22.6,71.4V77Z" style="fill:#eb6834"/><path d="M24.1,77V60.6Q24.1,58.6 26.1,58.6H27.3Q29.3,58.6 29.3,60.6V77Z" style="fill:#eb6834"/><path d="M30.8,77V54.3Q30.8,52.3 32.8,52.3H33.9Q35.9,52.3 35.9,54.3V77Z" style="fill:#eb6834"/><path d="M37.4,77V75.2H42.6V77Z" style="fill:#2a78d6"/><path d="M37.4,75.2V35Q37.4,33 39.4,33H40.6Q42.6,33 42.6,35V75.2Z" style="fill:#eb6834"/><path d="M44.1,77V76.1H49.2V77Z" style="fill:#2a78d6"/><path d="M44.1,76.1V49.4Q44.1,47.4 46.1,47.4H47.2Q49.2,47.4 49.2,49.4V76.1Z" style="fill:#eb6834"/><path d="M50.8,77V69.4H55.9V77Z" style="fill:#2a78d6"/><path d="M50.8,69.4V50.3Q50.8,48.3 52.8,48.3H53.9Q55.9,48.3 55.9,50.3V69.4Z" style="fill:#eb6834"/><path d="M57.4,77V68H62.6V77Z" style="fill:#2a78d6"/><path d="M57.4,68V58.3Q57.4,56.3 59.4,56.3H60.6Q62.6,56.3 62.6,58.3V68Z" style="fill:#eb6834"/><path d="M64.1,77V67.1H69.3V77Z" style="fill:#2a78d6"/><path d="M64.1,67.1V66.4Q64.1,64.4 66.1,64.4H67.3Q69.3,64.4 69.3,66.4V67.1Z" style="fill:#eb6834"/><path d="M70.8,77V70.9Q70.8,68.9 72.8,68.9H73.9Q75.9,68.9 75.9,70.9V77Z" style="fill:#2a78d6"/><path d="M77.4,77V65.8H82.6V77Z" style="fill:#2a78d6"/><path d="M77.4,65.8V65.8Q77.4,65.3 77.9,65.3H82.1Q82.6,65.3 82.6,65.8V65.8Z" style="fill:#eb6834"/><path d="M84.1,77V70.9Q84.1,68.9 86.1,68.9H87.3Q89.3,68.9 89.3,70.9V77Z" style="fill:#2a78d6"/><path d="M90.8,77V69.6Q90.8,67.6 92.8,67.6H93.9Q95.9,67.6 95.9,69.6V77Z" style="fill:#2a78d6"/><path d="M97.4,77V69.1Q97.4,67.1 99.4,67.1H100.6Q102.6,67.1 102.6,69.1V77Z" style="fill:#2a78d6"/><path d="M104.1,77V73.2Q104.1,71.2 106.1,71.2H107.3Q109.3,71.2 109.3,73.2V77Z" style="fill:#2a78d6"/><path d="M110.8,77V74.5Q110.8,72.5 112.8,72.5H113.9Q115.9,72.5 115.9,74.5V77Z" style="fill:#2a78d6"/><path d="M117.4,77V77Q117.4,75.2 119.2,75.2H120.8Q122.6,75.2 122.6,77V77Z" style="fill:#2a78d6"/><path d="M124.1,77V76.8Q124.1,74.8 126.1,74.8H127.2Q129.2,74.8 129.2,76.8V77Z" style="fill:#2a78d6"/><path d="M130.8,77V77Q130.8,75.7 132.1,75.7H134.6Q135.9,75.7 135.9,77V77Z" style="fill:#2a78d6"/><path d="M137.4,77V77Q137.4,75.2 139.2,75.2H140.8Q142.6,75.2 142.6,77V77Z" style="fill:#2a78d6"/><path d="M144.1,77V77Q144.1,76.6 144.5,76.6H148.8Q149.2,76.6 149.2,77V77Z" style="fill:#2a78d6"/><path d="M150.8,77V77Q150.8,76.1 151.6,76.1H155Q155.9,76.1 155.9,77V77Z" style="fill:#2a78d6"/><path d="M164.1,77V77Q164.1,76.6 164.5,76.6H168.8Q169.2,76.6 169.2,77V77Z" style="fill:#2a78d6"/><line x1="10" y1="77.5" x2="170" y2="77.5" style="stroke:#c3c2b7;stroke-width:1"/><path d="M60.5,79l4.5,6h-9z" style="fill:#0b0b0b"/><text x="60.5" y="96" text-anchor="middle" style="font-size:10.5px;font-weight:600;fill:#0b0b0b">16.8</text><text x="10" y="96" style="font-size:10px;font-weight:400;fill:#898781">7.93</text><text x="170" y="96" text-anchor="end" style="font-size:10px;font-weight:400;fill:#898781">36</text><text x="10" y="109.5" style="font-size:10.5px;font-weight:400;fill:#898781;font-variant-numeric:tabular-nums">569 samples  ·  gini 0.468</text></g><g transform="translate(82,171.5)"><title>worst concave points ≤ 0.136
379 samples  ·  gini 0.159</title><rect class="dti-frame" width="180" height="121.5" rx="10" filter="url(#dti35-sh)" style="fill:#ffffff;stroke:#e4e3dd;stroke-width:1"/><text x="10" y="20.5" style="font-size:13px;font-weight:600;fill:#0b0b0b">worst concave points</text><path d="M10.8,77V65.2Q10.8,63.2 12.8,63.2H13.9Q15.9,63.2 15.9,65.2V77Z" style="fill:#eb6834"/><path d="M17.4,77V72.1Q17.4,70.1 19.4,70.1H20.6Q22.6,70.1 22.6,72.1V77Z" style="fill:#eb6834"/><path d="M24.1,77V76.1H29.3V77Z" style="fill:#2a78d6"/><path d="M24.1,76.1V59.2Q24.1,57.2 26.1,57.2H27.3Q29.3,57.2 29.3,59.2V76.1Z" style="fill:#eb6834"/><path d="M30.8,77V61.7Q30.8,59.7 32.8,59.7H33.9Q35.9,59.7 35.9,61.7V77Z" style="fill:#eb6834"/><path d="M37.4,77V54.8Q37.4,52.8 39.4,52.8H40.6Q42.6,52.8 42.6,54.8V77Z" style="fill:#eb6834"/><path d="M44.1,77V38.5Q44.1,36.5 46.1,36.5H47.2Q49.2,36.5 49.2,38.5V77Z" style="fill:#eb6834"/><path d="M50.8,77V76.1H55.9V77Z" style="fill:#2a78d6"/><path d="M50.8,76.1V43.6Q50.8,41.6 52.8,41.6H53.9Q55.9,41.6 55.9,43.6V76.1Z" style="fill:#eb6834"/><path d="M57.4,77V35Q57.4,33 59.4,33H60.6Q62.6,33 62.6,35V77Z" style="fill:#eb6834"/><path d="M64.1,77V76.1H69.3V77Z" style="fill:#2a78d6"/><path d="M64.1,76.1V53.1Q64.1,51.1 66.1,51.1H67.3Q69.3,51.1 69.3,53.1V76.1Z" style="fill:#eb6834"/><path d="M70.8,77V52.3Q70.8,50.3 72.8,50.3H73.9Q75.9,50.3 75.9,52.3V77Z" style="fill:#eb6834"/><path d="M77.4,77V76.1H82.6V77Z" style="fill:#2a78d6"/><path d="M77.4,76.1V62.6Q77.4,60.6 79.4,60.6H80.6Q82.6,60.6 82.6,62.6V76.1Z" style="fill:#eb6834"/><path d="M84.1,77V76.1H89.3V77Z" style="fill:#2a78d6"/><path d="M84.1,76.1V69.5Q84.1,67.5 86.1,67.5H87.3Q89.3,67.5 89.3,69.5V76.1Z" style="fill:#eb6834"/><path d="M90.8,77V73.5H95.9V77Z" style="fill:#2a78d6"/><path d="M90.8,73.5V67.8Q90.8,65.8 92.8,65.8H93.9Q95.9,65.8 95.9,67.8V73.5Z" style="fill:#eb6834"/><path d="M97.4,77V73.5H102.6V77Z" style="fill:#2a78d6"/><path d="M97.4,73.5V66.9Q97.4,64.9 99.4,64.9H100.6Q102.6,64.9 102.6,66.9V73.5Z" style="fill:#eb6834"/><path d="M104.1,77V74.4H109.3V77Z" style="fill:#2a78d6"/><path d="M104.1,74.4V72.1Q104.1,70.1 106.1,70.1H107.3Q109.3,70.1 109.3,72.1V74.4Z" style="fill:#eb6834"/><path d="M110.8,77V75.3H115.9V77Z" style="fill:#2a78d6"/><path d="M110.8,75.3V75.3Q110.8,74.4 111.6,74.4H115.1Q115.9,74.4 115.9,75.3V75.3Z" style="fill:#eb6834"/><path d="M117.4,77V74.4H122.6V77Z" style="fill:#2a78d6"/><path d="M117.4,74.4V74.4Q117.4,73.5 118.3,73.5H121.7Q122.6,73.5 122.6,74.4V74.4Z" style="fill:#eb6834"/><path d="M124.1,77V77Q124.1,76.1 124.9,76.1H128.4Q129.2,76.1 129.2,77V77Z" style="fill:#2a78d6"/><path d="M130.8,77V77Q130.8,75.3 132.5,75.3H134.2Q135.9,75.3 135.9,77V77Z" style="fill:#2a78d6"/><path d="M137.4,77V76.4Q137.4,74.4 139.4,74.4H140.6Q142.6,74.4 142.6,76.4V77Z" style="fill:#2a78d6"/><path d="M144.1,77V77Q144.1,75.3 145.8,75.3H147.5Q149.2,75.3 149.2,77V77Z" style="fill:#2a78d6"/><path d="M150.8,77V77Q150.8,76.1 151.6,76.1H155.1Q155.9,76.1 155.9,77V77Z" style="fill:#2a78d6"/><path d="M164.1,77V76.4Q164.1,74.4 166.1,74.4H167.2Q169.2,74.4 169.2,76.4V77Z" style="fill:#2a78d6"/><line x1="10" y1="77.5" x2="170" y2="77.5" style="stroke:#c3c2b7;stroke-width:1"/><path d="M94.4,79l4.5,6h-9z" style="fill:#0b0b0b"/><text x="94.4" y="96" text-anchor="middle" style="font-size:10.5px;font-weight:600;fill:#0b0b0b">0.136</text><text x="10" y="96" style="font-size:10px;font-weight:400;fill:#898781">0</text><text x="170" y="96" text-anchor="end" style="font-size:10px;font-weight:400;fill:#898781">0.258</text><text x="10" y="109.5" style="font-size:10.5px;font-weight:400;fill:#898781;font-variant-numeric:tabular-nums">379 samples  ·  gini 0.159</text></g><g transform="translate(33,343)"><title>benign
333 samples  ·  gini 0.0296
malignant: 7.26
benign: 326</title><rect class="dti-frame" width="116" height="65.5" rx="10" filter="url(#dti35-sh)" style="fill:#ffffff;stroke:#e4e3dd;stroke-width:1"/><clipPath id="dti35-cc3"><rect width="116" height="65.5" rx="10"/></clipPath><g clip-path="url(#dti35-cc3)"><rect width="116" height="65.5" style="fill:#eb6834;fill-opacity:0.07"/><rect width="116" height="4" style="fill:#eb6834"/></g><circle cx="14.5" cy="18.2" r="4.5" style="fill:#eb6834"/><text x="25" y="23" style="font-size:13.5px;font-weight:600;fill:#0b0b0b">benign</text><text x="10" y="40.5" style="font-size:11px;font-weight:400;fill:#52514e;font-variant-numeric:tabular-nums">98% of 333</text><clipPath id="dti35-cb3"><rect x="10" y="49.5" width="96" height="6" rx="3"/></clipPath><g clip-path="url(#dti35-cb3)"><rect x="10" y="49.5" width="96" height="6" style="fill:#e1e0d9"/><rect x="10" y="49.5" width="2" height="6" style="fill:#2a78d6"/><rect x="14" y="49.5" width="92" height="6" style="fill:#eb6834"/></g></g><g transform="translate(163,343)"><title>worst texture ≤ 25.7
46 samples  ·  gini 0.476</title><rect class="dti-frame" width="180" height="121.5" rx="10" filter="url(#dti35-sh)" style="fill:#ffffff;stroke:#e4e3dd;stroke-width:1"/><text x="10" y="20.5" style="font-size:13px;font-weight:600;fill:#0b0b0b">worst texture</text><path d="M10.8,77V52.6Q10.8,50.6 12.8,50.6H13.9Q15.9,50.6 15.9,52.6V77Z" style="fill:#eb6834"/><path d="M17.4,77V61.4Q17.4,59.4 19.4,59.4H20.6Q22.6,59.4 22.6,61.4V77Z" style="fill:#eb6834"/><path d="M24.1,77V70.2Q24.1,68.2 26.1,68.2H27.3Q29.3,68.2 29.3,70.2V77Z" style="fill:#eb6834"/><path d="M30.8,77V68.2H35.9V77Z" style="fill:#2a78d6"/><path d="M30.8,68.2V61.4Q30.8,59.4 32.8,59.4H33.9Q35.9,59.4 35.9,61.4V68.2Z" style="fill:#eb6834"/><path d="M37.4,77V59.4H42.6V77Z" style="fill:#2a78d6"/><path d="M37.4,59.4V52.6Q37.4,50.6 39.4,50.6H40.6Q42.6,50.6 42.6,52.6V59.4Z" style="fill:#eb6834"/><path d="M44.1,77V52.6Q44.1,50.6 46.1,50.6H47.2Q49.2,50.6 49.2,52.6V77Z" style="fill:#eb6834"/><path d="M50.8,77V68.2H55.9V77Z" style="fill:#2a78d6"/><path d="M50.8,68.2V61.4Q50.8,59.4 52.8,59.4H53.9Q55.9,59.4 55.9,61.4V68.2Z" style="fill:#eb6834"/><path d="M57.4,77V70.2Q57.4,68.2 59.4,68.2H60.6Q62.6,68.2 62.6,70.2V77Z" style="fill:#eb6834"/><path d="M64.1,77V59.4H69.3V77Z" style="fill:#2a78d6"/><path d="M64.1,59.4V35Q64.1,33 66.1,33H67.3Q69.3,33 69.3,35V59.4Z" style="fill:#eb6834"/><path d="M70.8,77V50.6H75.9V77Z" style="fill:#2a78d6"/><path d="M70.8,50.6V35Q70.8,33 72.8,33H73.9Q75.9,33 75.9,35V50.6Z" style="fill:#eb6834"/><path d="M77.4,77V52.6Q77.4,50.6 79.4,50.6H80.6Q82.6,50.6 82.6,52.6V77Z" style="fill:#2a78d6"/><path d="M90.8,77V61.4Q90.8,59.4 92.8,59.4H93.9Q95.9,59.4 95.9,61.4V77Z" style="fill:#2a78d6"/><path d="M97.4,77V43.8Q97.4,41.8 99.4,41.8H100.6Q102.6,41.8 102.6,43.8V77Z" style="fill:#2a78d6"/><path d="M104.1,77V61.4Q104.1,59.4 106.1,59.4H107.3Q109.3,59.4 109.3,61.4V77Z" style="fill:#2a78d6"/><path d="M110.8,77V61.4Q110.8,59.4 112.8,59.4H113.9Q115.9,59.4 115.9,61.4V77Z" style="fill:#2a78d6"/><path d="M124.1,77V61.4Q124.1,59.4 126.1,59.4H127.2Q129.2,59.4 129.2,61.4V77Z" style="fill:#2a78d6"/><path d="M130.8,77V70.2Q130.8,68.2 132.8,68.2H133.9Q135.9,68.2 135.9,70.2V77Z" style="fill:#2a78d6"/><path d="M144.1,77V70.2Q144.1,68.2 146.1,68.2H147.2Q149.2,68.2 149.2,70.2V77Z" style="fill:#2a78d6"/><path d="M157.4,77V70.2Q157.4,68.2 159.4,68.2H160.6Q162.6,68.2 162.6,70.2V77Z" style="fill:#2a78d6"/><path d="M164.1,77V70.2Q164.1,68.2 166.1,68.2H167.2Q169.2,68.2 169.2,70.2V77Z" style="fill:#2a78d6"/><line x1="10" y1="77.5" x2="170" y2="77.5" style="stroke:#c3c2b7;stroke-width:1"/><path d="M65.5,79l4.5,6h-9z" style="fill:#0b0b0b"/><text x="65.5" y="96" text-anchor="middle" style="font-size:10.5px;font-weight:600;fill:#0b0b0b">25.7</text><text x="10" y="96" style="font-size:10px;font-weight:400;fill:#898781">17.7</text><text x="170" y="96" text-anchor="end" style="font-size:10px;font-weight:400;fill:#898781">40.7</text><text x="10" y="109.5" style="font-size:10.5px;font-weight:400;fill:#898781;font-variant-numeric:tabular-nums">46 samples  ·  gini 0.476</text></g><g transform="translate(33,514.5)"><title>worst area ≤ 810
19 samples  ·  gini 0.332</title><rect class="dti-frame" width="180" height="121.5" rx="10" filter="url(#dti35-sh)" style="fill:#ffffff;stroke:#e4e3dd;stroke-width:1"/><text x="10" y="20.5" style="font-size:13px;font-weight:600;fill:#0b0b0b">worst area</text><path d="M10.8,77V64.3Q10.8,62.3 12.8,62.3H13.9Q15.9,62.3 15.9,64.3V77Z" style="fill:#eb6834"/><path d="M17.4,77V64.3Q17.4,62.3 19.4,62.3H20.6Q22.6,62.3 22.6,64.3V77Z" style="fill:#eb6834"/><path d="M24.1,77V64.3Q24.1,62.3 26.1,62.3H27.3Q29.3,62.3 29.3,64.3V77Z" style="fill:#eb6834"/><path d="M70.8,77V64.3Q70.8,62.3 72.8,62.3H73.9Q75.9,62.3 75.9,64.3V77Z" style="fill:#eb6834"/><path d="M90.8,77V64.3Q90.8,62.3 92.8,62.3H93.9Q95.9,62.3 95.9,64.3V77Z" style="fill:#eb6834"/><path d="M97.4,77V64.3Q97.4,62.3 99.4,62.3H100.6Q102.6,62.3 102.6,64.3V77Z" style="fill:#eb6834"/><path d="M104.1,77V64.3Q104.1,62.3 106.1,62.3H107.3Q109.3,62.3 109.3,64.3V77Z" style="fill:#eb6834"/><path d="M124.1,77V35Q124.1,33 126.1,33H127.2Q129.2,33 129.2,35V77Z" style="fill:#eb6834"/><path d="M130.8,77V64.3Q130.8,62.3 132.8,62.3H133.9Q135.9,62.3 135.9,64.3V77Z" style="fill:#2a78d6"/><path d="M137.4,77V49.7Q137.4,47.7 139.4,47.7H140.6Q142.6,47.7 142.6,49.7V77Z" style="fill:#eb6834"/><path d="M150.8,77V62.3H155.9V77Z" style="fill:#2a78d6"/><path d="M150.8,62.3V35Q150.8,33 152.8,33H153.9Q155.9,33 155.9,35V62.3Z" style="fill:#eb6834"/><path d="M157.4,77V49.7Q157.4,47.7 159.4,47.7H160.6Q162.6,47.7 162.6,49.7V77Z" style="fill:#2a78d6"/><path d="M164.1,77V64.3Q164.1,62.3 166.1,62.3H167.2Q169.2,62.3 169.2,64.3V77Z" style="fill:#eb6834"/><line x1="10" y1="77.5" x2="170" y2="77.5" style="stroke:#c3c2b7;stroke-width:1"/><path d="M154.6,79l4.5,6h-9z" style="fill:#0b0b0b"/><text x="154.6" y="96" text-anchor="middle" style="font-size:10.5px;font-weight:600;fill:#0b0b0b">810</text><text x="10" y="96" style="font-size:10px;font-weight:400;fill:#898781">325</text><text x="10" y="109.5" style="font-size:10.5px;font-weight:400;fill:#898781;font-variant-numeric:tabular-nums">19 samples  ·  gini 0.332</text></g><g transform="translate(0,686)"><title>benign
15 samples  ·  gini 0.124
malignant: 2.68
benign: 12.3</title><rect class="dti-frame" width="116" height="65.5" rx="10" filter="url(#dti35-sh)" style="fill:#ffffff;stroke:#e4e3dd;stroke-width:1"/><clipPath id="dti35-cc11"><rect width="116" height="65.5" rx="10"/></clipPath><g clip-path="url(#dti35-cc11)"><rect width="116" height="65.5" style="fill:#eb6834;fill-opacity:0.07"/><rect width="116" height="4" style="fill:#eb6834"/></g><circle cx="14.5" cy="18.2" r="4.5" style="fill:#eb6834"/><text x="25" y="23" style="font-size:13.5px;font-weight:600;fill:#0b0b0b">benign</text><text x="10" y="40.5" style="font-size:11px;font-weight:400;fill:#52514e;font-variant-numeric:tabular-nums">82% of 15</text><clipPath id="dti35-cb11"><rect x="10" y="49.5" width="96" height="6" rx="3"/></clipPath><g clip-path="url(#dti35-cb11)"><rect x="10" y="49.5" width="96" height="6" style="fill:#e1e0d9"/><rect x="10" y="49.5" width="16.8" height="6" style="fill:#2a78d6"/><rect x="28.8" y="49.5" width="77.2" height="6" style="fill:#eb6834"/></g></g><g transform="translate(130,686)"><title>malignant
4 samples  ·  gini 0.375
malignant: 2.51
benign: 1.49</title><rect class="dti-frame" width="116" height="65.5" rx="10" filter="url(#dti35-sh)" style="fill:#ffffff;stroke:#e4e3dd;stroke-width:1"/><clipPath id="dti35-cc12"><rect width="116" height="65.5" rx="10"/></clipPath><g clip-path="url(#dti35-cc12)"><rect width="116" height="65.5" style="fill:#2a78d6;fill-opacity:0.07"/><rect width="116" height="4" style="fill:#2a78d6"/></g><circle cx="14.5" cy="18.2" r="4.5" style="fill:#2a78d6"/><text x="25" y="23" style="font-size:13.5px;font-weight:600;fill:#0b0b0b">malignant</text><text x="10" y="40.5" style="font-size:11px;font-weight:400;fill:#52514e;font-variant-numeric:tabular-nums">63% of 4</text><clipPath id="dti35-cb12"><rect x="10" y="49.5" width="96" height="6" rx="3"/></clipPath><g clip-path="url(#dti35-cb12)"><rect x="10" y="49.5" width="96" height="6" style="fill:#e1e0d9"/><rect x="10" y="49.5" width="58.9" height="6" style="fill:#2a78d6"/><rect x="70.9" y="49.5" width="35.1" height="6" style="fill:#eb6834"/></g></g><g transform="translate(293,514.5)"><title>mean concave points ≤ 0.0541
27 samples  ·  gini 0.198</title><rect class="dti-frame" width="180" height="121.5" rx="10" filter="url(#dti35-sh)" style="fill:#ffffff;stroke:#e4e3dd;stroke-width:1"/><text x="10" y="20.5" style="font-size:13px;font-weight:600;fill:#0b0b0b">mean concave points</text><path d="M10.8,77V68Q10.8,66 12.8,66H13.9Q15.9,66 15.9,68V77Z" style="fill:#eb6834"/><path d="M30.8,77V68Q30.8,66 32.8,66H33.9Q35.9,66 35.9,68V77Z" style="fill:#2a78d6"/><path d="M37.4,77V68Q37.4,66 39.4,66H40.6Q42.6,66 42.6,68V77Z" style="fill:#eb6834"/><path d="M44.1,77V57Q44.1,55 46.1,55H47.2Q49.2,55 49.2,57V77Z" style="fill:#2a78d6"/><path d="M50.8,77V44H55.9V77Z" style="fill:#2a78d6"/><path d="M50.8,44V35Q50.8,33 52.8,33H53.9Q55.9,33 55.9,35V44Z" style="fill:#eb6834"/><path d="M57.4,77V57Q57.4,55 59.4,55H60.6Q62.6,55 62.6,57V77Z" style="fill:#2a78d6"/><path d="M64.1,77V68Q64.1,66 66.1,66H67.3Q69.3,66 69.3,68V77Z" style="fill:#2a78d6"/><path d="M70.8,77V68Q70.8,66 72.8,66H73.9Q75.9,66 75.9,68V77Z" style="fill:#2a78d6"/><path d="M77.4,77V46Q77.4,44 79.4,44H80.6Q82.6,44 82.6,46V77Z" style="fill:#2a78d6"/><path d="M84.1,77V68Q84.1,66 86.1,66H87.3Q89.3,66 89.3,68V77Z" style="fill:#2a78d6"/><path d="M90.8,77V68Q90.8,66 92.8,66H93.9Q95.9,66 95.9,68V77Z" style="fill:#2a78d6"/><path d="M97.4,77V57Q97.4,55 99.4,55H100.6Q102.6,55 102.6,57V77Z" style="fill:#2a78d6"/><path d="M110.8,77V57Q110.8,55 112.8,55H113.9Q115.9,55 115.9,57V77Z" style="fill:#2a78d6"/><path d="M124.1,77V68Q124.1,66 126.1,66H127.2Q129.2,66 129.2,68V77Z" style="fill:#2a78d6"/><path d="M130.8,77V68Q130.8,66 132.8,66H133.9Q135.9,66 135.9,68V77Z" style="fill:#2a78d6"/><path d="M137.4,77V68Q137.4,66 139.4,66H140.6Q142.6,66 142.6,68V77Z" style="fill:#2a78d6"/><path d="M150.8,77V68Q150.8,66 152.8,66H153.9Q155.9,66 155.9,68V77Z" style="fill:#2a78d6"/><path d="M164.1,77V68Q164.1,66 166.1,66H167.2Q169.2,66 169.2,68V77Z" style="fill:#2a78d6"/><line x1="10" y1="77.5" x2="170" y2="77.5" style="stroke:#c3c2b7;stroke-width:1"/><path d="M51.6,79l4.5,6h-9z" style="fill:#0b0b0b"/><text x="51.6" y="96" text-anchor="middle" style="font-size:10.5px;font-weight:600;fill:#0b0b0b">0.0541</text><text x="170" y="96" text-anchor="end" style="font-size:10px;font-weight:400;fill:#898781">0.105</text><text x="10" y="109.5" style="font-size:10.5px;font-weight:400;fill:#898781;font-variant-numeric:tabular-nums">27 samples  ·  gini 0.198</text></g><g transform="translate(260,686)"><title>malignant
6 samples  ·  gini 0.5
malignant: 3.28
benign: 2.72</title><rect class="dti-frame" width="116" height="65.5" rx="10" filter="url(#dti35-sh)" style="fill:#ffffff;stroke:#e4e3dd;stroke-width:1"/><clipPath id="dti35-cc13"><rect width="116" height="65.5" rx="10"/></clipPath><g clip-path="url(#dti35-cc13)"><rect width="116" height="65.5" style="fill:#2a78d6;fill-opacity:0.07"/><rect width="116" height="4" style="fill:#2a78d6"/></g><circle cx="14.5" cy="18.2" r="4.5" style="fill:#2a78d6"/><text x="25" y="23" style="font-size:13.5px;font-weight:600;fill:#0b0b0b">malignant</text><text x="10" y="40.5" style="font-size:11px;font-weight:400;fill:#52514e;font-variant-numeric:tabular-nums">55% of 6</text><clipPath id="dti35-cb13"><rect x="10" y="49.5" width="96" height="6" rx="3"/></clipPath><g clip-path="url(#dti35-cb13)"><rect x="10" y="49.5" width="96" height="6" style="fill:#e1e0d9"/><rect x="10" y="49.5" width="51.4" height="6" style="fill:#2a78d6"/><rect x="63.4" y="49.5" width="42.6" height="6" style="fill:#eb6834"/></g></g><g transform="translate(390,686)"><title>malignant
21 samples  ·  gini 0
malignant: 19.1
benign: 1.86</title><rect class="dti-frame" width="116" height="65.5" rx="10" filter="url(#dti35-sh)" style="fill:#ffffff;stroke:#e4e3dd;stroke-width:1"/><clipPath id="dti35-cc14"><rect width="116" height="65.5" rx="10"/></clipPath><g clip-path="url(#dti35-cc14)"><rect width="116" height="65.5" style="fill:#2a78d6;fill-opacity:0.07"/><rect width="116" height="4" style="fill:#2a78d6"/></g><circle cx="14.5" cy="18.2" r="4.5" style="fill:#2a78d6"/><text x="25" y="23" style="font-size:13.5px;font-weight:600;fill:#0b0b0b">malignant</text><text x="10" y="40.5" style="font-size:11px;font-weight:400;fill:#52514e;font-variant-numeric:tabular-nums">91% of 21</text><clipPath id="dti35-cb14"><rect x="10" y="49.5" width="96" height="6" rx="3"/></clipPath><g clip-path="url(#dti35-cb14)"><rect x="10" y="49.5" width="96" height="6" style="fill:#e1e0d9"/><rect x="10" y="49.5" width="85.7" height="6" style="fill:#2a78d6"/><rect x="97.7" y="49.5" width="8.3" height="6" style="fill:#eb6834"/></g></g><g transform="translate(601,171.5)"><title>mean texture ≤ 16.1
190 samples  ·  gini 0.109</title><rect class="dti-frame" width="180" height="121.5" rx="10" filter="url(#dti35-sh)" style="fill:#ffffff;stroke:#e4e3dd;stroke-width:1"/><text x="10" y="20.5" style="font-size:13px;font-weight:600;fill:#0b0b0b">mean texture</text><path d="M10.8,77V75.6H15.9V77Z" style="fill:#2a78d6"/><path d="M10.8,75.6V75.6Q10.8,74.2 12.2,74.2H14.5Q15.9,74.2 15.9,75.6V75.6Z" style="fill:#eb6834"/><path d="M17.4,77V77Q17.4,75.6 18.8,75.6H21.2Q22.6,75.6 22.6,77V77Z" style="fill:#2a78d6"/><path d="M24.1,77V74.7Q24.1,72.7 26.1,72.7H27.3Q29.3,72.7 29.3,74.7V77Z" style="fill:#eb6834"/><path d="M30.8,77V71.3H35.9V77Z" style="fill:#2a78d6"/><path d="M30.8,71.3V69.1Q30.8,67.1 32.8,67.1H33.9Q35.9,67.1 35.9,69.1V71.3Z" style="fill:#eb6834"/><path d="M37.4,77V71.3H42.6V77Z" style="fill:#2a78d6"/><path d="M37.4,71.3V70.5Q37.4,68.5 39.4,68.5H40.6Q42.6,68.5 42.6,70.5V71.3Z" style="fill:#eb6834"/><path d="M44.1,77V62Q44.1,60 46.1,60H47.2Q49.2,60 49.2,62V77Z" style="fill:#2a78d6"/><path d="M50.8,77V57.1H55.9V77Z" style="fill:#2a78d6"/><path d="M50.8,57.1V57.1Q50.8,55.7 52.2,55.7H54.5Q55.9,55.7 55.9,57.1V57.1Z" style="fill:#eb6834"/><path d="M57.4,77V41.5H62.6V77Z" style="fill:#2a78d6"/><path d="M57.4,41.5V41.5Q57.4,40.1 58.8,40.1H61.2Q62.6,40.1 62.6,41.5V41.5Z" style="fill:#eb6834"/><path d="M64.1,77V43.5Q64.1,41.5 66.1,41.5H67.3Q69.3,41.5 69.3,43.5V77Z" style="fill:#2a78d6"/><path d="M70.8,77V35Q70.8,33 72.8,33H73.9Q75.9,33 75.9,35V77Z" style="fill:#2a78d6"/><path d="M77.4,77V62Q77.4,60 79.4,60H80.6Q82.6,60 82.6,62V77Z" style="fill:#2a78d6"/><path d="M84.1,77V54.9Q84.1,52.9 86.1,52.9H87.3Q89.3,52.9 89.3,54.9V77Z" style="fill:#2a78d6"/><path d="M90.8,77V64.8Q90.8,62.8 92.8,62.8H93.9Q95.9,62.8 95.9,64.8V77Z" style="fill:#2a78d6"/><path d="M97.4,77V64.8Q97.4,62.8 99.4,62.8H100.6Q102.6,62.8 102.6,64.8V77Z" style="fill:#2a78d6"/><path d="M104.1,77V71.9Q104.1,69.9 106.1,69.9H107.3Q109.3,69.9 109.3,71.9V77Z" style="fill:#2a78d6"/><path d="M110.8,77V76.2Q110.8,74.2 112.8,74.2H113.9Q115.9,74.2 115.9,76.2V77Z" style="fill:#2a78d6"/><path d="M117.4,77V76.2Q117.4,74.2 119.4,74.2H120.6Q122.6,74.2 122.6,76.2V77Z" style="fill:#2a78d6"/><path d="M124.1,77V77Q124.1,75.6 125.5,75.6H127.8Q129.2,75.6 129.2,77V77Z" style="fill:#2a78d6"/><path d="M130.8,77V77Q130.8,75.6 132.2,75.6H134.5Q135.9,75.6 135.9,77V77Z" style="fill:#2a78d6"/><path d="M137.4,77V77Q137.4,75.6 138.8,75.6H141.2Q142.6,75.6 142.6,77V77Z" style="fill:#2a78d6"/><path d="M164.1,77V77Q164.1,75.6 165.5,75.6H167.8Q169.2,75.6 169.2,77V77Z" style="fill:#2a78d6"/><line x1="10" y1="77.5" x2="170" y2="77.5" style="stroke:#c3c2b7;stroke-width:1"/><path d="M41.7,79l4.5,6h-9z" style="fill:#0b0b0b"/><text x="41.7" y="96" text-anchor="middle" style="font-size:10.5px;font-weight:600;fill:#0b0b0b">16.1</text><text x="170" y="96" text-anchor="end" style="font-size:10px;font-weight:400;fill:#898781">39.3</text><text x="10" y="109.5" style="font-size:10.5px;font-weight:400;fill:#898781;font-variant-numeric:tabular-nums">190 samples  ·  gini 0.109</text></g><g transform="translate(520,343)"><title>concavity error ≤ 0.0337
17 samples  ·  gini 0.498</title><rect class="dti-frame" width="180" height="121.5" rx="10" filter="url(#dti35-sh)" style="fill:#ffffff;stroke:#e4e3dd;stroke-width:1"/><text x="10" y="20.5" style="font-size:13px;font-weight:600;fill:#0b0b0b">concavity error</text><path d="M10.8,77V68Q10.8,66 12.8,66H13.9Q15.9,66 15.9,68V77Z" style="fill:#eb6834"/><path d="M24.1,77V68Q24.1,66 26.1,66H27.3Q29.3,66 29.3,68V77Z" style="fill:#eb6834"/><path d="M30.8,77V35Q30.8,33 32.8,33H33.9Q35.9,33 35.9,35V77Z" style="fill:#eb6834"/><path d="M44.1,77V57Q44.1,55 46.1,55H47.2Q49.2,55 49.2,57V77Z" style="fill:#eb6834"/><path d="M70.8,77V68Q70.8,66 72.8,66H73.9Q75.9,66 75.9,68V77Z" style="fill:#eb6834"/><path d="M77.4,77V57Q77.4,55 79.4,55H80.6Q82.6,55 82.6,57V77Z" style="fill:#2a78d6"/><path d="M84.1,77V68Q84.1,66 86.1,66H87.3Q89.3,66 89.3,68V77Z" style="fill:#2a78d6"/><path d="M104.1,77V57Q104.1,55 106.1,55H107.3Q109.3,55 109.3,57V77Z" style="fill:#2a78d6"/><path d="M137.4,77V68Q137.4,66 139.4,66H140.6Q142.6,66 142.6,68V77Z" style="fill:#2a78d6"/><path d="M144.1,77V68Q144.1,66 146.1,66H147.2Q149.2,66 149.2,68V77Z" style="fill:#2a78d6"/><path d="M164.1,77V68Q164.1,66 166.1,66H167.2Q169.2,66 169.2,68V77Z" style="fill:#2a78d6"/><line x1="10" y1="77.5" x2="170" y2="77.5" style="stroke:#c3c2b7;stroke-width:1"/><path d="M77.1,79l4.5,6h-9z" style="fill:#0b0b0b"/><text x="77.1" y="96" text-anchor="middle" style="font-size:10.5px;font-weight:600;fill:#0b0b0b">0.0337</text><text x="10" y="96" style="font-size:10px;font-weight:400;fill:#898781">0.0115</text><text x="170" y="96" text-anchor="end" style="font-size:10px;font-weight:400;fill:#898781">0.0645</text><text x="10" y="109.5" style="font-size:10.5px;font-weight:400;fill:#898781;font-variant-numeric:tabular-nums">17 samples  ·  gini 0.498</text></g><g transform="translate(487,514.5)"><title>benign
9 samples  ·  gini 0
malignant: 1.69
benign: 7.31</title><rect class="dti-frame" width="116" height="65.5" rx="10" filter="url(#dti35-sh)" style="fill:#ffffff;stroke:#e4e3dd;stroke-width:1"/><clipPath id="dti35-cc9"><rect width="116" height="65.5" rx="10"/></clipPath><g clip-path="url(#dti35-cc9)"><rect width="116" height="65.5" style="fill:#eb6834;fill-opacity:0.07"/><rect width="116" height="4" style="fill:#eb6834"/></g><circle cx="14.5" cy="18.2" r="4.5" style="fill:#eb6834"/><text x="25" y="23" style="font-size:13.5px;font-weight:600;fill:#0b0b0b">benign</text><text x="10" y="40.5" style="font-size:11px;font-weight:400;fill:#52514e;font-variant-numeric:tabular-nums">81% of 9</text><clipPath id="dti35-cb9"><rect x="10" y="49.5" width="96" height="6" rx="3"/></clipPath><g clip-path="url(#dti35-cb9)"><rect x="10" y="49.5" width="96" height="6" style="fill:#e1e0d9"/><rect x="10" y="49.5" width="17.7" height="6" style="fill:#2a78d6"/><rect x="29.7" y="49.5" width="76.3" height="6" style="fill:#eb6834"/></g></g><g transform="translate(617,514.5)"><title>malignant
8 samples  ·  gini 0
malignant: 6.54
benign: 1.46</title><rect class="dti-frame" width="116" height="65.5" rx="10" filter="url(#dti35-sh)" style="fill:#ffffff;stroke:#e4e3dd;stroke-width:1"/><clipPath id="dti35-cc10"><rect width="116" height="65.5" rx="10"/></clipPath><g clip-path="url(#dti35-cc10)"><rect width="116" height="65.5" style="fill:#2a78d6;fill-opacity:0.07"/><rect width="116" height="4" style="fill:#2a78d6"/></g><circle cx="14.5" cy="18.2" r="4.5" style="fill:#2a78d6"/><text x="25" y="23" style="font-size:13.5px;font-weight:600;fill:#0b0b0b">malignant</text><text x="10" y="40.5" style="font-size:11px;font-weight:400;fill:#52514e;font-variant-numeric:tabular-nums">82% of 8</text><clipPath id="dti35-cb10"><rect x="10" y="49.5" width="96" height="6" rx="3"/></clipPath><g clip-path="url(#dti35-cb10)"><rect x="10" y="49.5" width="96" height="6" style="fill:#e1e0d9"/><rect x="10" y="49.5" width="76.9" height="6" style="fill:#2a78d6"/><rect x="88.9" y="49.5" width="17.1" height="6" style="fill:#eb6834"/></g></g><g transform="translate(714,343)"><title>malignant
173 samples  ·  gini 0.0229
malignant: 169
benign: 4.1</title><rect class="dti-frame" width="116" height="65.5" rx="10" filter="url(#dti35-sh)" style="fill:#ffffff;stroke:#e4e3dd;stroke-width:1"/><clipPath id="dti35-cc8"><rect width="116" height="65.5" rx="10"/></clipPath><g clip-path="url(#dti35-cc8)"><rect width="116" height="65.5" style="fill:#2a78d6;fill-opacity:0.07"/><rect width="116" height="4" style="fill:#2a78d6"/></g><circle cx="14.5" cy="18.2" r="4.5" style="fill:#2a78d6"/><text x="25" y="23" style="font-size:13.5px;font-weight:600;fill:#0b0b0b">malignant</text><text x="10" y="40.5" style="font-size:11px;font-weight:400;fill:#52514e;font-variant-numeric:tabular-nums">98% of 173</text><clipPath id="dti35-cb8"><rect x="10" y="49.5" width="96" height="6" rx="3"/></clipPath><g clip-path="url(#dti35-cb8)"><rect x="10" y="49.5" width="96" height="6" style="fill:#e1e0d9"/><rect x="10" y="49.5" width="91.8" height="6" style="fill:#2a78d6"/><rect x="103.8" y="49.5" width="2.2" height="6" style="fill:#eb6834"/></g></g><g class="dti-pill"><rect x="269.9" y="137.5" width="43.7" height="18" rx="9" style="fill:#ffffff;stroke:#e4e3dd;stroke-width:1"/><text x="291.7" y="150.2" text-anchor="middle" style="font-size:10.5px;font-weight:600;fill:#0b0b0b;font-variant-numeric:tabular-nums">≤ 16.8</text></g><g class="dti-pill"><rect x="559.5" y="137.5" width="43.5" height="18" rx="9" style="fill:#ffffff;stroke:#e4e3dd;stroke-width:1"/><text x="581.2" y="150.2" text-anchor="middle" style="font-size:10.5px;font-weight:600;fill:#0b0b0b;font-variant-numeric:tabular-nums">&gt; 16.8</text></g><g class="dti-pill"><rect x="104.3" y="309" width="49.5" height="18" rx="9" style="fill:#ffffff;stroke:#e4e3dd;stroke-width:1"/><text x="129.1" y="321.7" text-anchor="middle" style="font-size:10.5px;font-weight:600;fill:#0b0b0b;font-variant-numeric:tabular-nums">≤ 0.136</text></g><g class="dti-pill"><rect x="205.4" y="309" width="49.3" height="18" rx="9" style="fill:#ffffff;stroke:#e4e3dd;stroke-width:1"/><text x="230.1" y="321.7" text-anchor="middle" style="font-size:10.5px;font-weight:600;fill:#0b0b0b;font-variant-numeric:tabular-nums">&gt; 0.136</text></g><g class="dti-pill"><rect x="164.8" y="480.5" width="43.7" height="18" rx="9" style="fill:#ffffff;stroke:#e4e3dd;stroke-width:1"/><text x="186.6" y="493.2" text-anchor="middle" style="font-size:10.5px;font-weight:600;fill:#0b0b0b;font-variant-numeric:tabular-nums">≤ 25.7</text></g><g class="dti-pill"><rect x="297.3" y="480.5" width="43.5" height="18" rx="9" style="fill:#ffffff;stroke:#e4e3dd;stroke-width:1"/><text x="319" y="493.2" text-anchor="middle" style="font-size:10.5px;font-weight:600;fill:#0b0b0b;font-variant-numeric:tabular-nums">&gt; 25.7</text></g><g class="dti-pill"><rect x="69.9" y="652" width="40.7" height="18" rx="9" style="fill:#ffffff;stroke:#e4e3dd;stroke-width:1"/><text x="90.3" y="664.7" text-anchor="middle" style="font-size:10.5px;font-weight:600;fill:#0b0b0b;font-variant-numeric:tabular-nums">≤ 810</text></g><g class="dti-pill"><rect x="136" y="652" width="40.6" height="18" rx="9" style="fill:#ffffff;stroke:#e4e3dd;stroke-width:1"/><text x="156.3" y="664.7" text-anchor="middle" style="font-size:10.5px;font-weight:600;fill:#0b0b0b;font-variant-numeric:tabular-nums">&gt; 810</text></g><g class="dti-pill"><rect x="321.7" y="652" width="55.3" height="18" rx="9" style="fill:#ffffff;stroke:#e4e3dd;stroke-width:1"/><text x="349.4" y="664.7" text-anchor="middle" style="font-size:10.5px;font-weight:600;fill:#0b0b0b;font-variant-numeric:tabular-nums">≤ 0.0541</text></g><g class="dti-pill"><rect x="388.2" y="652" width="55.2" height="18" rx="9" style="fill:#ffffff;stroke:#e4e3dd;stroke-width:1"/><text x="415.8" y="664.7" text-anchor="middle" style="font-size:10.5px;font-weight:600;fill:#0b0b0b;font-variant-numeric:tabular-nums">&gt; 0.0541</text></g><g class="dti-pill"><rect x="619.6" y="309" width="43.7" height="18" rx="9" style="fill:#ffffff;stroke:#e4e3dd;stroke-width:1"/><text x="641.4" y="321.7" text-anchor="middle" style="font-size:10.5px;font-weight:600;fill:#0b0b0b;font-variant-numeric:tabular-nums">≤ 16.1</text></g><g class="dti-pill"><rect x="710.7" y="309" width="43.5" height="18" rx="9" style="fill:#ffffff;stroke:#e4e3dd;stroke-width:1"/><text x="732.4" y="321.7" text-anchor="middle" style="font-size:10.5px;font-weight:600;fill:#0b0b0b;font-variant-numeric:tabular-nums">&gt; 16.1</text></g><g class="dti-pill"><rect x="549.4" y="480.5" width="55.3" height="18" rx="9" style="fill:#ffffff;stroke:#e4e3dd;stroke-width:1"/><text x="577.1" y="493.2" text-anchor="middle" style="font-size:10.5px;font-weight:600;fill:#0b0b0b;font-variant-numeric:tabular-nums">≤ 0.0337</text></g><g class="dti-pill"><rect x="615.4" y="480.5" width="55.2" height="18" rx="9" style="fill:#ffffff;stroke:#e4e3dd;stroke-width:1"/><text x="643" y="493.2" text-anchor="middle" style="font-size:10.5px;font-weight:600;fill:#0b0b0b;font-variant-numeric:tabular-nums">&gt; 0.0337</text></g></g></svg>