<svg xmlns="http://www.w3.org/2000/svg" width="980" height="394" viewBox="0 0 980 394" role="img" aria-label="Iris species" font-family="Helvetica, &#x27;Helvetica Neue&#x27;, Arial, &#x27;Nimbus Sans&#x27;, &#x27;Liberation Sans&#x27;, sans-serif"><defs><filter id="dti1-sh" x="-20%" y="-20%" width="140%" height="160%"><feDropShadow dx="0" dy="1" stdDeviation="1" style="flood-color:#1a1a1a;flood-opacity:0.06"/><feDropShadow dx="0" dy="6" stdDeviation="8" style="flood-color:#1a1a1a;flood-opacity:0.07"/></filter></defs><rect width="100%" height="100%" style="fill:#ffffff"/><g transform="translate(18,18)"><text x="0" y="18" style="font-size:18px;font-weight:650;fill:#0b0b0b">Iris species</text><text x="116.1" y="18" style="font-size:12px;font-weight:400;fill:#52514e">DecisionTreeClassifier  ·  depth 3  ·  5 leaves  ·  150 training samples</text><circle cx="526.1" cy="14" r="5" style="fill:#2a78d6"/><text x="536.1" y="18" style="font-size:11.5px;font-weight:400;fill:#52514e">setosa</text><circle cx="586" cy="14" r="5" style="fill:#eb6834"/><text x="596" y="18" style="font-size:11.5px;font-weight:400;fill:#52514e">versicolor</text><circle cx="661.2" cy="14" r="5" style="fill:#1baf7a"/><text x="671.2" y="18" style="font-size:11.5px;font-weight:400;fill:#52514e">virginica</text></g><g transform="translate(18,56)"><g style="fill-opacity:0.32"><title>petal width (cm) ≤ 0.8: ≤ 0.8  →  50 samples</title><path d="M180,66.3C228,66.3 228,43.5 276,43.5L276,70C228,70 228,92.7 180,92.7Z" style="fill:#2a78d6"/></g><g style="fill-opacity:0.32"><title>petal width (cm) ≤ 0.8: &gt; 0.8  →  100 samples</title><path d="M180,92.7C228,92.7 228,128.6 276,128.6L276,155C228,155 228,119.1 180,119.1Z" style="fill:#eb6834"/><path d="M180,119.1C228,119.1 228,155 276,155L276,181.4C228,181.4 228,145.5 180,145.5Z" style="fill:#1baf7a"/></g><g style="fill-opacity:0.32"><title>petal width (cm) ≤ 1.75: ≤ 1.75  →  54 samples</title><path d="M456,128.6C504,128.6 504,59.2 552,59.2L552,85.1C504,85.1 504,154.5 456,154.5Z" style="fill:#eb6834"/><path d="M456,154.5C504,154.5 504,85.1 552,85.1L552,87.8C504,87.8 504,157.1 456,157.1Z" style="fill:#1baf7a"/></g><g style="fill-opacity:0.32"><title>petal width (cm) ≤ 1.75: &gt; 1.75  →  46 samples</title><path d="M456,157.1C504,157.1 504,224.4 552,224.4L552,224.9C504,224.9 504,157.6 456,157.6Z" style="fill:#eb6834"/><path d="M456,157.6C504,157.6 504,224.9 552,224.9L552,248.6C504,248.6 504,181.4 456,181.4Z" style="fill:#1baf7a"/></g><g style="fill-opacity:0.32"><title>petal length (cm) ≤ 4.95: ≤ 4.95  →  48 samples</title><path d="M732,59.2C780,59.2 780,20.1 828,20.1L828,44.9C780,44.9 780,84.1 732,84.1Z" style="fill:#eb6834"/><path d="M732,84.1C780,84.1 780,44.9 828,44.9L828,45.4C780,45.4 780,84.6 732,84.6Z" style="fill:#1baf7a"/></g><g style="fill-opacity:0.32"><title>petal length (cm) ≤ 4.95: &gt; 4.95  →  6 samples</title><path d="M732,84.6C780,84.6 780,112.7 828,112.7L828,113.7C780,113.7 780,85.6 732,85.6Z" style="fill:#eb6834"/><path d="M732,85.6C780,85.6 780,113.7 828,113.7L828,115.8C780,115.8 780,87.8 732,87.8Z" style="fill:#1baf7a"/></g><g style="fill-opacity:0.32"><title>petal length (cm) ≤ 4.85: ≤ 4.85  →  3 samples</title><path d="M732,224.4C780,224.4 780,195 828,195L828,195.5C780,195.5 780,224.9 732,224.9Z" style="fill:#eb6834"/><path d="M732,224.9C780,224.9 780,195.5 828,195.5L828,196.5C780,196.5 780,225.9 732,225.9Z" style="fill:#1baf7a"/></g><g style="fill-opacity:0.32"><title>petal length (cm) ≤ 4.85: &gt; 4.85  →  43 samples</title><path d="M732,225.9C780,225.9 780,265.9 828,265.9L828,288.6C780,288.6 780,248.6 732,248.6Z" style="fill:#1baf7a"/></g><g transform="translate(0,56.4)"><title>petal width (cm) ≤ 0.8
150 samples  ·  gini 0.667</title><rect class="dti-frame" width="180" height="99" rx="10" filter="url(#dti1-sh)" style="fill:#ffffff;stroke:#e4e3dd;stroke-width:1"/><text x="170" y="20.5" text-anchor="end" style="font-size:10.5px;font-weight:400;fill:#898781;font-variant-numeric:tabular-nums">n=150</text><text x="10" y="20.5" style="font-size:13px;font-weight:600;fill:#0b0b0b">petal width (cm)</text><path d="M10.8,71V66.4Q10.8,64.4 12.8,64.4H13.9Q15.9,64.4 15.9,66.4V71Z" style="fill:#2a78d6"/><path d="M17.4,71V35Q17.4,33 19.4,33H20.6Q22.6,33 22.6,35V71Z" style="fill:#2a78d6"/><path d="M24.1,71V63.8Q24.1,61.8 26.1,61.8H27.3Q29.3,61.8 29.3,63.8V71Z" style="fill:#2a78d6"/><path d="M30.8,71V63.8Q30.8,61.8 32.8,61.8H33.9Q35.9,61.8 35.9,63.8V71Z" style="fill:#2a78d6"/><path d="M37.4,71V71Q37.4,69.7 38.7,69.7H41.3Q42.6,69.7 42.6,71V71Z" style="fill:#2a78d6"/><path d="M44.1,71V71Q44.1,69.7 45.4,69.7H47.9Q49.2,69.7 49.2,71V71Z" style="fill:#2a78d6"/><path d="M70.8,71V63.8Q70.8,61.8 72.8,61.8H73.9Q75.9,61.8 75.9,63.8V71Z" style="fill:#eb6834"/><path d="M77.4,71V69.1Q77.4,67.1 79.4,67.1H80.6Q82.6,67.1 82.6,69.1V71Z" style="fill:#eb6834"/><path d="M84.1,71V66.4Q84.1,64.4 86.1,64.4H87.3Q89.3,64.4 89.3,66.4V71Z" style="fill:#eb6834"/><path d="M90.8,71V56Q90.8,54 92.8,54H93.9Q95.9,54 95.9,56V71Z" style="fill:#eb6834"/><path d="M97.4,71V61.8H102.6V71Z" style="fill:#eb6834"/><path d="M97.4,61.8V61.8Q97.4,60.5 98.7,60.5H101.3Q102.6,60.5 102.6,61.8V61.8Z" style="fill:#1baf7a"/><path d="M104.1,71V57.9H109.3V71Z" style="fill:#eb6834"/><path d="M104.1,57.9V57.3Q104.1,55.3 106.1,55.3H107.3Q109.3,55.3 109.3,57.3V57.9Z" style="fill:#1baf7a"/><path d="M110.8,71V67.1H115.9V71Z" style="fill:#eb6834"/><path d="M110.8,67.1V67.1Q110.8,65.8 112.1,65.8H114.6Q115.9,65.8 115.9,67.1V67.1Z" style="fill:#1baf7a"/><path d="M117.4,71V69.7H122.6V71Z" style="fill:#eb6834"/><path d="M117.4,69.7V69.7Q117.4,68.4 118.7,68.4H121.3Q122.6,68.4 122.6,69.7V69.7Z" style="fill:#1baf7a"/><path d="M124.1,71V69.7H129.2V71Z" style="fill:#eb6834"/><path d="M124.1,69.7V57.3Q124.1,55.3 126.1,55.3H127.2Q129.2,55.3 129.2,57.3V69.7Z" style="fill:#1baf7a"/><path d="M130.8,71V66.4Q130.8,64.4 132.8,64.4H133.9Q135.9,64.4 135.9,66.4V71Z" style="fill:#1baf7a"/><path d="M137.4,71V65.1Q137.4,63.1 139.4,63.1H140.6Q142.6,63.1 142.6,65.1V71Z" style="fill:#1baf7a"/><path d="M144.1,71V65.1Q144.1,63.1 146.1,63.1H147.2Q149.2,63.1 149.2,65.1V71Z" style="fill:#1baf7a"/><path d="M150.8,71V69.1Q150.8,67.1 152.8,67.1H153.9Q155.9,67.1 155.9,69.1V71Z" style="fill:#1baf7a"/><path d="M157.4,71V62.5Q157.4,60.5 159.4,60.5H160.6Q162.6,60.5 162.6,62.5V71Z" style="fill:#1baf7a"/><path d="M164.1,71V65.1Q164.1,63.1 166.1,63.1H167.2Q169.2,63.1 169.2,65.1V71Z" style="fill:#1baf7a"/><line x1="10" y1="71.5" x2="170" y2="71.5" style="stroke:#c3c2b7;stroke-width:1"/><path d="M56.7,73l4.5,6h-9z" style="fill:#0b0b0b"/><text x="56.7" y="90" text-anchor="middle" style="font-size:10.5px;font-weight:600;fill:#0b0b0b">0.8</text><text x="10" y="90" style="font-size:10px;font-weight:400;fill:#898781">0.1</text><text x="170" y="90" text-anchor="end" style="font-size:10px;font-weight:400;fill:#898781">2.5</text></g><g transform="translate(276,24)"><title>setosa
50 samples  ·  gini 0
setosa: 50</title><rect class="dti-frame" width="116" height="65.5" rx="10" filter="url(#dti1-sh)" style="fill:#ffffff;stroke:#e4e3dd;stroke-width:1"/><clipPath id="dti1-cc1"><rect width="116" height="65.5" rx="10"/></clipPath><g clip-path="url(#dti1-cc1)"><rect width="116" height="65.5" style="fill:#2a78d6;fill-opacity:0.07"/><rect width="116" height="4" style="fill:#2a78d6"/></g><circle cx="14.5" cy="18.2" r="4.5" style="fill:#2a78d6"/><text x="25" y="23" style="font-size:13.5px;font-weight:600;fill:#0b0b0b">setosa</text><text x="10" y="40.5" style="font-size:11px;font-weight:400;fill:#52514e;font-variant-numeric:tabular-nums">100% of 50</text><clipPath id="dti1-cb1"><rect x="10" y="49.5" width="96" height="6" rx="3"/></clipPath><g clip-path="url(#dti1-cb1)"><rect x="10" y="49.5" width="96" height="6" style="fill:#e1e0d9"/><rect x="10" y="49.5" width="96" height="6" style="fill:#2a78d6"/></g></g><g transform="translate(276,105.5)"><title>petal width (cm) ≤ 1.75
100 samples  ·  gini 0.5</title><rect class="dti-frame" width="180" height="99" rx="10" filter="url(#dti1-sh)" style="fill:#ffffff;stroke:#e4e3dd;stroke-width:1"/><text x="170" y="20.5" text-anchor="end" style="font-size:10.5px;font-weight:400;fill:#898781;font-variant-numeric:tabular-nums">n=100</text><text x="10" y="20.5" style="font-size:13px;font-weight:600;fill:#0b0b0b">petal width (cm)</text><path d="M10.8,71V52.5Q10.8,50.5 12.8,50.5H13.9Q15.9,50.5 15.9,52.5V71Z" style="fill:#eb6834"/><path d="M17.4,71V64.2Q17.4,62.2 19.4,62.2H20.6Q22.6,62.2 22.6,64.2V71Z" style="fill:#eb6834"/><path d="M30.8,71V58.4Q30.8,56.4 32.8,56.4H33.9Q35.9,56.4 35.9,58.4V71Z" style="fill:#eb6834"/><path d="M37.4,71V35Q37.4,33 39.4,33H40.6Q42.6,33 42.6,35V71Z" style="fill:#eb6834"/><path d="M50.8,71V50.5H55.9V71Z" style="fill:#eb6834"/><path d="M50.8,50.5V49.6Q50.8,47.6 52.8,47.6H53.9Q55.9,47.6 55.9,49.6V50.5Z" style="fill:#1baf7a"/><path d="M64.1,71V41.8H69.3V71Z" style="fill:#eb6834"/><path d="M64.1,41.8V37.9Q64.1,35.9 66.1,35.9H67.3Q69.3,35.9 69.3,37.9V41.8Z" style="fill:#1baf7a"/><path d="M70.8,71V62.2H75.9V71Z" style="fill:#eb6834"/><path d="M70.8,62.2V61.3Q70.8,59.3 72.8,59.3H73.9Q75.9,59.3 75.9,61.3V62.2Z" style="fill:#1baf7a"/><path d="M84.1,71V68.1H89.3V71Z" style="fill:#eb6834"/><path d="M84.1,68.1V67.2Q84.1,65.2 86.1,65.2H87.3Q89.3,65.2 89.3,67.2V68.1Z" style="fill:#1baf7a"/><path d="M90.8,71V68.1H95.9V71Z" style="fill:#eb6834"/><path d="M90.8,68.1V37.9Q90.8,35.9 92.8,35.9H93.9Q95.9,35.9 95.9,37.9V68.1Z" style="fill:#1baf7a"/><path d="M104.1,71V58.4Q104.1,56.4 106.1,56.4H107.3Q109.3,56.4 109.3,58.4V71Z" style="fill:#1baf7a"/><path d="M117.4,71V55.5Q117.4,53.5 119.4,53.5H120.6Q122.6,53.5 122.6,55.5V71Z" style="fill:#1baf7a"/><path d="M124.1,71V55.5Q124.1,53.5 126.1,53.5H127.2Q129.2,53.5 129.2,55.5V71Z" style="fill:#1baf7a"/><path d="M137.4,71V64.2Q137.4,62.2 139.4,62.2H140.6Q142.6,62.2 142.6,64.2V71Z" style="fill:#1baf7a"/><path d="M144.1,71V49.6Q144.1,47.6 146.1,47.6H147.2Q149.2,47.6 149.2,49.6V71Z" style="fill:#1baf7a"/><path d="M157.4,71V64.2Q157.4,62.2 159.4,62.2H160.6Q162.6,62.2 162.6,64.2V71Z" style="fill:#1baf7a"/><path d="M164.1,71V64.2Q164.1,62.2 166.1,62.2H167.2Q169.2,62.2 169.2,64.2V71Z" style="fill:#1baf7a"/><line x1="10" y1="71.5" x2="170" y2="71.5" style="stroke:#c3c2b7;stroke-width:1"/><path d="M90,73l4.5,6h-9z" style="fill:#0b0b0b"/><text x="90" y="90" text-anchor="middle" style="font-size:10.5px;font-weight:600;fill:#0b0b0b">1.75</text><text x="10" y="90" style="font-size:10px;font-weight:400;fill:#898781">1</text><text x="170" y="90" text-anchor="end" style="font-size:10px;font-weight:400;fill:#898781">2.5</text></g><g transform="translate(552,24)"><title>petal length (cm) ≤ 4.95
54 samples  ·  gini 0.168</title><rect class="dti-frame" width="180" height="99" rx="10" filter="url(#dti1-sh)" style="fill:#ffffff;stroke:#e4e3dd;stroke-width:1"/><text x="170" y="20.5" text-anchor="end" style="font-size:10.5px;font-weight:400;fill:#898781;font-variant-numeric:tabular-nums">n=54</text><text x="10" y="20.5" style="font-size:13px;font-weight:600;fill:#0b0b0b">petal length (cm)</text><path d="M10.8,71V69.8Q10.8,67.8 12.8,67.8H13.9Q15.9,67.8 15.9,69.8V71Z" style="fill:#eb6834"/><path d="M24.1,71V66.7Q24.1,64.7 26.1,64.7H27.3Q29.3,64.7 29.3,66.7V71Z" style="fill:#eb6834"/><path d="M37.4,71V66.7Q37.4,64.7 39.4,64.7H40.6Q42.6,64.7 42.6,66.7V71Z" style="fill:#eb6834"/><path d="M44.1,71V69.8Q44.1,67.8 46.1,67.8H47.2Q49.2,67.8 49.2,69.8V71Z" style="fill:#eb6834"/><path d="M50.8,71V66.7Q50.8,64.7 52.8,64.7H53.9Q55.9,64.7 55.9,66.7V71Z" style="fill:#eb6834"/><path d="M57.4,71V63.5Q57.4,61.5 59.4,61.5H60.6Q62.6,61.5 62.6,63.5V71Z" style="fill:#eb6834"/><path d="M64.1,71V57.2Q64.1,55.2 66.1,55.2H67.3Q69.3,55.2 69.3,57.2V71Z" style="fill:#eb6834"/><path d="M70.8,71V63.5Q70.8,61.5 72.8,61.5H73.9Q75.9,61.5 75.9,63.5V71Z" style="fill:#eb6834"/><path d="M77.4,71V60.3Q77.4,58.3 79.4,58.3H80.6Q82.6,58.3 82.6,60.3V71Z" style="fill:#eb6834"/><path d="M84.1,71V66.7Q84.1,64.7 86.1,64.7H87.3Q89.3,64.7 89.3,66.7V71Z" style="fill:#eb6834"/><path d="M90.8,71V36.2H95.9V71Z" style="fill:#eb6834"/><path d="M90.8,36.2V35Q90.8,33 92.8,33H93.9Q95.9,33 95.9,35V36.2Z" style="fill:#1baf7a"/><path d="M97.4,71V63.5Q97.4,61.5 99.4,61.5H100.6Q102.6,61.5 102.6,63.5V71Z" style="fill:#eb6834"/><path d="M104.1,71V57.2Q104.1,55.2 106.1,55.2H107.3Q109.3,55.2 109.3,57.2V71Z" style="fill:#eb6834"/><path d="M110.8,71V69.8Q110.8,67.8 112.8,67.8H113.9Q115.9,67.8 115.9,69.8V71Z" style="fill:#eb6834"/><path d="M117.4,71V66.7Q117.4,64.7 119.4,64.7H120.6Q122.6,64.7 122.6,66.7V71Z" style="fill:#eb6834"/><path d="M124.1,71V67.8H129.2V71Z" style="fill:#eb6834"/><path d="M124.1,67.8V66.7Q124.1,64.7 126.1,64.7H127.2Q129.2,64.7 129.2,66.7V67.8Z" style="fill:#1baf7a"/><path d="M130.8,71V67.8H135.9V71Z" style="fill:#eb6834"/><path d="M130.8,67.8V66.7Q130.8,64.7 132.8,64.7H133.9Q135.9,64.7 135.9,66.7V67.8Z" style="fill:#1baf7a"/><path d="M157.4,71V69.8Q157.4,67.8 159.4,67.8H160.6Q162.6,67.8 162.6,69.8V71Z" style="fill:#1baf7a"/><path d="M164.1,71V69.8Q164.1,67.8 166.1,67.8H167.2Q169.2,67.8 169.2,69.8V71Z" style="fill:#1baf7a"/><line x1="10" y1="71.5" x2="170" y2="71.5" style="stroke:#c3c2b7;stroke-width:1"/><path d="M121.4,73l4.5,6h-9z" style="fill:#0b0b0b"/><text x="121.4" y="90" text-anchor="middle" style="font-size:10.5px;font-weight:600;fill:#0b0b0b">4.95</text><text x="10" y="90" style="font-size:10px;font-weight:400;fill:#898781">3</text><text x="170" y="90" text-anchor="end" style="font-size:10px;font-weight:400;fill:#898781">5.8</text></g><g transform="translate(828,0)"><title>versicolor
48 samples  ·  gini 0.0408
versicolor: 47
virginica: 1</title><rect class="dti-frame" width="116" height="65.5" rx="10" filter="url(#dti1-sh)" style="fill:#ffffff;stroke:#e4e3dd;stroke-width:1"/><clipPath id="dti1-cc4"><rect width="116" height="65.5" rx="10"/></clipPath><g clip-path="url(#dti1-cc4)"><rect width="116" height="65.5" style="fill:#eb6834;fill-opacity:0.07"/><rect width="116" height="4" style="fill:#eb6834"/></g><circle cx="14.5" cy="18.2" r="4.5" style="fill:#eb6834"/><text x="25" y="23" style="font-size:13.5px;font-weight:600;fill:#0b0b0b">versicolor</text><text x="10" y="40.5" style="font-size:11px;font-weight:400;fill:#52514e;font-variant-numeric:tabular-nums">98% of 48</text><clipPath id="dti1-cb4"><rect x="10" y="49.5" width="96" height="6" rx="3"/></clipPath><g clip-path="url(#dti1-cb4)"><rect x="10" y="49.5" width="96" height="6" style="fill:#e1e0d9"/><rect x="10" y="49.5" width="92" height="6" style="fill:#eb6834"/><rect x="104" y="49.5" width="2" height="6" style="fill:#1baf7a"/></g></g><g transform="translate(828,81.5)"><title>virginica
6 samples  ·  gini 0.444
versicolor: 2
virginica: 4</title><rect class="dti-frame" width="116" height="65.5" rx="10" filter="url(#dti1-sh)" style="fill:#ffffff;stroke:#e4e3dd;stroke-width:1"/><clipPath id="dti1-cc5"><rect width="116" height="65.5" rx="10"/></clipPath><g clip-path="url(#dti1-cc5)"><rect width="116" height="65.5" style="fill:#1baf7a;fill-opacity:0.07"/><rect width="116" height="4" style="fill:#1baf7a"/></g><circle cx="14.5" cy="18.2" r="4.5" style="fill:#1baf7a"/><text x="25" y="23" style="font-size:13.5px;font-weight:600;fill:#0b0b0b">virginica</text><text x="10" y="40.5" style="font-size:11px;font-weight:400;fill:#52514e;font-variant-numeric:tabular-nums">67% of 6</text><clipPath id="dti1-cb5"><rect x="10" y="49.5" width="96" height="6" rx="3"/></clipPath><g clip-path="url(#dti1-cb5)"><rect x="10" y="49.5" width="96" height="6" style="fill:#e1e0d9"/><rect x="10" y="49.5" width="31.3" height="6" style="fill:#eb6834"/><rect x="43.3" y="49.5" width="62.7" height="6" style="fill:#1baf7a"/></g></g><g transform="translate(552,187)"><title>petal length (cm) ≤ 4.85
46 samples  ·  gini 0.0425</title><rect class="dti-frame" width="180" height="99" rx="10" filter="url(#dti1-sh)" style="fill:#ffffff;stroke:#e4e3dd;stroke-width:1"/><text x="170" y="20.5" text-anchor="end" style="font-size:10.5px;font-weight:400;fill:#898781;font-variant-numeric:tabular-nums">n=46</text><text x="10" y="20.5" style="font-size:13px;font-weight:600;fill:#0b0b0b">petal length (cm)</text><path d="M10.8,71V64.7H15.9V71Z" style="fill:#eb6834"/><path d="M10.8,64.7V54Q10.8,52 12.8,52H13.9Q15.9,52 15.9,54V64.7Z" style="fill:#1baf7a"/><path d="M17.4,71V54Q17.4,52 19.4,52H20.6Q22.6,52 22.6,54V71Z" style="fill:#1baf7a"/><path d="M24.1,71V60.3Q24.1,58.3 26.1,58.3H27.3Q29.3,58.3 29.3,60.3V71Z" style="fill:#1baf7a"/><path d="M30.8,71V35Q30.8,33 32.8,33H33.9Q35.9,33 35.9,35V71Z" style="fill:#1baf7a"/><path d="M37.4,71V60.3Q37.4,58.3 39.4,58.3H40.6Q42.6,58.3 42.6,60.3V71Z" style="fill:#1baf7a"/><path d="M44.1,71V60.3Q44.1,58.3 46.1,58.3H47.2Q49.2,58.3 49.2,60.3V71Z" style="fill:#1baf7a"/><path d="M50.8,71V60.3Q50.8,58.3 52.8,58.3H53.9Q55.9,58.3 55.9,60.3V71Z" style="fill:#1baf7a"/><path d="M64.1,71V54Q64.1,52 66.1,52H67.3Q69.3,52 69.3,54V71Z" style="fill:#1baf7a"/><path d="M70.8,71V41.3Q70.8,39.3 72.8,39.3H73.9Q75.9,39.3 75.9,41.3V71Z" style="fill:#1baf7a"/><path d="M77.4,71V54Q77.4,52 79.4,52H80.6Q82.6,52 82.6,54V71Z" style="fill:#1baf7a"/><path d="M84.1,71V60.3Q84.1,58.3 86.1,58.3H87.3Q89.3,58.3 89.3,60.3V71Z" style="fill:#1baf7a"/><path d="M90.8,71V60.3Q90.8,58.3 92.8,58.3H93.9Q95.9,58.3 95.9,60.3V71Z" style="fill:#1baf7a"/><path d="M97.4,71V60.3Q97.4,58.3 99.4,58.3H100.6Q102.6,58.3 102.6,60.3V71Z" style="fill:#1baf7a"/><path d="M104.1,71V54Q104.1,52 106.1,52H107.3Q109.3,52 109.3,54V71Z" style="fill:#1baf7a"/><path d="M124.1,71V66.7Q124.1,64.7 126.1,64.7H127.2Q129.2,64.7 129.2,66.7V71Z" style="fill:#1baf7a"/><path d="M130.8,71V66.7Q130.8,64.7 132.8,64.7H133.9Q135.9,64.7 135.9,66.7V71Z" style="fill:#1baf7a"/><path d="M144.1,71V66.7Q144.1,64.7 146.1,64.7H147.2Q149.2,64.7 149.2,66.7V71Z" style="fill:#1baf7a"/><path d="M150.8,71V60.3Q150.8,58.3 152.8,58.3H153.9Q155.9,58.3 155.9,60.3V71Z" style="fill:#1baf7a"/><path d="M164.1,71V66.7Q164.1,64.7 166.1,64.7H167.2Q169.2,64.7 169.2,66.7V71Z" style="fill:#1baf7a"/><line x1="10" y1="71.5" x2="170" y2="71.5" style="stroke:#c3c2b7;stroke-width:1"/><path d="M13.8,73l4.5,6h-9z" style="fill:#0b0b0b"/><text x="20.2" y="90" text-anchor="middle" style="font-size:10.5px;font-weight:600;fill:#0b0b0b">4.85</text><text x="170" y="90" text-anchor="end" style="font-size:10px;font-weight:400;fill:#898781">6.9</text></g><g transform="translate(828,163)"><title>virginica
3 samples  ·  gini 0.444
versicolor: 1
virginica: 2</title><rect class="dti-frame" width="116" height="65.5" rx="10" filter="url(#dti1-sh)" style="fill:#ffffff;stroke:#e4e3dd;stroke-width:1"/><clipPath id="dti1-cc7"><rect width="116" height="65.5" rx="10"/></clipPath><g clip-path="url(#dti1-cc7)"><rect width="116" height="65.5" style="fill:#1baf7a;fill-opacity:0.07"/><rect width="116" height="4" style="fill:#1baf7a"/></g><circle cx="14.5" cy="18.2" r="4.5" style="fill:#1baf7a"/><text x="25" y="23" style="font-size:13.5px;font-weight:600;fill:#0b0b0b">virginica</text><text x="10" y="40.5" style="font-size:11px;font-weight:400;fill:#52514e;font-variant-numeric:tabular-nums">67% of 3</text><clipPath id="dti1-cb7"><rect x="10" y="49.5" width="96" height="6" rx="3"/></clipPath><g clip-path="url(#dti1-cb7)"><rect x="10" y="49.5" width="96" height="6" style="fill:#e1e0d9"/><rect x="10" y="49.5" width="31.3" height="6" style="fill:#eb6834"/><rect x="43.3" y="49.5" width="62.7" height="6" style="fill:#1baf7a"/></g></g><g transform="translate(828,244.5)"><title>virginica
43 samples  ·  gini 0
virginica: 43</title><rect class="dti-frame" width="116" height="65.5" rx="10" filter="url(#dti1-sh)" style="fill:#ffffff;stroke:#e4e3dd;stroke-width:1"/><clipPath id="dti1-cc8"><rect width="116" height="65.5" rx="10"/></clipPath><g clip-path="url(#dti1-cc8)"><rect width="116" height="65.5" style="fill:#1baf7a;fill-opacity:0.07"/><rect width="116" height="4" style="fill:#1baf7a"/></g><circle cx="14.5" cy="18.2" r="4.5" style="fill:#1baf7a"/><text x="25" y="23" style="font-size:13.5px;font-weight:600;fill:#0b0b0b">virginica</text><text x="10" y="40.5" style="font-size:11px;font-weight:400;fill:#52514e;font-variant-numeric:tabular-nums">100% of 43</text><clipPath id="dti1-cb8"><rect x="10" y="49.5" width="96" height="6" rx="3"/></clipPath><g clip-path="url(#dti1-cb8)"><rect x="10" y="49.5" width="96" height="6" style="fill:#e1e0d9"/><rect x="10" y="49.5" width="96" height="6" style="fill:#1baf7a"/></g></g><g class="dti-pill"><rect x="209.1" y="59.1" width="37.8" height="18" rx="9" style="fill:#ffffff;stroke:#e4e3dd;stroke-width:1"/><text x="228" y="71.8" text-anchor="middle" style="font-size:10.5px;font-weight:600;fill:#0b0b0b;font-variant-numeric:tabular-nums">≤ 0.8</text></g><g class="dti-pill"><rect x="209.2" y="128" width="37.6" height="18" rx="9" style="fill:#ffffff;stroke:#e4e3dd;stroke-width:1"/><text x="228" y="140.7" text-anchor="middle" style="font-size:10.5px;font-weight:600;fill:#0b0b0b;font-variant-numeric:tabular-nums">&gt; 0.8</text></g><g class="dti-pill"><rect x="482.2" y="99.2" width="43.7" height="18" rx="9" style="fill:#ffffff;stroke:#e4e3dd;stroke-width:1"/><text x="504" y="111.9" text-anchor="middle" style="font-size:10.5px;font-weight:600;fill:#0b0b0b;font-variant-numeric:tabular-nums">≤ 1.75</text></g><g class="dti-pill"><rect x="482.3" y="193.9" width="43.5" height="18" rx="9" style="fill:#ffffff;stroke:#e4e3dd;stroke-width:1"/><text x="504" y="206.6" text-anchor="middle" style="font-size:10.5px;font-weight:600;fill:#0b0b0b;font-variant-numeric:tabular-nums">&gt; 1.75</text></g><g class="dti-pill"><rect x="758.2" y="43.3" width="43.7" height="18" rx="9" style="fill:#ffffff;stroke:#e4e3dd;stroke-width:1"/><text x="780" y="56" text-anchor="middle" style="font-size:10.5px;font-weight:600;fill:#0b0b0b;font-variant-numeric:tabular-nums">≤ 4.95</text></g><g class="dti-pill"><rect x="758.3" y="91.2" width="43.5" height="18" rx="9" style="fill:#ffffff;stroke:#e4e3dd;stroke-width:1"/><text x="780" y="103.9" text-anchor="middle" style="font-size:10.5px;font-weight:600;fill:#0b0b0b;font-variant-numeric:tabular-nums">&gt; 4.95</text></g><g class="dti-pill"><rect x="758.2" y="201.4" width="43.7" height="18" rx="9" style="fill:#ffffff;stroke:#e4e3dd;stroke-width:1"/><text x="780" y="214.1" text-anchor="middle" style="font-size:10.5px;font-weight:600;fill:#0b0b0b;font-variant-numeric:tabular-nums">≤ 4.85</text></g><g class="dti-pill"><rect x="758.3" y="248.3" width="43.5" height="18" rx="9" style="fill:#ffffff;stroke:#e4e3dd;stroke-width:1"/><text x="780" y="261" text-anchor="middle" style="font-size:10.5px;font-weight:600;fill:#0b0b0b;font-variant-numeric:tabular-nums">&gt; 4.85</text></g></g></svg>