<svg xmlns="http://www.w3.org/2000/svg" width="1062" height="510" viewBox="0 0 1062 510" role="img" aria-label="Wine cultivar" font-family="Helvetica, &#x27;Helvetica Neue&#x27;, Arial, &#x27;Nimbus Sans&#x27;, &#x27;Liberation Sans&#x27;, sans-serif"><defs><filter id="dti13-sh" x="-20%" y="-20%" width="140%" height="160%"><feDropShadow dx="0" dy="1" stdDeviation="1" style="flood-color:#1a1a1a;flood-opacity:0.06"/><feDropShadow dx="0" dy="6" stdDeviation="8" style="flood-color:#1a1a1a;flood-opacity:0.07"/></filter></defs><rect width="100%" height="100%" style="fill:#ffffff"/><g transform="translate(18,18)"><text x="0" y="18" style="font-size:18px;font-weight:650;fill:#0b0b0b">Wine cultivar</text><text x="0" y="39" style="font-size:12px;font-weight:400;fill:#52514e">DecisionTreeClassifier  ·  depth 3  ·  8 leaves  ·  178 training samples</text><circle cx="410.1" cy="35" r="5" style="fill:#2a78d6"/><text x="420.1" y="39" style="font-size:11.5px;font-weight:400;fill:#52514e">barolo</text><circle cx="468" cy="35" r="5" style="fill:#eb6834"/><text x="478" y="39" style="font-size:11.5px;font-weight:400;fill:#52514e">grignolino</text><circle cx="543.9" cy="35" r="5" style="fill:#1baf7a"/><text x="553.9" y="39" style="font-size:11.5px;font-weight:400;fill:#52514e">barbera</text></g><g transform="translate(18,76)"><g style="fill-opacity:0.32"><title>proline ≤ 755: ≤ 755  →  111 samples</title><path d="M453,69.5C453,91.5 215.6,91.5 215.6,113.5L216.9,113.5C216.9,91.5 454.3,91.5 454.3,69.5Z" style="fill:#2a78d6"/><path d="M454.3,69.5C454.3,91.5 216.9,91.5 216.9,113.5L262.1,113.5C262.1,91.5 499.5,91.5 499.5,69.5Z" style="fill:#eb6834"/><path d="M499.5,69.5C499.5,91.5 262.1,91.5 262.1,113.5L290.4,113.5C290.4,91.5 527.8,91.5 527.8,69.5Z" style="fill:#1baf7a"/></g><g style="fill-opacity:0.32"><title>proline ≤ 755: &gt; 755  →  67 samples</title><path d="M527.8,69.5C527.8,91.5 750.4,91.5 750.4,113.5L788.8,113.5C788.8,91.5 566.3,91.5 566.3,69.5Z" style="fill:#2a78d6"/><path d="M566.3,69.5C566.3,91.5 788.8,91.5 788.8,113.5L791.5,113.5C791.5,91.5 569,91.5 569,69.5Z" style="fill:#eb6834"/><path d="M569,69.5C569,91.5 791.5,91.5 791.5,113.5L795.6,113.5C795.6,91.5 573,91.5 573,69.5Z" style="fill:#1baf7a"/></g><g style="fill-opacity:0.32"><title>od280/od315_of_diluted_wines ≤ 2.11: ≤ 2.11  →  46 samples</title><path d="M215.6,183C215.6,205 107.5,205 107.5,227L111.5,227C111.5,205 219.6,205 219.6,183Z" style="fill:#eb6834"/><path d="M219.6,183C219.6,205 111.5,205 111.5,227L138.5,227C138.5,205 246.6,205 246.6,183Z" style="fill:#1baf7a"/></g><g style="fill-opacity:0.32"><title>od280/od315_of_diluted_wines ≤ 2.11: &gt; 2.11  →  65 samples</title><path d="M246.6,183C246.6,205 361.1,205 361.1,227L362.4,227C362.4,205 247.9,205 247.9,183Z" style="fill:#2a78d6"/><path d="M247.9,183C247.9,205 362.4,205 362.4,227L403.6,227C403.6,205 289.1,205 289.1,183Z" style="fill:#eb6834"/><path d="M289.1,183C289.1,205 403.6,205 403.6,227L404.9,227C404.9,205 290.4,205 290.4,183Z" style="fill:#1baf7a"/></g><g style="fill-opacity:0.32"><title>hue ≤ 0.935: ≤ 0.935  →  40 samples</title><path d="M107.5,296.5C107.5,318.5 44.5,318.5 44.5,340.5L45.2,340.5C45.2,318.5 108.2,318.5 108.2,296.5Z" style="fill:#eb6834"/><path d="M108.2,296.5C108.2,318.5 45.2,318.5 45.2,340.5L71.5,340.5C71.5,318.5 134.5,318.5 134.5,296.5Z" style="fill:#1baf7a"/></g><g style="fill-opacity:0.32"><title>hue ≤ 0.935: &gt; 0.935  →  6 samples</title><path d="M134.5,296.5C134.5,318.5 186,318.5 186,340.5L189.3,340.5C189.3,318.5 137.8,318.5 137.8,296.5Z" style="fill:#eb6834"/><path d="M137.8,296.5C137.8,318.5 189.3,318.5 189.3,340.5L190,340.5C190,318.5 138.5,318.5 138.5,296.5Z" style="fill:#1baf7a"/></g><g style="fill-opacity:0.32"><title>flavanoids ≤ 0.795: ≤ 0.795  →  2 samples</title><path d="M361.1,296.5C361.1,318.5 317.2,318.5 317.2,340.5L318.8,340.5C318.8,318.5 362.4,318.5 362.4,296.5Z" style="fill:#1baf7a"/></g><g style="fill-opacity:0.32"><title>flavanoids ≤ 0.795: &gt; 0.795  →  63 samples</title><path d="M362.4,296.5C362.4,318.5 426.8,318.5 426.8,340.5L428.1,340.5C428.1,318.5 363.8,318.5 363.8,296.5Z" style="fill:#2a78d6"/><path d="M363.8,296.5C363.8,318.5 428.1,318.5 428.1,340.5L469.2,340.5C469.2,318.5 404.9,318.5 404.9,296.5Z" style="fill:#eb6834"/></g><g style="fill-opacity:0.32"><title>flavanoids ≤ 2.17: ≤ 2.17  →  8 samples</title><path d="M750.4,183C750.4,205 640.3,205 640.3,227L641.7,227C641.7,205 751.8,205 751.8,183Z" style="fill:#eb6834"/><path d="M751.8,183C751.8,205 641.7,205 641.7,227L645.7,227C645.7,205 755.8,205 755.8,183Z" style="fill:#1baf7a"/></g><g style="fill-opacity:0.32"><title>flavanoids ≤ 2.17: &gt; 2.17  →  59 samples</title><path d="M755.8,183C755.8,205 883.1,205 883.1,227L921.5,227C921.5,205 794.2,205 794.2,183Z" style="fill:#2a78d6"/><path d="M794.2,183C794.2,205 921.5,205 921.5,227L922.9,227C922.9,205 795.6,205 795.6,183Z" style="fill:#eb6834"/></g><g style="fill-opacity:0.32"><title>malic_acid ≤ 2.08: ≤ 2.08  →  2 samples</title><path d="M640.3,296.5C640.3,318.5 577.2,318.5 577.2,340.5L578.8,340.5C578.8,318.5 641.7,318.5 641.7,296.5Z" style="fill:#eb6834"/></g><g style="fill-opacity:0.32"><title>malic_acid ≤ 2.08: &gt; 2.08  →  6 samples</title><path d="M641.7,296.5C641.7,318.5 706,318.5 706,340.5L710,340.5C710,318.5 645.7,318.5 645.7,296.5Z" style="fill:#1baf7a"/></g><g style="fill-opacity:0.32"><title>magnesium ≤ 136: ≤ 136  →  57 samples</title><path d="M883.1,296.5C883.1,318.5 818.8,318.5 818.8,340.5L857.2,340.5C857.2,318.5 921.5,318.5 921.5,296.5Z" style="fill:#2a78d6"/></g><g style="fill-opacity:0.32"><title>magnesium ≤ 136: &gt; 136  →  2 samples</title><path d="M921.5,296.5C921.5,318.5 967.2,318.5 967.2,340.5L968.8,340.5C968.8,318.5 922.9,318.5 922.9,296.5Z" style="fill:#eb6834"/></g><g transform="translate(423,0)"><title>proline ≤ 755
178 samples  ·  gini 0.658</title><rect class="dti-frame" width="180" height="69.5" rx="10" filter="url(#dti13-sh)" style="fill:#ffffff;stroke:#e4e3dd;stroke-width:1"/><text x="10" y="20.5" style="font-size:13px;font-weight:600;fill:#0b0b0b">proline</text><clipPath id="dti13-cb0"><rect x="10" y="31" width="160" height="8" rx="4"/></clipPath><g clip-path="url(#dti13-cb0)"><rect x="10" y="31" width="160" height="8" style="fill:#e1e0d9"/><rect x="10" y="31" width="51.7" height="8" style="fill:#2a78d6"/><rect x="63.7" y="31" width="62.2" height="8" style="fill:#eb6834"/><rect x="127.9" y="31" width="42.1" height="8" style="fill:#1baf7a"/></g><text x="10" y="57.5" style="font-size:10.5px;font-weight:400;fill:#898781;font-variant-numeric:tabular-nums">178 samples  ·  gini 0.658</text></g><g transform="translate(146.3,113.5)"><title>od280/od315_of_diluted_wines ≤ 2.11
111 samples  ·  gini 0.492</title><rect class="dti-frame" width="213.5" height="69.5" rx="10" filter="url(#dti13-sh)" style="fill:#ffffff;stroke:#e4e3dd;stroke-width:1"/><text x="10" y="20.5" style="font-size:13px;font-weight:600;fill:#0b0b0b">od280/od315_of_diluted_wines</text><clipPath id="dti13-cb1"><rect x="10" y="31" width="193.5" height="8" rx="4"/></clipPath><g clip-path="url(#dti13-cb1)"><rect x="10" y="31" width="193.5" height="8" style="fill:#e1e0d9"/><rect x="10" y="31" width="3.4" height="8" style="fill:#2a78d6"/><rect x="15.4" y="31" width="114.4" height="8" style="fill:#eb6834"/><rect x="131.8" y="31" width="71.7" height="8" style="fill:#1baf7a"/></g><text x="10" y="57.5" style="font-size:10.5px;font-weight:400;fill:#898781;font-variant-numeric:tabular-nums">111 samples  ·  gini 0.492</text></g><g transform="translate(33,227)"><title>hue ≤ 0.935
46 samples  ·  gini 0.227</title><rect class="dti-frame" width="180" height="69.5" rx="10" filter="url(#dti13-sh)" style="fill:#ffffff;stroke:#e4e3dd;stroke-width:1"/><text x="10" y="20.5" style="font-size:13px;font-weight:600;fill:#0b0b0b">hue</text><clipPath id="dti13-cb2"><rect x="10" y="31" width="160" height="8" rx="4"/></clipPath><g clip-path="url(#dti13-cb2)"><rect x="10" y="31" width="160" height="8" style="fill:#e1e0d9"/><rect x="10" y="31" width="20.6" height="8" style="fill:#eb6834"/><rect x="32.6" y="31" width="137.4" height="8" style="fill:#1baf7a"/></g><text x="10" y="57.5" style="font-size:10.5px;font-weight:400;fill:#898781;font-variant-numeric:tabular-nums">46 samples  ·  gini 0.227</text></g><g transform="translate(0,340.5)"><title>barbera
40 samples  ·  gini 0.0487
grignolino: 1
barbera: 39</title><rect class="dti-frame" width="116" height="65.5" rx="10" filter="url(#dti13-sh)" style="fill:#ffffff;stroke:#e4e3dd;stroke-width:1"/><clipPath id="dti13-cc3"><rect width="116" height="65.5" rx="10"/></clipPath><g clip-path="url(#dti13-cc3)"><rect width="116" height="65.5" style="fill:#1baf7a;fill-opacity:0.07"/><rect width="116" height="4" style="fill:#1baf7a"/></g><circle cx="14.5" cy="18.2" r="4.5" style="fill:#1baf7a"/><text x="25" y="23" style="font-size:13.5px;font-weight:600;fill:#0b0b0b">barbera</text><text x="10" y="40.5" style="font-size:11px;font-weight:400;fill:#52514e;font-variant-numeric:tabular-nums">98% of 40</text><clipPath id="dti13-cb3"><rect x="10" y="49.5" width="96" height="6" rx="3"/></clipPath><g clip-path="url(#dti13-cb3)"><rect x="10" y="49.5" width="96" height="6" style="fill:#e1e0d9"/><rect x="10" y="49.5" width="2.4" height="6" style="fill:#eb6834"/><rect x="14.3" y="49.5" width="91.7" height="6" style="fill:#1baf7a"/></g></g><g transform="translate(130,340.5)"><title>grignolino
6 samples  ·  gini 0.278
grignolino: 5
barbera: 1</title><rect class="dti-frame" width="116" height="65.5" rx="10" filter="url(#dti13-sh)" style="fill:#ffffff;stroke:#e4e3dd;stroke-width:1"/><clipPath id="dti13-cc4"><rect width="116" height="65.5" rx="10"/></clipPath><g clip-path="url(#dti13-cc4)"><rect width="116" height="65.5" style="fill:#eb6834;fill-opacity:0.07"/><rect width="116" height="4" style="fill:#eb6834"/></g><circle cx="14.5" cy="18.2" r="4.5" style="fill:#eb6834"/><text x="25" y="23" style="font-size:13.5px;font-weight:600;fill:#0b0b0b">grignolino</text><text x="10" y="40.5" style="font-size:11px;font-weight:400;fill:#52514e;font-variant-numeric:tabular-nums">83% of 6</text><clipPath id="dti13-cb4"><rect x="10" y="49.5" width="96" height="6" rx="3"/></clipPath><g clip-path="url(#dti13-cb4)"><rect x="10" y="49.5" width="96" height="6" style="fill:#e1e0d9"/><rect x="10" y="49.5" width="78.3" height="6" style="fill:#eb6834"/><rect x="90.3" y="49.5" width="15.7" height="6" style="fill:#1baf7a"/></g></g><g transform="translate(293,227)"><title>flavanoids ≤ 0.795
65 samples  ·  gini 0.117</title><rect class="dti-frame" width="180" height="69.5" rx="10" filter="url(#dti13-sh)" style="fill:#ffffff;stroke:#e4e3dd;stroke-width:1"/><text x="10" y="20.5" style="font-size:13px;font-weight:600;fill:#0b0b0b">flavanoids</text><clipPath id="dti13-cb5"><rect x="10" y="31" width="160" height="8" rx="4"/></clipPath><g clip-path="url(#dti13-cb5)"><rect x="10" y="31" width="160" height="8" style="fill:#e1e0d9"/><rect x="10" y="31" width="4.8" height="8" style="fill:#2a78d6"/><rect x="16.8" y="31" width="146.4" height="8" style="fill:#eb6834"/><rect x="165.2" y="31" width="4.8" height="8" style="fill:#1baf7a"/></g><text x="10" y="57.5" style="font-size:10.5px;font-weight:400;fill:#898781;font-variant-numeric:tabular-nums">65 samples  ·  gini 0.117</text></g><g transform="translate(260,340.5)"><title>barbera
2 samples  ·  gini 0
barbera: 2</title><rect class="dti-frame" width="116" height="65.5" rx="10" filter="url(#dti13-sh)" style="fill:#ffffff;stroke:#e4e3dd;stroke-width:1"/><clipPath id="dti13-cc6"><rect width="116" height="65.5" rx="10"/></clipPath><g clip-path="url(#dti13-cc6)"><rect width="116" height="65.5" style="fill:#1baf7a;fill-opacity:0.07"/><rect width="116" height="4" style="fill:#1baf7a"/></g><circle cx="14.5" cy="18.2" r="4.5" style="fill:#1baf7a"/><text x="25" y="23" style="font-size:13.5px;font-weight:600;fill:#0b0b0b">barbera</text><text x="10" y="40.5" style="font-size:11px;font-weight:400;fill:#52514e;font-variant-numeric:tabular-nums">100% of 2</text><clipPath id="dti13-cb6"><rect x="10" y="49.5" width="96" height="6" rx="3"/></clipPath><g clip-path="url(#dti13-cb6)"><rect x="10" y="49.5" width="96" height="6" style="fill:#e1e0d9"/><rect x="10" y="49.5" width="96" height="6" style="fill:#1baf7a"/></g></g><g transform="translate(390,340.5)"><title>grignolino
63 samples  ·  gini 0.0615
barolo: 2
grignolino: 61</title><rect class="dti-frame" width="116" height="65.5" rx="10" filter="url(#dti13-sh)" style="fill:#ffffff;stroke:#e4e3dd;stroke-width:1"/><clipPath id="dti13-cc7"><rect width="116" height="65.5" rx="10"/></clipPath><g clip-path="url(#dti13-cc7)"><rect width="116" height="65.5" style="fill:#eb6834;fill-opacity:0.07"/><rect width="116" height="4" style="fill:#eb6834"/></g><circle cx="14.5" cy="18.2" r="4.5" style="fill:#eb6834"/><text x="25" y="23" style="font-size:13.5px;font-weight:600;fill:#0b0b0b">grignolino</text><text x="10" y="40.5" style="font-size:11px;font-weight:400;fill:#52514e;font-variant-numeric:tabular-nums">97% of 63</text><clipPath id="dti13-cb7"><rect x="10" y="49.5" width="96" height="6" rx="3"/></clipPath><g clip-path="url(#dti13-cb7)"><rect x="10" y="49.5" width="96" height="6" style="fill:#e1e0d9"/><rect x="10" y="49.5" width="3" height="6" style="fill:#2a78d6"/><rect x="15" y="49.5" width="91" height="6" style="fill:#eb6834"/></g></g><g transform="translate(683,113.5)"><title>flavanoids ≤ 2.17
67 samples  ·  gini 0.265</title><rect class="dti-frame" width="180" height="69.5" rx="10" filter="url(#dti13-sh)" style="fill:#ffffff;stroke:#e4e3dd;stroke-width:1"/><text x="10" y="20.5" style="font-size:13px;font-weight:600;fill:#0b0b0b">flavanoids</text><clipPath id="dti13-cb8"><rect x="10" y="31" width="160" height="8" rx="4"/></clipPath><g clip-path="url(#dti13-cb8)"><rect x="10" y="31" width="160" height="8" style="fill:#e1e0d9"/><rect x="10" y="31" width="132.7" height="8" style="fill:#2a78d6"/><rect x="144.7" y="31" width="9.3" height="8" style="fill:#eb6834"/><rect x="156" y="31" width="14" height="8" style="fill:#1baf7a"/></g><text x="10" y="57.5" style="font-size:10.5px;font-weight:400;fill:#898781;font-variant-numeric:tabular-nums">67 samples  ·  gini 0.265</text></g><g transform="translate(553,227)"><title>malic_acid ≤ 2.08
8 samples  ·  gini 0.375</title><rect class="dti-frame" width="180" height="69.5" rx="10" filter="url(#dti13-sh)" style="fill:#ffffff;stroke:#e4e3dd;stroke-width:1"/><text x="10" y="20.5" style="font-size:13px;font-weight:600;fill:#0b0b0b">malic_acid</text><clipPath id="dti13-cb9"><rect x="10" y="31" width="160" height="8" rx="4"/></clipPath><g clip-path="url(#dti13-cb9)"><rect x="10" y="31" width="160" height="8" style="fill:#e1e0d9"/><rect x="10" y="31" width="39.5" height="8" style="fill:#eb6834"/><rect x="51.5" y="31" width="118.5" height="8" style="fill:#1baf7a"/></g><text x="10" y="57.5" style="font-size:10.5px;font-weight:400;fill:#898781;font-variant-numeric:tabular-nums">8 samples  ·  gini 0.375</text></g><g transform="translate(520,340.5)"><title>grignolino
2 samples  ·  gini 0
grignolino: 2</title><rect class="dti-frame" width="116" height="65.5" rx="10" filter="url(#dti13-sh)" style="fill:#ffffff;stroke:#e4e3dd;stroke-width:1"/><clipPath id="dti13-cc10"><rect width="116" height="65.5" rx="10"/></clipPath><g clip-path="url(#dti13-cc10)"><rect width="116" height="65.5" style="fill:#eb6834;fill-opacity:0.07"/><rect width="116" height="4" style="fill:#eb6834"/></g><circle cx="14.5" cy="18.2" r="4.5" style="fill:#eb6834"/><text x="25" y="23" style="font-size:13.5px;font-weight:600;fill:#0b0b0b">grignolino</text><text x="10" y="40.5" style="font-size:11px;font-weight:400;fill:#52514e;font-variant-numeric:tabular-nums">100% of 2</text><clipPath id="dti13-cb10"><rect x="10" y="49.5" width="96" height="6" rx="3"/></clipPath><g clip-path="url(#dti13-cb10)"><rect x="10" y="49.5" width="96" height="6" style="fill:#e1e0d9"/><rect x="10" y="49.5" width="96" height="6" style="fill:#eb6834"/></g></g><g transform="translate(650,340.5)"><title>barbera
6 samples  ·  gini 0
barbera: 6</title><rect class="dti-frame" width="116" height="65.5" rx="10" filter="url(#dti13-sh)" style="fill:#ffffff;stroke:#e4e3dd;stroke-width:1"/><clipPath id="dti13-cc11"><rect width="116" height="65.5" rx="10"/></clipPath><g clip-path="url(#dti13-cc11)"><rect width="116" height="65.5" style="fill:#1baf7a;fill-opacity:0.07"/><rect width="116" height="4" style="fill:#1baf7a"/></g><circle cx="14.5" cy="18.2" r="4.5" style="fill:#1baf7a"/><text x="25" y="23" style="font-size:13.5px;font-weight:600;fill:#0b0b0b">barbera</text><text x="10" y="40.5" style="font-size:11px;font-weight:400;fill:#52514e;font-variant-numeric:tabular-nums">100% of 6</text><clipPath id="dti13-cb11"><rect x="10" y="49.5" width="96" height="6" rx="3"/></clipPath><g clip-path="url(#dti13-cb11)"><rect x="10" y="49.5" width="96" height="6" style="fill:#e1e0d9"/><rect x="10" y="49.5" width="96" height="6" style="fill:#1baf7a"/></g></g><g transform="translate(813,227)"><title>magnesium ≤ 136
59 samples  ·  gini 0.0655</title><rect class="dti-frame" width="180" height="69.5" rx="10" filter="url(#dti13-sh)" style="fill:#ffffff;stroke:#e4e3dd;stroke-width:1"/><text x="10" y="20.5" style="font-size:13px;font-weight:600;fill:#0b0b0b">magnesium</text><clipPath id="dti13-cb12"><rect x="10" y="31" width="160" height="8" rx="4"/></clipPath><g clip-path="url(#dti13-cb12)"><rect x="10" y="31" width="160" height="8" style="fill:#e1e0d9"/><rect x="10" y="31" width="152.6" height="8" style="fill:#2a78d6"/><rect x="164.6" y="31" width="5.4" height="8" style="fill:#eb6834"/></g><text x="10" y="57.5" style="font-size:10.5px;font-weight:400;fill:#898781;font-variant-numeric:tabular-nums">59 samples  ·  gini 0.0655</text></g><g transform="translate(780,340.5)"><title>barolo
57 samples  ·  gini 0
barolo: 57</title><rect class="dti-frame" width="116" height="65.5" rx="10" filter="url(#dti13-sh)" style="fill:#ffffff;stroke:#e4e3dd;stroke-width:1"/><clipPath id="dti13-cc13"><rect width="116" height="65.5" rx="10"/></clipPath><g clip-path="url(#dti13-cc13)"><rect width="116" height="65.5" style="fill:#2a78d6;fill-opacity:0.07"/><rect width="116" height="4" style="fill:#2a78d6"/></g><circle cx="14.5" cy="18.2" r="4.5" style="fill:#2a78d6"/><text x="25" y="23" style="font-size:13.5px;font-weight:600;fill:#0b0b0b">barolo</text><text x="10" y="40.5" style="font-size:11px;font-weight:400;fill:#52514e;font-variant-numeric:tabular-nums">100% of 57</text><clipPath id="dti13-cb13"><rect x="10" y="49.5" width="96" height="6" rx="3"/></clipPath><g clip-path="url(#dti13-cb13)"><rect x="10" y="49.5" width="96" height="6" style="fill:#e1e0d9"/><rect x="10" y="49.5" width="96" height="6" style="fill:#2a78d6"/></g></g><g transform="translate(910,340.5)"><title>grignolino
2 samples  ·  gini 0
grignolino: 2</title><rect class="dti-frame" width="116" height="65.5" rx="10" filter="url(#dti13-sh)" style="fill:#ffffff;stroke:#e4e3dd;stroke-width:1"/><clipPath id="dti13-cc14"><rect width="116" height="65.5" rx="10"/></clipPath><g clip-path="url(#dti13-cc14)"><rect width="116" height="65.5" style="fill:#eb6834;fill-opacity:0.07"/><rect width="116" height="4" style="fill:#eb6834"/></g><circle cx="14.5" cy="18.2" r="4.5" style="fill:#eb6834"/><text x="25" y="23" style="font-size:13.5px;font-weight:600;fill:#0b0b0b">grignolino</text><text x="10" y="40.5" style="font-size:11px;font-weight:400;fill:#52514e;font-variant-numeric:tabular-nums">100% of 2</text><clipPath id="dti13-cb14"><rect x="10" y="49.5" width="96" height="6" rx="3"/></clipPath><g clip-path="url(#dti13-cb14)"><rect x="10" y="49.5" width="96" height="6" style="fill:#e1e0d9"/><rect x="10" y="49.5" width="96" height="6" style="fill:#eb6834"/></g></g><g class="dti-pill"><rect x="351.3" y="82.5" width="40.7" height="18" rx="9" style="fill:#ffffff;stroke:#e4e3dd;stroke-width:1"/><text x="371.7" y="95.2" text-anchor="middle" style="font-size:10.5px;font-weight:600;fill:#0b0b0b;font-variant-numeric:tabular-nums">≤ 755</text></g><g class="dti-pill"><rect x="641.4" y="82.5" width="40.6" height="18" rx="9" style="fill:#ffffff;stroke:#e4e3dd;stroke-width:1"/><text x="661.7" y="95.2" text-anchor="middle" style="font-size:10.5px;font-weight:600;fill:#0b0b0b;font-variant-numeric:tabular-nums">&gt; 755</text></g><g class="dti-pill"><rect x="155.2" y="196" width="43.7" height="18" rx="9" style="fill:#ffffff;stroke:#e4e3dd;stroke-width:1"/><text x="177" y="208.7" text-anchor="middle" style="font-size:10.5px;font-weight:600;fill:#0b0b0b;font-variant-numeric:tabular-nums">≤ 2.11</text></g><g class="dti-pill"><rect x="304" y="196" width="43.5" height="18" rx="9" style="fill:#ffffff;stroke:#e4e3dd;stroke-width:1"/><text x="325.8" y="208.7" text-anchor="middle" style="font-size:10.5px;font-weight:600;fill:#0b0b0b;font-variant-numeric:tabular-nums">&gt; 2.11</text></g><g class="dti-pill"><rect x="64.7" y="309.5" width="49.5" height="18" rx="9" style="fill:#ffffff;stroke:#e4e3dd;stroke-width:1"/><text x="89.5" y="322.2" text-anchor="middle" style="font-size:10.5px;font-weight:600;fill:#0b0b0b;font-variant-numeric:tabular-nums">≤ 0.935</text></g><g class="dti-pill"><rect x="137.6" y="309.5" width="49.3" height="18" rx="9" style="fill:#ffffff;stroke:#e4e3dd;stroke-width:1"/><text x="162.2" y="322.2" text-anchor="middle" style="font-size:10.5px;font-weight:600;fill:#0b0b0b;font-variant-numeric:tabular-nums">&gt; 0.935</text></g><g class="dti-pill"><rect x="315.1" y="309.5" width="49.5" height="18" rx="9" style="fill:#ffffff;stroke:#e4e3dd;stroke-width:1"/><text x="339.9" y="322.2" text-anchor="middle" style="font-size:10.5px;font-weight:600;fill:#0b0b0b;font-variant-numeric:tabular-nums">≤ 0.795</text></g><g class="dti-pill"><rect x="391.2" y="309.5" width="49.3" height="18" rx="9" style="fill:#ffffff;stroke:#e4e3dd;stroke-width:1"/><text x="415.8" y="322.2" text-anchor="middle" style="font-size:10.5px;font-weight:600;fill:#0b0b0b;font-variant-numeric:tabular-nums">&gt; 0.795</text></g><g class="dti-pill"><rect x="676.2" y="196" width="43.7" height="18" rx="9" style="fill:#ffffff;stroke:#e4e3dd;stroke-width:1"/><text x="698.1" y="208.7" text-anchor="middle" style="font-size:10.5px;font-weight:600;fill:#0b0b0b;font-variant-numeric:tabular-nums">≤ 2.17</text></g><g class="dti-pill"><rect x="817.6" y="196" width="43.5" height="18" rx="9" style="fill:#ffffff;stroke:#e4e3dd;stroke-width:1"/><text x="839.3" y="208.7" text-anchor="middle" style="font-size:10.5px;font-weight:600;fill:#0b0b0b;font-variant-numeric:tabular-nums">&gt; 2.17</text></g><g class="dti-pill"><rect x="587.7" y="309.5" width="43.7" height="18" rx="9" style="fill:#ffffff;stroke:#e4e3dd;stroke-width:1"/><text x="609.5" y="322.2" text-anchor="middle" style="font-size:10.5px;font-weight:600;fill:#0b0b0b;font-variant-numeric:tabular-nums">≤ 2.08</text></g><g class="dti-pill"><rect x="654.1" y="309.5" width="43.5" height="18" rx="9" style="fill:#ffffff;stroke:#e4e3dd;stroke-width:1"/><text x="675.8" y="322.2" text-anchor="middle" style="font-size:10.5px;font-weight:600;fill:#0b0b0b;font-variant-numeric:tabular-nums">&gt; 2.08</text></g><g class="dti-pill"><rect x="849.8" y="309.5" width="40.7" height="18" rx="9" style="fill:#ffffff;stroke:#e4e3dd;stroke-width:1"/><text x="870.2" y="322.2" text-anchor="middle" style="font-size:10.5px;font-weight:600;fill:#0b0b0b;font-variant-numeric:tabular-nums">≤ 136</text></g><g class="dti-pill"><rect x="924.8" y="309.5" width="40.6" height="18" rx="9" style="fill:#ffffff;stroke:#e4e3dd;stroke-width:1"/><text x="945.1" y="322.2" text-anchor="middle" style="font-size:10.5px;font-weight:600;fill:#0b0b0b;font-variant-numeric:tabular-nums">&gt; 136</text></g></g></svg>