<svg xmlns="http://www.w3.org/2000/svg" width="556" height="667" viewBox="0 0 556 667" role="img" aria-label="Cervical spine injury" font-family="Helvetica, &#x27;Helvetica Neue&#x27;, Arial, &#x27;Nimbus Sans&#x27;, &#x27;Liberation Sans&#x27;, sans-serif"><defs><filter id="dti1-sh" x="-20%" y="-20%" width="140%" height="160%"><feDropShadow dx="0" dy="1" stdDeviation="1" style="flood-color:#1a1a1a;flood-opacity:0.06"/><feDropShadow dx="0" dy="6" stdDeviation="8" style="flood-color:#1a1a1a;flood-opacity:0.07"/></filter></defs><rect width="100%" height="100%" style="fill:#ffffff"/><g transform="translate(18,18)"><text x="0" y="18" style="font-size:18px;font-weight:650;fill:#0b0b0b">Cervical spine injury</text><text x="0" y="39" style="font-size:12px;font-weight:400;fill:#52514e">HSTreeClassifierCV (shrinkage 100)  ·  depth 3  ·  4 leaves  ·  2,484 training samples</text><circle cx="5" cy="54" r="5" style="fill:#2a78d6"/><text x="15" y="58" style="font-size:11.5px;font-weight:400;fill:#52514e">no CSI</text><circle cx="66.2" cy="54" r="5" style="fill:#eb6834"/><text x="76.2" y="58" style="font-size:11.5px;font-weight:400;fill:#52514e">CSI</text></g><g transform="translate(66,95)"><g style="fill-opacity:0.32"><title>FocalNeuroFindings2 = 0: = 0  →  2,109 samples</title><path d="M225,115.5C225,137.5 153.1,137.5 153.1,159.5L242.8,159.5C242.8,137.5 314.8,137.5 314.8,115.5Z" style="fill:#2a78d6"/><path d="M314.8,115.5C314.8,137.5 242.8,137.5 242.8,159.5L254.9,159.5C254.9,137.5 326.9,137.5 326.9,115.5Z" style="fill:#eb6834"/></g><g style="fill-opacity:0.32"><title>FocalNeuroFindings2 = 0: = 1  →  375 samples</title><path d="M326.9,115.5C326.9,137.5 356.9,137.5 356.9,159.5L367.5,159.5C367.5,137.5 337.5,137.5 337.5,115.5Z" style="fill:#2a78d6"/><path d="M337.5,115.5C337.5,137.5 367.5,137.5 367.5,159.5L375.1,159.5C375.1,137.5 345,137.5 345,115.5Z" style="fill:#eb6834"/></g><g style="fill-opacity:0.32"><title>HighriskDiving = 0: = 0  →  2,089 samples</title><path d="M153.1,275C153.1,297 72.5,297 72.5,319L162,319C162,297 242.5,297 242.5,275Z" style="fill:#2a78d6"/><path d="M242.5,275C242.5,297 162,297 162,319L173.5,319C173.5,297 254,297 254,275Z" style="fill:#eb6834"/></g><g style="fill-opacity:0.32"><title>HighriskDiving = 0: = 1  →  20 samples</title><path d="M254,275C254,297 284.2,297 284.2,319L284.7,319C284.7,297 254.3,297 254.3,275Z" style="fill:#2a78d6"/><path d="M254.3,275C254.3,297 284.7,297 284.7,319L285.8,319C285.8,297 254.9,297 254.9,275Z" style="fill:#eb6834"/></g><g style="fill-opacity:0.32"><title>Torticollis2 = 0: = 0  →  1,964 samples</title><path d="M72.5,434.5C72.5,456.5 10.6,456.5 10.6,478.5L95.8,478.5C95.8,456.5 157.8,456.5 157.8,434.5Z" style="fill:#2a78d6"/><path d="M157.8,434.5C157.8,456.5 95.8,456.5 95.8,478.5L105.4,478.5C105.4,456.5 167.4,456.5 167.4,434.5Z" style="fill:#eb6834"/></g><g style="fill-opacity:0.32"><title>Torticollis2 = 0: = 1  →  125 samples</title><path d="M167.4,434.5C167.4,456.5 185,456.5 185,478.5L189.2,478.5C189.2,456.5 171.7,456.5 171.7,434.5Z" style="fill:#2a78d6"/><path d="M171.7,434.5C171.7,456.5 189.2,456.5 189.2,478.5L191,478.5C191,456.5 173.5,456.5 173.5,434.5Z" style="fill:#eb6834"/></g><g transform="translate(195,0)"><title>FocalNeuroFindings2 = 0
2,484 samples  ·  gini 0.274</title><rect class="dti-frame" width="180" height="115.5" rx="10" filter="url(#dti1-sh)" style="fill:#ffffff;stroke:#e4e3dd;stroke-width:1"/><text x="10" y="20.5" style="font-size:13px;font-weight:600;fill:#0b0b0b">FocalNeuroFindings2</text><path d="M39,71V37.5H61V71Z" style="fill:#2a78d6"/><path d="M39,37.5V35Q39,33 41,33H59Q61,33 61,35V37.5Z" style="fill:#eb6834"/><path d="M119,71V67.1H141V71Z" style="fill:#2a78d6"/><path d="M119,67.1V66.2Q119,64.2 121,64.2H139Q141,64.2 141,66.2V67.1Z" style="fill:#eb6834"/><line x1="10" y1="71.5" x2="170" y2="71.5" style="stroke:#c3c2b7;stroke-width:1"/><path d="M90,73l4.5,6h-9z" style="fill:#0b0b0b"/><text x="90" y="90" text-anchor="middle" style="font-size:10.5px;font-weight:600;fill:#0b0b0b">0 | 1</text><text x="10" y="103.5" style="font-size:10.5px;font-weight:400;fill:#898781;font-variant-numeric:tabular-nums">2,484 samples  ·  gini 0.274</text></g><g transform="translate(114,159.5)"><title>HighriskDiving = 0
2,109 samples  ·  gini 0.207</title><rect class="dti-frame" width="180" height="115.5" rx="10" filter="url(#dti1-sh)" style="fill:#ffffff;stroke:#e4e3dd;stroke-width:1"/><text x="10" y="20.5" style="font-size:13px;font-weight:600;fill:#0b0b0b">HighriskDiving</text><path d="M39,71V37.2H61V71Z" style="fill:#2a78d6"/><path d="M39,37.2V35Q39,33 41,33H59Q61,33 61,35V37.2Z" style="fill:#eb6834"/><path d="M119,71V70.9H141V71Z" style="fill:#2a78d6"/><path d="M119,70.9V70.9Q119,70.6 119.3,70.6H140.7Q141,70.6 141,70.9V70.9Z" style="fill:#eb6834"/><line x1="10" y1="71.5" x2="170" y2="71.5" style="stroke:#c3c2b7;stroke-width:1"/><path d="M90,73l4.5,6h-9z" style="fill:#0b0b0b"/><text x="90" y="90" text-anchor="middle" style="font-size:10.5px;font-weight:600;fill:#0b0b0b">0 | 1</text><text x="10" y="103.5" style="font-size:10.5px;font-weight:400;fill:#898781;font-variant-numeric:tabular-nums">2,109 samples  ·  gini 0.207</text></g><g transform="translate(33,319)"><title>Torticollis2 = 0
2,089 samples  ·  gini 0.198</title><rect class="dti-frame" width="180" height="115.5" rx="10" filter="url(#dti1-sh)" style="fill:#ffffff;stroke:#e4e3dd;stroke-width:1"/><text x="10" y="20.5" style="font-size:13px;font-weight:600;fill:#0b0b0b">Torticollis2</text><path d="M39,71V36.8H61V71Z" style="fill:#2a78d6"/><path d="M39,36.8V35Q39,33 41,33H59Q61,33 61,35V36.8Z" style="fill:#eb6834"/><path d="M119,71V69.3H141V71Z" style="fill:#2a78d6"/><path d="M119,69.3V69.3Q119,68.6 119.7,68.6H140.3Q141,68.6 141,69.3V69.3Z" style="fill:#eb6834"/><line x1="10" y1="71.5" x2="170" y2="71.5" style="stroke:#c3c2b7;stroke-width:1"/><path d="M90,73l4.5,6h-9z" style="fill:#0b0b0b"/><text x="90" y="90" text-anchor="middle" style="font-size:10.5px;font-weight:600;fill:#0b0b0b">0 | 1</text><text x="10" y="103.5" style="font-size:10.5px;font-weight:400;fill:#898781;font-variant-numeric:tabular-nums">2,089 samples  ·  gini 0.198</text></g><g transform="translate(0,478.5)"><title>no CSI
1,964 samples  ·  gini 0.179
no CSI: 1,764
CSI: 200</title><rect class="dti-frame" width="116" height="65.5" rx="10" filter="url(#dti1-sh)" style="fill:#ffffff;stroke:#e4e3dd;stroke-width:1"/><clipPath id="dti1-cc5"><rect width="116" height="65.5" rx="10"/></clipPath><g clip-path="url(#dti1-cc5)"><rect width="116" height="65.5" style="fill:#2a78d6;fill-opacity:0.07"/><rect width="116" height="4" style="fill:#2a78d6"/></g><circle cx="14.5" cy="18.2" r="4.5" style="fill:#2a78d6"/><text x="25" y="23" style="font-size:13.5px;font-weight:600;fill:#0b0b0b">no CSI</text><text x="10" y="40.5" style="font-size:11px;font-weight:400;fill:#52514e;font-variant-numeric:tabular-nums">90% of 1,964</text><clipPath id="dti1-cb5"><rect x="10" y="49.5" width="96" height="6" rx="3"/></clipPath><g clip-path="url(#dti1-cb5)"><rect x="10" y="49.5" width="96" height="6" style="fill:#e1e0d9"/><rect x="10" y="49.5" width="84.4" height="6" style="fill:#2a78d6"/><rect x="96.4" y="49.5" width="9.6" height="6" style="fill:#eb6834"/></g></g><g transform="translate(130,478.5)"><title>no CSI
125 samples  ·  gini 0.423
no CSI: 87.8
CSI: 37.2</title><rect class="dti-frame" width="116" height="65.5" rx="10" filter="url(#dti1-sh)" style="fill:#ffffff;stroke:#e4e3dd;stroke-width:1"/><clipPath id="dti1-cc6"><rect width="116" height="65.5" rx="10"/></clipPath><g clip-path="url(#dti1-cc6)"><rect width="116" height="65.5" style="fill:#2a78d6;fill-opacity:0.07"/><rect width="116" height="4" style="fill:#2a78d6"/></g><circle cx="14.5" cy="18.2" r="4.5" style="fill:#2a78d6"/><text x="25" y="23" style="font-size:13.5px;font-weight:600;fill:#0b0b0b">no CSI</text><text x="10" y="40.5" style="font-size:11px;font-weight:400;fill:#52514e;font-variant-numeric:tabular-nums">70% of 125</text><clipPath id="dti1-cb6"><rect x="10" y="49.5" width="96" height="6" rx="3"/></clipPath><g clip-path="url(#dti1-cb6)"><rect x="10" y="49.5" width="96" height="6" style="fill:#e1e0d9"/><rect x="10" y="49.5" width="66.1" height="6" style="fill:#2a78d6"/><rect x="78.1" y="49.5" width="27.9" height="6" style="fill:#eb6834"/></g></g><g transform="translate(227,319)"><title>CSI
20 samples  ·  gini 0.42
no CSI: 6.49
CSI: 13.5</title><rect class="dti-frame" width="116" height="65.5" rx="10" filter="url(#dti1-sh)" style="fill:#ffffff;stroke:#e4e3dd;stroke-width:1"/><clipPath id="dti1-cc4"><rect width="116" height="65.5" rx="10"/></clipPath><g clip-path="url(#dti1-cc4)"><rect width="116" height="65.5" style="fill:#eb6834;fill-opacity:0.07"/><rect width="116" height="4" style="fill:#eb6834"/></g><circle cx="14.5" cy="18.2" r="4.5" style="fill:#eb6834"/><text x="25" y="23" style="font-size:13.5px;font-weight:600;fill:#0b0b0b">CSI</text><text x="10" y="40.5" style="font-size:11px;font-weight:400;fill:#52514e;font-variant-numeric:tabular-nums">68% of 20</text><clipPath id="dti1-cb4"><rect x="10" y="49.5" width="96" height="6" rx="3"/></clipPath><g clip-path="url(#dti1-cb4)"><rect x="10" y="49.5" width="96" height="6" style="fill:#e1e0d9"/><rect x="10" y="49.5" width="30.5" height="6" style="fill:#2a78d6"/><rect x="42.5" y="49.5" width="63.5" height="6" style="fill:#eb6834"/></g></g><g transform="translate(308,159.5)"><title>no CSI
375 samples  ·  gini 0.489
no CSI: 219
CSI: 156</title><rect class="dti-frame" width="116" height="65.5" rx="10" filter="url(#dti1-sh)" style="fill:#ffffff;stroke:#e4e3dd;stroke-width:1"/><clipPath id="dti1-cc2"><rect width="116" height="65.5" rx="10"/></clipPath><g clip-path="url(#dti1-cc2)"><rect width="116" height="65.5" style="fill:#2a78d6;fill-opacity:0.07"/><rect width="116" height="4" style="fill:#2a78d6"/></g><circle cx="14.5" cy="18.2" r="4.5" style="fill:#2a78d6"/><text x="25" y="23" style="font-size:13.5px;font-weight:600;fill:#0b0b0b">no CSI</text><text x="10" y="40.5" style="font-size:11px;font-weight:400;fill:#52514e;font-variant-numeric:tabular-nums">58% of 375</text><clipPath id="dti1-cb2"><rect x="10" y="49.5" width="96" height="6" rx="3"/></clipPath><g clip-path="url(#dti1-cb2)"><rect x="10" y="49.5" width="96" height="6" style="fill:#e1e0d9"/><rect x="10" y="49.5" width="54.8" height="6" style="fill:#2a78d6"/><rect x="66.8" y="49.5" width="39.2" height="6" style="fill:#eb6834"/></g></g><g class="dti-pill"><rect x="225.5" y="128.5" width="28.9" height="18" rx="9" style="fill:#ffffff;stroke:#e4e3dd;stroke-width:1"/><text x="240" y="141.2" text-anchor="middle" style="font-size:10.5px;font-weight:600;fill:#0b0b0b;font-variant-numeric:tabular-nums">= 0</text></g><g class="dti-pill"><rect x="336.5" y="128.5" width="28.9" height="18" rx="9" style="fill:#ffffff;stroke:#e4e3dd;stroke-width:1"/><text x="351" y="141.2" text-anchor="middle" style="font-size:10.5px;font-weight:600;fill:#0b0b0b;font-variant-numeric:tabular-nums">= 1</text></g><g class="dti-pill"><rect x="148.8" y="288" width="28.9" height="18" rx="9" style="fill:#ffffff;stroke:#e4e3dd;stroke-width:1"/><text x="163.3" y="300.7" text-anchor="middle" style="font-size:10.5px;font-weight:600;fill:#0b0b0b;font-variant-numeric:tabular-nums">= 0</text></g><g class="dti-pill"><rect x="255.3" y="288" width="28.9" height="18" rx="9" style="fill:#ffffff;stroke:#e4e3dd;stroke-width:1"/><text x="269.7" y="300.7" text-anchor="middle" style="font-size:10.5px;font-weight:600;fill:#0b0b0b;font-variant-numeric:tabular-nums">= 1</text></g><g class="dti-pill"><rect x="74.5" y="447.5" width="28.9" height="18" rx="9" style="fill:#ffffff;stroke:#e4e3dd;stroke-width:1"/><text x="89" y="460.2" text-anchor="middle" style="font-size:10.5px;font-weight:600;fill:#0b0b0b;font-variant-numeric:tabular-nums">= 0</text></g><g class="dti-pill"><rect x="164.8" y="447.5" width="28.9" height="18" rx="9" style="fill:#ffffff;stroke:#e4e3dd;stroke-width:1"/><text x="179.2" y="460.2" text-anchor="middle" style="font-size:10.5px;font-weight:600;fill:#0b0b0b;font-variant-numeric:tabular-nums">= 1</text></g></g></svg>