<svg version="1.1" viewBox="0.0 0.0 384.0 336.0" fill="none" stroke="none" stroke-linecap="square" stroke-miterlimit="10" xmlns:xlink="http://www.w3.org/1999/xlink" xmlns="http://www.w3.org/2000/svg"><clipPath id="gb192dbb9d7_0_25.0"><path d="m0 0l384.0 0l0 336.0l-384.0 0l0 -336.0z" clip-rule="nonzero"/></clipPath><g clip-path="url(#gb192dbb9d7_0_25.0)"><path fill="#ffffff" d="m0 0l384.0 0l0 336.0l-384.0 0z" fill-rule="evenodd"/><path fill="#3d85c6" fill-opacity="0.4637" d="m75.90516 33.917915l162.36221 0l0 97.10236l-162.36221 0z" fill-rule="evenodd"/><path stroke="#3d85c6" stroke-width="1.0" stroke-linejoin="round" stroke-linecap="butt" d="m75.90516 33.917915l162.36221 0l0 97.10236l-162.36221 0z" fill-rule="evenodd"/><path fill="#e98a11" fill-opacity="0.5196" d="m75.90516 98.390854l128.94489 0l0 161.54332l-128.94489 0z" fill-rule="evenodd"/><path stroke="#595959" stroke-width="1.0" stroke-linejoin="round" stroke-linecap="butt" d="m75.90516 98.390854l128.94489 0l0 161.54332l-128.94489 0z" fill-rule="evenodd"/><path fill="#3d85c6" fill-opacity="0.4637" d="m183.35178 162.83646l162.36221 0l0 97.102356l-162.36221 0z" fill-rule="evenodd"/><path stroke="#595959" stroke-width="1.0" stroke-linejoin="round" stroke-linecap="butt" d="m183.35178 162.83646l162.36221 0l0 97.102356l-162.36221 0z" fill-rule="evenodd"/><path fill="#000000" fill-opacity="0.0" d="m62.23917 14.975898l0 259.46457" fill-rule="evenodd"/><path stroke="#595959" stroke-width="1.0" stroke-linejoin="round" stroke-linecap="butt" d="m62.23917 14.975898l0 259.46457" fill-rule="evenodd"/><path fill="#000000" fill-opacity="0.0" d="m358.09448 272.9074l-295.1181 0" fill-rule="evenodd"/><path stroke="#595959" stroke-width="1.0" stroke-linejoin="round" stroke-linecap="butt" d="m358.09448 272.9074l-295.1181 0" fill-rule="evenodd"/><path fill="#000000" fill-opacity="0.0" d="m186.64064 277.878l47.181107 0l0 38.70868l-47.181107 0z" fill-rule="evenodd"/><path fill="#000000" d="m195.71877 304.798l5.171875 -6.953125l-4.5625 -6.40625l2.109375 0l2.421875 3.4375q0.75 1.0625 1.078125 1.625q0.4375 -0.71875 1.046875 -1.515625l2.6875 -3.546875l1.921875 0l-4.6875 6.296875l5.0625 7.0625l-2.1875 0l-3.359375 -4.765625q-0.28125 -0.40625 -0.59375 -0.890625q-0.4375 0.734375 -0.625 1.0l-3.359375 4.65625l-2.125 0z" fill-rule="nonzero"/><path fill="#000000" d="m212.72484 311.798l-1.09375 0l0 -6.96875q-0.40625 0.375 -1.046875 0.75q-0.640625 0.375 -1.140625 0.578125l0 -1.0625q0.90625 -0.4375 1.59375 -1.046875q0.6875 -0.609375 0.96875 -1.1875l0.71875 0l0 8.9375z" fill-rule="nonzero"/><path fill="#000000" fill-opacity="0.0" d="m15.952756 113.64966l43.14961 0l0 38.708664l-43.14961 0z" fill-rule="evenodd"/><path fill="#000000" d="m25.03088 140.56966l5.171875 -6.953125l-4.5625 -6.40625l2.109375 0l2.421875 3.4375q0.75 1.0625 1.078125 1.625q0.4375 -0.71875 1.046875 -1.515625l2.6875 -3.546875l1.921875 0l-4.6875 6.296875l5.0625 7.0625l-2.1875 0l-3.359375 -4.765625q-0.28125 -0.40625 -0.59375 -0.890625q-0.4375 0.734375 -0.625 1.0l-3.359375 4.65625l-2.125 0z" fill-rule="nonzero"/><path fill="#000000" d="m43.661953 146.52278l0 1.046875l-5.890625 0q-0.015625 -0.390625 0.125 -0.765625q0.234375 -0.59375 0.71875 -1.171875q0.5 -0.59375 1.4375 -1.359375q1.453125 -1.1875 1.953125 -1.875q0.515625 -0.703125 0.515625 -1.3125q0 -0.65625 -0.46875 -1.09375q-0.453125 -0.453125 -1.203125 -0.453125q-0.796875 0 -1.265625 0.46875q-0.46875 0.46875 -0.484375 1.3125l-1.125 -0.109375q0.125 -1.265625 0.875 -1.921875q0.75 -0.65625 2.015625 -0.65625q1.28125 0 2.03125 0.71875q0.75 0.703125 0.75 1.75q0 0.53125 -0.21875 1.046875q-0.21875 0.515625 -0.734375 1.09375q-0.5 0.5625 -1.671875 1.5625q-0.984375 0.828125 -1.265625 1.125q-0.28125 0.296875 -0.46875 0.59375l4.375 0z" fill-rule="nonzero"/><path fill="#efefef" d="m238.26772 33.918636l107.43309 0l0 128.91338l-107.43309 0z" fill-rule="evenodd"/><path stroke="#3d85c6" stroke-width="1.0" stroke-linejoin="round" stroke-linecap="butt" d="m238.26772 33.918636l107.43309 0l0 128.91338l-107.43309 0z" fill-rule="evenodd"/><path fill="#e98a11" fill-opacity="0.5196" d="m75.90551 199.17854l34.48819 0l0 60.755905l-34.48819 0z" fill-rule="evenodd"/><path stroke="#000000" stroke-width="1.0" stroke-linejoin="round" stroke-linecap="butt" d="m75.90551 199.17854l34.48819 0l0 60.755905l-34.48819 0z" fill-rule="evenodd"/></g></svg>